<?xml version="1.0" encoding="utf-8"?>
<!-- Generator: Adobe Illustrator 24.0.0, SVG Export Plug-In . SVG Version: 6.00 Build 0)  -->
<svg version="1.1" id="Layer_1" xmlns="http://www.w3.org/2000/svg" xmlns:xlink="http://www.w3.org/1999/xlink" x="0px" y="0px"
	 viewBox="0 0 985.6 184.3" style="enable-background:new 0 0 985.6 184.3;" xml:space="preserve">
<style type="text/css">
	.st0{fill:#002E70;}
</style>
<g>
	<path class="st0" d="M0,181.9C0,121.1,0,61.3,0,1c1.3-0.2,2.5-0.4,3.8-0.4c21,0,42-0.2,63,0.1c15,0.2,29.5,3.1,42.9,10
		c19.9,10.3,32,26.8,37,48.4c4.9,21,4.6,42.1-1.3,62.8c-9.1,32.1-30.8,51.2-63.2,57.4C55.1,184.5,27.7,180.6,0,181.9z M48.1,140.9
		c6.1,0,11.6,0.5,17-0.1c18.2-2.1,28.4-11.1,32.5-28.8c3.4-14.6,3.6-29.4,0.2-44.1c-2.4-10.3-7.4-19-17.3-23.8
		c-10.3-5-21.3-4.1-32.4-3.8C48.1,74.2,48.1,107.5,48.1,140.9z"/>
	<path class="st0" d="M503.2,114.8c-1.4,8.5-2,17.2-4.3,25.5c-6.9,25.4-27.3,41.9-53.6,43.3c-8.7,0.4-17.8,0.3-26.3-1.5
		c-25.7-5.4-43.5-26.2-47-53.2c-1.9-14.4-1.5-28.6,2.7-42.5c7.4-24.2,26.6-39.6,51.8-41.7c12.7-1.1,25.3-0.7,37.3,4.3
		c24.5,10.2,35.4,30,38.2,55.2c0.3,2.5,0.3,5,0.4,7.5c0,1,0,2,0,3C502.6,114.7,502.9,114.8,503.2,114.8z M456.9,113.8
		c-1.3-7.6-2-15.3-4-22.6c-2.3-8.4-8-12.2-16.1-12.3c-8-0.1-13.9,3.8-16.4,12.1c-4.6,15.3-4.6,30.9,0.1,46.2
		c2.6,8.3,8.3,12.2,16.3,12.2c8,0,13.7-3.9,16-12.4C454.8,129.5,455.5,121.7,456.9,113.8z"/>
	<path class="st0" d="M907.1,144.5c2.2,9.4,4.5,19.4,6.8,29.5c-9.6,5.3-19.6,8.6-30.2,8.8c-13.2,0.3-26.8,1.1-39.7-1.3
		c-28.1-5.2-45.7-26.3-48.1-55c-1.1-13.2-0.8-26.3,2.8-39.1c6.9-24.6,24.8-40.3,50.3-42.5c9.8-0.9,20.1-0.6,29.8,1.2
		c24.8,4.5,40.8,22.6,42.9,47.8c0.9,10.7,0.2,21.5,0.2,32.7c-26.4,0-53,0-79.5,0c-1.3,9.5,4.5,19.2,14.8,21.7
		c7.9,1.9,16.5,2.2,24.6,1.5C890.1,149.2,898.3,146.5,907.1,144.5z M881,97c-0.1-7.8-2.4-14.2-8.9-18.2c-6.6-4.1-13.7-3.9-20.4,0.1
		c-6.6,4-8.6,10.5-9,18.1C855.7,97,868.1,97,881,97z"/>
	<path class="st0" d="M289.9,126.7c-26.9,0-53.6,0-80.4,0c0.5,14.1,10.1,23.2,24.8,23.9c12.1,0.6,23.9-0.9,35.3-5.1
		c1.2-0.5,2.5-0.9,3.8-1.3c0.3-0.1,0.6,0.1,1.3,0.1c2.2,9.7,4.5,19.6,6.9,30c-4.4,1.8-8.4,3.9-12.6,5.1c-18.9,5.4-38.1,6.4-57.3,2.4
		c-27.2-5.7-44.4-25-47.8-52.7c-1.8-14.5-1.2-28.9,2.9-43c7.1-23.9,25.4-39.4,50.3-41.2c9.9-0.7,20.1-0.5,29.8,1.4
		c25.3,4.9,40.7,23.1,42.8,49.7C290.6,106,289.9,116.1,289.9,126.7z M248.6,96.9c0.1-12.4-7.4-20.7-18.5-20.9
		c-11.4-0.2-19.2,8-19.5,20.9C223.2,96.9,235.8,96.9,248.6,96.9z"/>
	<path class="st0" d="M750.7,4.1c0,14.4,0,28,0,42.3c9.8,0,19.2,0,28.8,0c0,11.9,0,23.2,0,35c-9.3,0-18.6,0-28.4,0
		c-0.1,2.1-0.3,3.7-0.3,5.3c0,15.3,0,30.7,0,46c0,11.4,3.9,15.1,15.3,14c6.1-0.6,12-2.2,18.4-3.4c0,10.8,0,21.8,0,33.8
		c-5.2,1.6-10.7,4.3-16.5,5c-10,1.2-20.3,2.3-30.3,1.2c-18.9-2-29.5-13.1-31.9-32.1c-1-7.9-1-15.9-1.1-23.9c-0.2-15,0-29.9,0-45.4
		c-5.3,0-10.3,0-15.6,0c0-11.9,0-23.3,0-35.1c5,0,9.9,0,15.4,0c0-11.9,0-23.3,0-35.1C720.2,9.1,735.2,6.6,750.7,4.1z"/>
	<path class="st0" d="M599.1,81.7c-4.9,0-9.7,0-14.9,0c0-11.7,0-23.1,0-35c4.9,0,9.8,0,15.3,0c0-11.7,0-22.9,0-34.7
		c15.5-2.7,30.4-5.3,46.2-8c0,14.5,0,28.2,0,42.4c9.9,0,19.1,0,28.7,0c0,11.8,0,23,0,34.9c-9.3,0-18.5,0-28.2,0
		c-0.2,2-0.4,3.4-0.4,4.8c0,15.5-0.1,31,0,46.5c0.1,11.5,3.8,15.1,15.3,14c6.2-0.6,12.3-2.3,18.7-3.5c0,10.9,0,21.9,0,33.8
		c-5.2,1.6-10.6,4.4-16.2,4.9c-10.8,1.1-22,2.3-32.7,1c-17.8-2.2-27.2-12.7-29.9-30.5c-0.9-6.2-1.1-12.6-1.2-18.9
		c-0.2-16.7-0.1-33.3-0.1-50C599.7,83.1,599.5,82.8,599.1,81.7z"/>
	<path class="st0" d="M308,181.4c0-60.6,0-120.8,0-181.4c15,0,29.7,0,44.8,0c0,60.4,0,120.7,0,181.4
		C338.1,181.4,323.3,181.4,308,181.4z"/>
	<path class="st0" d="M520.6,46.8c15.2,0,29.9,0,45,0c0,44.8,0,89.4,0,134.5c-14.8,0-29.7,0-45,0C520.6,136.7,520.6,92,520.6,46.8z"
		/>
	<path class="st0" d="M960,132.8c14,0.1,25.4,11.4,25.6,25.3c0.1,14.1-11.4,25.6-25.7,25.7c-14.4,0-25.7-11.2-25.6-25.6
		C934.3,143.9,945.6,132.8,960,132.8z"/>
	<path class="st0" d="M565.5,30.2c-15,0-29.8,0-44.9,0c0-10.1,0-20,0-30.2c15,0,29.7,0,44.9,0C565.5,9.8,565.5,19.7,565.5,30.2z"/>
</g>
</svg>
