<?xml version="1.0" encoding="utf-8"?>
<!-- Generator: Adobe Illustrator 24.0.0, SVG Export Plug-In . SVG Version: 6.00 Build 0)  -->
<svg version="1.1" id="Layer_1" xmlns="http://www.w3.org/2000/svg" xmlns:xlink="http://www.w3.org/1999/xlink" x="0px" y="0px"
	 viewBox="0 0 260 260" style="enable-background:new 0 0 260 260;" xml:space="preserve">
<style type="text/css">
	.st0{fill:#003478;}
</style>
<g>
	<path class="st0" d="M120.6,0.4c25.7-2,51.8,4,74.1,16.9c17.8,10.3,33.2,24.8,44.4,42c13.8,21.1,21.2,46.4,21,71.7
		c-0.2,26.4-8.6,52.7-23.9,74.2c-15.6,22.1-38.2,39-63.8,47.7c-22.7,7.9-47.6,9.1-71,3.8c-24.6-5.5-47.4-18.4-64.8-36.5
		c-18.5-19.2-31-44.1-34.9-70.5c-3.8-23.5-0.7-48,8.5-70c8.5-20.4,22.4-38.5,39.8-52.1C70,11.8,95,2.1,120.6,0.4 M120.6,6.6
		c-15.2,1.1-30.2,5.2-44,11.8C54.4,29,35.4,46.4,23.1,67.7C4.8,98.5,1.3,137.5,13.3,171.2c7.7,21.9,21.8,41.5,39.9,55.9
		c21.1,16.8,47.8,26.4,74.8,26.6c19.7,0.4,39.5-4,57.1-12.9c22.4-11.1,41.2-29.2,53.3-51.1c12-21.7,17.3-47.2,14.6-71.9
		c-3.6-40.1-28.6-77.3-64-96.4C168.3,9.9,144.2,4.7,120.6,6.6L120.6,6.6z"/>
	<path class="st0" d="M98.7,18.4c21.6-6,45-5.8,66.4,1.1c0.9,0.3,1.6,1,2.4,1.6c-3.5-0.3-6.8-1.9-10.2-2.5
		c-8.7-1.7-17.8-2.6-26.6-1.3c-5.5,1-11.4,3.1-14.9,7.8c-2.6,3.4-2.9,8.8,0.1,12.1c3.4,3.6,9.5,3.4,13.2,0.5
		c4.5-3.3,8.8-7.2,14.4-8.4c11.3-2.8,23.2-0.5,34.2,2.7c13.2,3.6,25.6,10.1,35.7,19.3c16.8,14.9,27,36.2,30.8,58.1
		c3.3,18.7,2.3,38.2-3.5,56.3c-0.2,0.8-0.7,1.3-1.6,1.5c3.4-12.3,5.9-25.4,3.3-38.1c-1.3-6.1-4.3-13.1-10.8-15.2
		c-4.9-1.8-11,1.6-11.4,7c-0.9,5.8,3.8,9.9,6.7,14.2c6.3,9,5.5,20.7,4,31.1c-2.9,14-7.6,28-16.1,39.7c-13.1,18.8-34,31.3-56.1,36.6
		c-19.2,4.6-39.5,4.6-58.7-0.2c-2.5-0.8-5.4-1.1-7.3-3c3.7,0,7,1.6,10.6,2.1c9.8,1.8,20,2.9,29.7,0.4c4.4-1.2,8.9-3.3,11.7-7.1
		c2.6-3.5,2.5-8.9-0.6-12.1c-2.7-2.9-7.3-3.5-10.8-1.7c-4.2,2.3-7.3,6-11.6,8.1c-8.6,4.2-18.5,3.6-27.7,2
		c-15.2-3-30.1-8.5-42.4-18.1c-16.2-12.5-27.5-30.7-33-50.3c-5.8-20.5-5.9-42.6-0.5-63.2c0.9-2.1,0.6-5.5,3-6.5
		c-3.1,11.8-5.6,24.1-3.7,36.3c1,5.4,2.9,11.2,7.3,14.7c3.1,2.6,8,3.5,11.4,1c3.7-2.1,4.9-7.2,3.2-11c-1.8-4.2-5.4-7.3-7.5-11.4
		c-4.5-8.2-4-18-2.8-27c2.5-14.4,7.4-28.7,15.9-40.7C57.5,36.6,77.4,24.1,98.7,18.4 M101.6,62.2c-7,3.8-11.9,10.6-15.4,17.6
		c-3.8,7.2-5.3,15.2-6.1,23.2c-3.5-0.5-6.3-3.2-7.1-6.5c-1.6-4.9,0.1-10,1-14.9c0.4-1.4-0.7-2.6-1.3-3.7c-3-0.2-6,1.3-7.3,4
		c-4,7.5-3.7,17.7,1.9,24.3c3.2,4,8.2,6,13.2,6.6c1.7,5.2,5,10.3,10.3,12.3c6.5,2.6,13.6-0.1,19.3-3.5c-0.2,2.1-0.3,4.2-1,6.2
		c-2,1.6-4.4,2.5-6.6,3.8c-10.9,5.7-22,11.5-31.1,19.9c-6.7,6.3-11.9,14.6-12.9,23.8c-0.5,7.2,2.4,15.2,8.7,19.2
		c6.6,4.4,15.4,4.1,22.6,1.4c9.1-3.5,15.9-11.2,20.4-19.6c6.6-11.9,7.8-25.9,8.8-39.2c0.3-1.6-0.1-3.8,1.8-4.5
		c10.9-6.1,21.4-12.8,31.5-20.1c1.2,1.5,2.4,2.9,3.5,4.5c-5.2,3.1-10.4,6.4-14.3,11.1c-14.7,16-14.9,43.6,0.5,59.2
		c7.9,8.3,19.9,11.8,31.1,10.2c10.3-1.5,19.6-7.9,24.8-16.9c6.9-11.4,5.8-27.4-3.2-37.3c-8.4-9.3-24.8-9.1-33,0.3
		c-6.5,6.8-6.7,18.8,0.1,25.5c2.7,2.7,7.5,4.4,10.9,2c2.2-1.6,2-5,0.2-6.9c-2.3-2.8-5-6-4.4-9.9c0.7-5.1,6.4-8.2,11.1-7.1
		c4.1,0.6,7.3,3.8,8.9,7.6c3.6,8.5,1.5,19.1-4.9,25.7c-6.8,7.1-18.6,8.2-26.8,3c-7.3-4.5-11.4-12.8-12.7-21.1
		c-1.3-10,0.6-20.7,6.7-28.8c4-5.1,9.5-9.4,15.9-10.9c5.4,0.4,10.9,1.4,16.2-0.3c2.5-0.8,4.9-3.6,3.6-6.3c-1.4-2.8-4.7-3.6-7.5-4.2
		c-4.2-0.8-8.3,0.3-12.4,1.1c-2.8-1-4.3-4-5.4-6.6c7.9-5.9,15.7-12.3,21-20.7c3.1-5,5.1-11.2,3.7-17.1c-1.2-3.9-4.4-7.3-8.5-8
		c-6.8-1.7-13.8,1.7-18.5,6.6c-7.5,8.1-11.3,19.3-10.9,30.3c-0.1,2.3,0.8,4.6,0.1,6.8c-5.6,4.5-11.8,8.1-17.9,12
		c-3.5,2-6.8,4.3-10.4,6c0.1-3.5,0.2-7,1.2-10.4c2.6-3.6,6-6.8,8.1-10.8c1.5-2.8,3-6.3,1.4-9.3c-1.5-2.3-4.7-2.1-6.9-0.9
		c-4.5,2.3-7,7.1-8.9,11.6c-1.3,2.9-1.4,6.5-4.1,8.5c-3.7,3.3-8.2,6.6-13.5,6.4c-3,0-4.9-2.8-5.6-5.4c8.2-3.2,15.1-9.1,20.6-15.9
		c5.1-6.6,9.2-14.4,9.9-22.9c0.4-4.3-1.1-9.1-5-11.3C112.5,58.9,106.4,59.6,101.6,62.2L101.6,62.2z"/>
	<path class="st0" d="M106.3,70c1.9-1.4,5.1-0.8,6,1.5c0.7,2.9-0.4,5.8-1.6,8.4c-3.5,7.1-8.7,13.3-14.6,18.4c-1.5,1.3-3.2,2.4-5,3.2
		c0.2-6.3,2.4-12.4,5.1-18.1C98.7,78.4,101.6,73.2,106.3,70L106.3,70z M167.7,72.5c1.7-1.9,4.6-3.9,7.2-2.6c2.8,1.7,1.4,5.4,0.2,7.7
		c-3.9,7.2-9.7,13.2-15.9,18.4C159.1,87.5,162.2,78.9,167.7,72.5z M83.6,155c7.3-6.2,15.5-11.5,24.2-15.5
		c-0.9,9.6-3.2,19.2-6.8,28.1c-3.1,7.2-7.7,14.6-15.4,17.6c-4,1.5-9.2,2.4-12.6-0.7c-3.3-2.9-3-7.8-2.1-11.7
		C72.9,165.6,78.2,159.9,83.6,155L83.6,155z"/>
</g>
</svg>
