<?xml version="1.0" encoding="utf-8"?>
<!-- Generator: Adobe Illustrator 24.0.0, SVG Export Plug-In . SVG Version: 6.00 Build 0)  -->
<svg version="1.1"
	 id="svg2" xmlns:cc="http://creativecommons.org/ns#" xmlns:dc="http://purl.org/dc/elements/1.1/" xmlns:inkscape="http://www.inkscape.org/namespaces/inkscape" xmlns:rdf="http://www.w3.org/1999/02/22-rdf-syntax-ns#" xmlns:sodipodi="http://sodipodi.sourceforge.net/DTD/sodipodi-0.dtd" xmlns:svg="http://www.w3.org/2000/svg"
	 xmlns="http://www.w3.org/2000/svg" xmlns:xlink="http://www.w3.org/1999/xlink" x="0px" y="0px" viewBox="0 0 2930.4 2930.4"
	 style="enable-background:new 0 0 2930.4 2930.4;" xml:space="preserve">
<style type="text/css">
	.st0{fill:#002E70;}
</style>
<sodipodi:namedview  bordercolor="#666666" borderopacity="1" gridtolerance="10" guidetolerance="10" id="namedview4" inkscape:current-layer="g10" inkscape:cx="5644.6502" inkscape:cy="1850.1141" inkscape:pageopacity="0" inkscape:pageshadow="2" inkscape:window-height="837" inkscape:window-maximized="1" inkscape:window-width="1600" inkscape:window-x="-8" inkscape:window-y="-8" inkscape:zoom="0.055871212" objecttolerance="10" pagecolor="#ffffff" showgrid="false">
	</sodipodi:namedview>
<g id="g10" transform="matrix(1.3333333,0,0,-1.3333333,0,4096)" inkscape:groupmode="layer" inkscape:label="hp-logo">
	
		<g id="g14" transform="matrix(41.787813,0,0,41.787813,2634.8942,1536)" inkscape:export-filename="G:\Users\suitedoalex\sites\hp-logo-3.png" inkscape:export-xdpi="13.104083" inkscape:export-ydpi="13.104083">
		<path id="path16" inkscape:connector-curvature="0" class="st0" d="M-10.5,10.5c0,14.5-11.8,26.3-26.3,26.3c-0.4,0-0.8,0-1.2,0
			L-43.4,22h4.7c2.8,0,4.3-2.1,3.3-4.8L-42-1h-5.6l7.1,19.5h-4.2L-51.8-1h-5.6l8.4,23l0,0l5,13.8c-11.1-3.1-19.2-13.3-19.2-25.3
			c0-12.4,8.6-22.8,20.2-25.6l5,13.4l0,0l8.6,23.7h10.3c2.8,0,4.3-2.1,3.3-4.8l-5.8-16C-22,0-23.5-1-24.8-1h-7.4l-5.4-14.8
			c0.3,0,0.5,0,0.8,0C-22.2-15.8-10.5-4.1-10.5,10.5"/>
	</g>
	
		<g id="g18" transform="matrix(41.787813,0,0,41.787813,2200.9272,1872.0994)" inkscape:export-filename="G:\Users\suitedoalex\sites\hp-logo-3.png" inkscape:export-xdpi="13.104083" inkscape:export-ydpi="13.104083">
		<path id="path20" inkscape:connector-curvature="0" class="st0" d="M-10.5,10.5h-4.2l-5.9-16.1h4.2L-10.5,10.5"/>
	</g>
</g>
</svg>
