<svg version="1.1" xmlns="http://www.w3.org/2000/svg" xmlns:xlink="http://www.w3.org/1999/xlink" viewBox="0 0 302.3 353.6">
	<g fill="#002E70">
		<path d="M87.9,64.8h62.6c15.2,0,35.3,0,45.7,6.3c12.8,7.4,20.5,21.2,20.3,36c0,18.3-9.6,32.1-25.6,38.6v0.5c21.3,4.3,32.9,20.3,32.9,41.5c0,25.3-18.1,49.5-52.4,49.5H87.9L87.9,64.8z M110.8,138.9h45.9c26.1,0,36.7-9.4,36.7-27.5c0-23.9-16.9-27.3-36.7-27.3h-45.9L110.8,138.9z M110.8,217.8h57.5c19.8,0,32.4-12.1,32.4-30.9c0-22.4-18.1-28.7-37.5-28.7h-52.4L110.8,217.8z"/>
		<path d="M282.4,151c0,72.4-58.8,131.1-131.2,131.1c-72.4,0.6-131.6-57.5-132.2-129.9C18.3,79.8,76.5,20.6,148.9,20c0.8,0,1.5,0,2.3,0C223.6,20,282.4,78.6,282.4,151 M151.2,0C67.7,0,0,67.6,0,151s67.7,151,151.1,151s151.2-67.6,151.2-151S234.6,0,151.2,0"/>
		<path d="M0.3,333.8H302v19.8H0.3L0.3,333.8z"/>
	</g>
</svg>
