<?xml version="1.0" encoding="utf-8"?>
<!-- Generator: Adobe Illustrator 24.0.0, SVG Export Plug-In . SVG Version: 6.00 Build 0)  -->
<svg version="1.1" id="Layer_1" xmlns="http://www.w3.org/2000/svg" xmlns:xlink="http://www.w3.org/1999/xlink" x="0px" y="0px"
	 viewBox="0 0 158.5 61.7" style="enable-background:new 0 0 158.5 61.7;" xml:space="preserve">
<style type="text/css">
	.st0{fill:#002E70;}
</style>
<g>
	<title>mck</title>
	<path class="st0" d="M21.2,0h6.1v1.1h-1.1c-0.2,0-0.6,0.2-1.1,0.7c-0.5,0.5-0.8,0.8-0.8,1.1v17.5c0,0.2,0.3,0.6,0.8,1.1
		c0.5,0.5,0.9,0.7,1.1,0.7h1.1v1.1h-9v-1.2h1.1c0.2,0,0.5-0.2,1-0.7c0.5-0.5,0.7-0.8,0.7-1.1V3.4l-8.4,20.3L4.3,3.1v17.3
		c0,0.2,0.2,0.6,0.7,1.1c0.5,0.5,0.8,0.7,1,0.7h1.1v1.1H0v-1.1h1.1c0.2,0,0.6-0.2,1.1-0.7C2.7,21,3,20.6,3,20.4V2.9
		c0-0.2-0.2-0.6-0.7-1.1S1.4,1.1,1.1,1.1H0V0h6.7l7,17.4h0.2L21.2,0z"/>
	<path class="st0" d="M35.7,20.9c1,0.1,2-0.2,3-0.7c0.7-0.5,1.4-1.2,1.8-2h1c-0.4,1.5-1.3,2.8-2.4,3.9c-1.2,1-2.8,1.5-4.4,1.5
		c-1.9,0.1-3.8-0.8-5-2.3c-1.3-1.5-1.9-3.5-1.9-5.5c-0.1-2.2,0.6-4.3,2.1-5.8c1.3-1.4,3.1-2.2,5.1-2.2c1,0,2.1,0.2,3,0.5
		c0.9,0.4,1.7,0.9,2.4,1.5l-2.2,3.5l-0.9,0.1c0.2-1,0.1-2.1-0.2-3.1c-0.4-1-1.4-1.5-2.4-1.4c-1.3-0.1-2.6,0.5-3.3,1.6
		c-0.8,1.3-1.2,2.8-1.1,4.3c0,1.6,0.5,3.1,1.5,4.3C32.7,20.3,34.1,21,35.7,20.9z"/>
	<path class="st0" d="M50.6,23.3h-9.1v-1.1h1.2c0.2,0,0.6-0.2,1.1-0.7c0.5-0.5,0.7-0.8,0.7-1.1V2.9c0-0.2-0.2-0.6-0.7-1.1
		c-0.5-0.5-0.9-0.7-1.1-0.7h-1.2V0h9.1v1.1h-1.1c-0.2,0-0.6,0.2-1.1,0.7s-0.7,0.8-0.7,1.1v9.5L56,3.1c0.2-0.2,0-0.6-0.4-1.1
		c-0.4-0.6-0.8-0.8-1-0.8h-1.1V0h8.4v1.1h-1.1c-0.6,0.2-1.1,0.5-1.5,0.9c-0.8,0.6-1.3,1-1.5,1.2l-5.7,6.1l8.1,10.8
		c0.4,0.5,0.8,0.9,1.4,1.2c0.4,0.4,0.9,0.6,1.4,0.8h1.7c0.4-0.1,0.8-0.3,1-0.6c0.4-0.4,0.7-0.7,0.7-1V11c0-0.2-0.2-0.6-0.7-1
		c-0.3-0.3-0.6-0.5-1-0.6h-0.9V8.3h5.4v12.2c0,0.3,0.2,0.6,0.7,1c0.3,0.3,0.6,0.5,1,0.6h1.9c0.2,0,0.5-0.2,1-0.6
		c0.4-0.4,0.7-0.7,0.7-1V11c0-0.2-0.2-0.6-0.7-1s-0.8-0.6-1-0.6h-1V8.3h4.8l0.6,3.1c0.8-0.9,1.7-1.7,2.6-2.4c0.9-0.7,2.1-1.1,3.3-1
		c1.1,0,2.2,0.4,3,1.2c0.8,0.8,1.3,2,1.2,3.1v8.3c0,0.3,0.2,0.6,0.7,1c0.4,0.4,0.8,0.6,1,0.6h1v1.1H82v-1.1h0.8
		c0.4-0.1,0.8-0.3,1-0.6c0.4-0.4,0.7-0.7,0.7-1v-8.1c0-0.7-0.2-1.3-0.6-1.9c-0.5-0.5-1.1-0.8-1.8-0.7c-1.2,0-2.3,0.4-3.3,1.2
		c-1.1,0.8-1.7,1.4-1.7,2v7.5c0,0.3,0.2,0.6,0.7,1c0.3,0.3,0.6,0.5,1,0.6h0.8v1.1H58.1L50,11.6l-2.4,2.5v6.2c0,0.2,0.2,0.6,0.7,1.1
		c0.5,0.5,0.8,0.7,1.1,0.7h1.1L50.6,23.3z"/>
	<path class="st0" d="M22,53.2c-0.9-0.6-1.7-1.2-2.5-1.9c-0.8-0.6-1.5-1.2-2.3-1.9c0.7-0.9,1.2-1.9,1.5-3c0.4-1.1,0.6-2.2,0.6-3.4
		V43c0.1-0.6,0.4-1.1,0.9-1.5c0.6-0.7,1-1,1.2-1h0.9v-1.1H14v1.2c1-0.1,1.9,0.3,2.7,0.9c0.7,0.7,1,1.6,1,2.5c0,0.9-0.1,1.7-0.3,2.6
		c-0.2,0.8-0.5,1.5-0.9,2.2c-1.6-1.4-3.2-2.9-4.9-4.6c-1.7-1.6-3.3-3.2-4.8-4.9c-0.9-0.4-1.8-0.9-2.4-1.7c-0.6-0.7-0.9-1.6-0.9-2.5
		c0-0.9,0.4-1.8,1.1-2.4c0.9-0.6,1.9-0.9,3-0.9c1.5,0,2.9,0.6,3.8,1.7c0.8,0.8,1.4,1.8,1.5,3h1v-5.5h-1c-0.1,0.2-0.2,0.3-0.4,0.4
		c-0.2,0-0.4,0.1-0.7,0.1c-0.6,0-1.2-0.1-1.7-0.4c-0.8-0.3-1.7-0.4-2.5-0.4c-1.5-0.1-3,0.4-4.1,1.4c-1,1-1.6,2.4-1.5,3.8
		c0,0.9,0.2,1.8,0.5,2.6c0.4,0.8,0.8,1.5,1.4,2.2c-1.1,0.8-2.1,1.8-2.7,3c-0.7,1.2-1,2.6-1,4c-0.1,1.9,0.8,3.8,2.3,5
		c1.4,1.2,3.3,1.9,5.1,1.9c1.5,0,3-0.2,4.4-0.7c1.2-0.5,2.3-1.2,3.2-2.1c0.8,0.8,1.7,1.4,2.8,1.9c1,0.4,2,0.6,3,0.5h2.5v-1.2H22z
		 M12.1,52.6c-0.9,0.3-1.9,0.4-2.8,0.4v0c-1.8,0-3.4-0.8-4.7-2c-1.4-1.1-2.2-2.7-2.2-4.5c0-1,0.1-2,0.5-2.9c0.3-0.8,0.8-1.5,1.4-2.1
		c1.6,1.8,3.2,3.5,4.8,5.1c1.7,1.6,3.3,3.2,5.1,4.7l0.2,0.1C13.7,51.9,12.9,52.3,12.1,52.6z"/>
	<path class="st0" d="M67.5,4.6L67.5,4.6c-0.6,0-1.1-0.2-1.4-0.5c-0.4-0.3-0.6-0.8-0.6-1.3V2.7c0-0.5,0.2-1.1,0.6-1.4
		c0.8-0.7,2-0.7,2.8,0c0.4,0.4,0.6,0.9,0.6,1.4h-0.1c0,0,0.1,0,0.1,0.1c0,0.5-0.2,1-0.6,1.3c-0.3,0.3-0.8,0.5-1.3,0.5
		C67.6,4.6,67.5,4.6,67.5,4.6z"/>
	<path class="st0" d="M41.3,52.9c1.7,0.1,3.3-0.3,4.7-1.2c1.2-0.9,2.2-2.1,2.8-3.5h1.2c-0.7,2-1.9,3.7-3.6,4.9
		c-1.7,1.2-3.8,1.8-5.8,1.8c-3.1,0.1-6.1-1.2-8-3.6c-2-2.4-3.1-5.5-3-8.6c-0.1-3,0.9-6,2.8-8.4c1.8-2.3,4.7-3.6,7.7-3.5
		c1.1,0,2.2,0.1,3.2,0.5c0.9,0.3,1.8,0.5,2.7,0.5c0.3,0,0.6,0,0.8-0.2c0.2-0.1,0.4-0.3,0.6-0.4h0.8v8.2h-1c-0.2-1.7-0.8-3.2-1.9-4.5
		c-1.1-1.7-3.1-2.8-5.2-2.7c-1.8-0.1-3.5,0.6-4.8,1.8c-1.3,1.6-2.1,3.6-2.1,5.7v-0.1c0,0.4-0.1,0.9-0.1,1.3c0,0.4,0,0.9,0,1.4
		c0,0.6,0,1.1,0.1,1.7c0.1,0.6,0.1,1.1,0.1,1.6c0.2,2,1,3.8,2.4,5.2C37.2,52.2,39.2,53,41.3,52.9z"/>
	<path class="st0" d="M101.8,19c0.1,1.3-0.4,2.5-1.4,3.4c-1,0.8-2.2,1.3-3.5,1.2c-0.8,0-1.7-0.1-2.4-0.5c-0.6-0.3-1.3-0.4-1.9-0.5
		c-0.2,0-0.5,0-0.7,0.1l-0.5,0.4h-0.7V18h0.9c0.2,1,0.7,2,1.4,2.7c1,1.1,2.4,1.8,3.9,1.7c0.8,0,1.5-0.1,2.2-0.5
		c0.5-0.3,0.8-0.9,0.8-1.5c0.1-0.7-0.3-1.4-0.9-1.8c-0.6-0.4-1.2-0.7-1.9-1c-0.6-0.2-1.1-0.5-1.5-0.7c-0.5-0.2-1-0.4-1.6-0.7
		c-0.9-0.4-1.6-0.9-2.3-1.6c-0.6-0.7-1-1.6-0.9-2.5C90.8,10.9,91.2,9.8,92,9c1.6-1.1,3.6-1.4,5.4-0.7c0.5,0.3,1.1,0.4,1.7,0.4
		c0.2,0,0.4,0,0.5-0.1c0.1-0.1,0.3-0.2,0.3-0.3h0.8v4.6h-0.9c-0.1-0.9-0.6-1.8-1.2-2.4c-0.8-1-2.1-1.6-3.3-1.5
		c-0.7-0.1-1.4,0.1-2,0.5c-0.4,0.3-0.6,0.8-0.6,1.4c0,0.6,0.2,1.1,0.7,1.4c0.6,0.4,1.2,0.7,1.8,1c0.6,0.2,1.1,0.5,1.6,0.7l1.7,0.7
		c0.9,0.4,1.7,0.9,2.4,1.5C101.5,17,101.9,18,101.8,19L101.8,19z"/>
	<path class="st0" d="M64.3,41.1L64.3,41.1C62.9,39.7,61,39,59.1,39c-0.2,0-0.3,0-0.5,0c-4.1,0.2-7.3,3.8-7,7.9
		c-0.1,2.2,0.7,4.3,2.3,5.8c1.4,1.4,3.3,2.2,5.3,2.1c2,0,3.8-0.8,5.2-2.1c1.6-1.5,2.4-3.6,2.3-5.8C66.7,44.7,65.8,42.6,64.3,41.1z
		 M63.7,48.2c0,0.4,0,0.9-0.1,1.3v-0.1c-0.1,1.1-0.6,2-1.3,2.8c-0.9,0.8-2,1.2-3.2,1.1C58,53.4,56.8,53,56,52.2
		c-0.7-0.8-1.2-1.8-1.3-2.9c-0.1-0.4-0.1-0.8-0.1-1.2c0-0.4,0-0.9,0-1.3s0-0.9,0-1.3c0-0.4,0.1-0.8,0.1-1.3v0.1
		c0.1-1.1,0.6-2.1,1.3-2.9c0.8-0.8,2-1.2,3.1-1.1c1.2-0.1,2.3,0.3,3.2,1.1c0.7,0.8,1.2,1.9,1.3,3c0,0.4,0.1,0.8,0.1,1.2
		c0,0.4,0,0.8,0,1.3C63.7,47.3,63.7,47.7,63.7,48.2z"/>
	<path class="st0" d="M115.7,18.3c-0.4,0.8-1,1.4-1.8,1.9c-0.9,0.5-1.9,0.7-3,0.7c-1.6,0.1-3-0.6-4-1.9c-0.9-1.1-1.4-2.5-1.4-4
		l10-0.8l-0.1-1.1c-0.1-1.4-0.6-2.7-1.5-3.7c-1-1.1-2.5-1.6-3.9-1.5c-1.9-0.1-3.7,0.8-4.9,2.2c-1.3,1.6-2.1,3.6-2,5.7
		c0,2,0.7,4,2,5.5c1.2,1.5,3,2.4,5,2.3v0c1.6,0.1,3.1-0.4,4.3-1.4c1.1-1.1,1.9-2.4,2.3-3.9H115.7z M105.4,14
		c0.1-1.2,0.4-2.4,1.1-3.3c0.8-1.1,2.1-1.7,3.4-1.6v0c1.5,0,2.4,0.5,2.7,1.3c0.3,1,0.5,2,0.3,3L105.4,14z"/>
	<path class="st0" d="M86.7,53.3c0.2,0,0.6-0.2,1-0.6c0.4-0.4,0.6-0.8,0.6-1v-8.2c0-0.6-0.2-1.3-0.6-1.8c-0.5-0.5-1.2-0.8-1.8-0.7
		c-1.1,0-2.1,0.4-2.9,1.1c-1,0.7-1.5,1.3-1.5,1.8v7.8c0,0.2,0.2,0.6,0.6,1c0.4,0.4,0.7,0.6,0.9,0.6h0.9v1.1h-7.7v-1.1h0.8
		c0.2,0,0.6-0.2,1-0.6c0.4-0.4,0.6-0.8,0.6-1v-8.2c0-0.7-0.2-1.3-0.6-1.8c-0.5-0.5-1.1-0.7-1.8-0.7c-1.1,0-2.1,0.4-3,1.1
		c-1,0.8-1.5,1.4-1.5,1.9v7.7c0,0.2,0.2,0.6,0.6,1c0.4,0.4,0.8,0.6,1,0.6h0.8v1.1h-7.7v-1.1h0.9c0.2,0,0.5-0.2,0.9-0.6
		c0.4-0.4,0.6-0.8,0.6-1v-9.6c0-0.2-0.2-0.6-0.6-1c-0.4-0.4-0.7-0.6-0.9-0.6h-0.9v-1.1h4.6l0.6,2.9c0.9-0.9,1.7-1.7,2.4-2.3
		c0.9-0.7,2-1,3.1-0.9c0.9,0,1.9,0.3,2.6,0.8c0.8,0.6,1.3,1.4,1.4,2.4c0.9-0.9,1.8-1.6,2.5-2.2c0.9-0.6,1.9-1,3-0.9
		c1.1,0,2.2,0.4,3,1.1c0.8,0.8,1.3,2,1.2,3.2v8.2c0,0.2,0.2,0.6,0.6,1c0.4,0.4,0.7,0.6,0.9,0.6h0.9v1.1h-7.7v-1.1L86.7,53.3z"/>
	<path class="st0" d="M118.1,11.1c-0.3-0.4-0.6-0.7-0.9-1c-0.5-0.4-0.9-0.7-1-0.7h-0.7V8.3h8.1v1.1h-1c-0.2,0-0.5,0.2-0.8,0.6
		c-0.3,0.3-0.4,0.6-0.5,1l3.6,7.4l3.3-7.4c0-0.4-0.2-0.8-0.5-1.1c-0.3-0.4-0.6-0.6-0.8-0.6h-1V8.3h6.1v1.1h-0.7
		c-0.2,0-0.5,0.2-0.9,0.6c-0.3,0.3-0.6,0.7-0.8,1.1L124.6,22l-4.4,8.5l-1.3-0.7l4.6-8.3L118.1,11.1z"/>
	<path class="st0" d="M108.2,41.1c-1-1.4-2.6-2.2-4.3-2.1v0c-1.1,0-2.2,0.3-3.2,0.8c-1,0.7-1.8,1.6-2.3,2.7l-0.5-3.1H93v1.2h1
		c0.4,0.1,0.7,0.3,1,0.6c0.4,0.4,0.6,0.7,0.6,1v16.8c-0.1,0.4-0.3,0.8-0.6,1c-0.3,0.3-0.6,0.5-1,0.6h-1v1.1h7.9v-1.1h-1
		c-0.2,0-0.5-0.2-1-0.6c-0.4-0.4-0.7-0.7-0.7-1v-7.2c0.5,0.9,1.2,1.7,2,2.3c1,0.5,2.1,0.8,3.2,0.8c1.8,0,3.4-0.8,4.5-2.3
		c1.2-1.7,1.8-3.7,1.7-5.8C109.9,44.7,109.3,42.8,108.2,41.1z M107,48l-0.1,1.2v-0.1v0c-0.1,1.1-0.5,2.1-1.2,2.9
		c-0.7,0.8-1.8,1.2-2.9,1.1h-0.1c-1.2,0-2.3-0.4-3.1-1.3c-0.8-0.8-1.3-1.9-1.3-3V45c0.3-1.1,0.9-2.1,1.7-2.9c0.8-0.8,1.9-1.2,3-1.2
		c1,0,1.9,0.3,2.6,1c0.7,0.8,1.1,1.8,1.2,2.9c0,0.3,0.1,0.7,0.1,1c0,0.3,0.1,0.7,0.1,1.1C107.1,47.2,107.1,47.6,107,48z"/>
	<path class="st0" d="M142.6,53.3c-0.2,0-0.5-0.2-1-0.6c-0.4-0.4-0.7-0.8-0.7-1l0-8.3c0-1.2-0.4-2.3-1.2-3.1c-0.8-0.8-1.9-1.2-3-1.2
		c-1.2-0.1-2.4,0.3-3.3,1c-0.9,0.7-1.8,1.6-2.6,2.4l-0.6-3.1h-4.8v1.2h0.9c0.4,0.1,0.8,0.3,1,0.6c0.4,0.4,0.7,0.7,0.7,1v9.5
		c0,0.2-0.2,0.6-0.7,1c-0.3,0.3-0.6,0.5-1,0.6h-1.8c-0.2,0-0.5-0.2-1-0.6c-0.4-0.4-0.7-0.7-0.7-1v-8.1c0.1-1.4-0.6-2.6-1.7-3.4
		c-1.2-0.8-2.7-1.2-4.2-1.2c-2.3-0.1-4.6,0.8-6.3,2.4l2.1,3h1.1c-0.6-1-0.6-2.1-0.2-3.1c0.6-0.9,1.6-1.3,2.6-1.2
		c1.1-0.1,2.1,0.2,2.9,0.9c0.6,0.7,0.9,1.6,0.8,2.5l-0.1,1.8l-3.9,0.8c-1.1,0.3-2.2,0.7-3.2,1.3c-1.1,0.7-1.8,1.9-1.7,3.2
		c0,1.1,0.4,2.2,1.1,3c0.7,0.7,1.7,1.2,2.7,1.1c1.1,0,2.1-0.4,2.9-1.1c0.8-0.7,1.5-1.5,2.1-2.3l0.4,3.1h12.8v-1.1h-0.9
		c-0.4-0.1-0.8-0.3-1-0.6c-0.4-0.4-0.7-0.7-0.7-1v-7.6c0-0.5,0.5-1.1,1.7-1.9c0.9-0.7,2.1-1.2,3.3-1.2c0.7-0.1,1.3,0.2,1.8,0.8
		c0.4,0.5,0.6,1.2,0.6,1.8v8.2c0,0.2-0.2,0.6-0.7,1c-0.5,0.4-0.8,0.6-1,0.6h-0.9v1.1h7.9v-1.1H142.6z M120.1,50
		c-0.4,0.7-0.9,1.3-1.5,1.7c-0.6,0.5-1.4,0.9-2.2,0.9h-0.1c-0.6,0-1.2-0.2-1.6-0.7c-0.4-0.4-0.7-1-0.7-1.7v-0.1
		c0-0.7,0.2-1.3,0.5-1.8c0.5-0.6,1.2-1,2-1.1l3.6-0.9L120.1,50z"/>
	<path class="st0" d="M158.5,39.4v1.1h-0.7c-0.2,0-0.5,0.2-0.9,0.6c-0.3,0.3-0.6,0.6-0.9,1l-5.1,11l-4.5,8.4l-1.3-0.7l4.5-8.3
		l-5.3-10.4c-0.3-0.4-0.6-0.7-0.9-1c-0.5-0.4-0.8-0.7-1-0.7h-0.7v-1.1h8.1v1.1H149c-0.2,0-0.5,0.2-0.8,0.6c-0.3,0.3-0.5,0.6-0.5,1
		l3.6,7.4l3.3-7.4c0-0.4-0.2-0.8-0.5-1c-0.3-0.4-0.6-0.6-0.8-0.6h-1v-1.1H158.5z"/>
</g>
</svg>
