<?xml version="1.0" encoding="utf-8"?>
<!-- Generator: Adobe Illustrator 24.0.0, SVG Export Plug-In . SVG Version: 6.00 Build 0)  -->
<svg version="1.1" id="Layer_1" xmlns="http://www.w3.org/2000/svg" xmlns:xlink="http://www.w3.org/1999/xlink" x="0px" y="0px"
	 viewBox="0 0 1063.1 241.9" style="enable-background:new 0 0 1063.1 241.9;" xml:space="preserve">
<g>
	<g>
		<path style="fill:#002E70;" d="M47.2,225.6c0-74.7,0-149,0-223.7c-15.7,0-31.1,0-46.5,0c-1.2,6.5-0.8,220.3,0.4,223.7
			C16.4,225.6,31.6,225.6,47.2,225.6z M154.9,225.5c15.8,0,31.2,0,46.7,0c0-74.7,0-148.9,0-223.5c-15.7,0-31.1,0-46.7,0
			C154.9,76.5,154.9,150.8,154.9,225.5z M309.2,225.5c16,0,31.4,0,46.9,0c0-51.1,0-101.8,0-152.8c-15.8,0-31.2,0-46.9,0
			C309.2,123.7,309.2,174.5,309.2,225.5z M124.2,154.6c0-51.1,0-101.8,0-152.4C117.1,1,81.2,1.4,78,2.6c0,50.6,0,101.1,0,152
			C93.5,154.6,108.6,154.6,124.2,154.6z M278,223.5c0-49.9,0-99.4,0-148.9c-5.4-1.2-40.8-1-44.4,0.2c-1.1,6.4-0.7,145.1,0.4,148.7
			C248.6,223.5,263.1,223.5,278,223.5z M309.2,1.9c0,15.1,0,29.5,0,44.3c41.4,0,82.6,0,123.9,0c0-14.9,0-29.5,0-44.3
			C391.7,1.9,350.7,1.9,309.2,1.9z M231.8,1.9c0,15,0,29.4,0,44.2c15.8,0,31.3,0,46.9,0c0-14.9,0-29.4,0-44.2
			C263,1.9,247.6,1.9,231.8,1.9z"/>
		<path style="fill:#002E70;" d="M47.2,225.6c-15.6,0-30.8,0-46.1,0C-0.1,222.2-0.5,8.4,0.8,1.9c15.3,0,30.7,0,46.5,0
			C47.2,76.5,47.2,150.9,47.2,225.6z"/>
		<path style="fill:#002E70;" d="M154.9,225.5c0-74.7,0-148.9,0-223.5c15.7,0,31,0,46.7,0c0,74.6,0,148.8,0,223.5
			C186.1,225.5,170.8,225.5,154.9,225.5z"/>
		<path style="fill:#002E70;" d="M309.2,225.5c0-51,0-101.8,0-152.8c15.7,0,31.1,0,46.9,0c0,51,0,101.7,0,152.8
			C340.6,225.5,325.2,225.5,309.2,225.5z"/>
		<path style="fill:#002E70;" d="M124.2,154.6c-15.7,0-30.8,0-46.3,0c0-50.9,0-101.4,0-152c3.2-1.2,39.2-1.6,46.3-0.4
			C124.2,52.8,124.2,103.5,124.2,154.6z"/>
		<g>
			<path style="fill:#002E70;" d="M278,223.5c-14.9,0-29.4,0-44,0c-1.2-3.6-1.6-142.3-0.4-148.7c3.6-1.1,39-1.4,44.4-0.2
				C278,124.1,278,173.7,278,223.5z"/>
		</g>
		<path style="fill:#002E70;" d="M309.2,1.9c41.5,0,82.6,0,123.9,0c0,14.8,0,29.4,0,44.3c-41.4,0-82.5,0-123.9,0
			C309.2,31.4,309.2,16.9,309.2,1.9z"/>
		<path style="fill:#002E70;" d="M231.8,1.9c15.8,0,31.2,0,46.9,0c0,14.8,0,29.4,0,44.2c-15.7,0-31.2,0-46.9,0
			C231.8,31.3,231.8,16.9,231.8,1.9z"/>
		<path style="fill:#002E70;" d="M531.1,54V0h16.3l9.8,36.8L566.9,0h16.4v54h-10.1V11.5L562.4,54h-10.5l-10.7-42.5V54H531.1z"/>
		<path style="fill:#002E70;" d="M601.8,26.8l-9.4-1.7c1.1-3.8,2.9-6.6,5.5-8.4c2.6-1.8,6.4-2.7,11.5-2.7c4.6,0,8.1,0.5,10.3,1.6
			s3.9,2.5,4.8,4.2c0.9,1.7,1.4,4.8,1.4,9.3l-0.1,12.1c0,3.4,0.2,6,0.5,7.6c0.3,1.6,1,3.4,1.9,5.3h-10.2c-0.3-0.7-0.6-1.7-1-3.1
			c-0.2-0.6-0.3-1-0.4-1.2c-1.8,1.7-3.7,3-5.7,3.9c-2,0.9-4.2,1.3-6.4,1.3c-4,0-7.2-1.1-9.5-3.3c-2.3-2.2-3.5-4.9-3.5-8.3
			c0-2.2,0.5-4.2,1.6-5.9s2.5-3.1,4.4-4s4.6-1.7,8.2-2.4c4.8-0.9,8.2-1.8,10.1-2.5v-1c0-2-0.5-3.4-1.5-4.3c-1-0.8-2.8-1.3-5.6-1.3
			c-1.8,0-3.3,0.4-4.3,1.1C603.2,23.7,602.4,25,601.8,26.8z M615.6,35.2c-1.3,0.4-3.4,1-6.3,1.6c-2.9,0.6-4.8,1.2-5.6,1.8
			c-1.4,1-2,2.2-2,3.6c0,1.4,0.5,2.7,1.6,3.8c1.1,1.1,2.5,1.6,4.1,1.6c1.9,0,3.6-0.6,5.3-1.8c1.3-0.9,2.1-2.1,2.5-3.4
			c0.3-0.9,0.4-2.6,0.4-5V35.2z"/>
		<path style="fill:#002E70;" d="M632.3,42.8l10.4-1.6c0.4,2,1.3,3.5,2.7,4.6c1.4,1,3.2,1.6,5.7,1.6c2.7,0,4.7-0.5,6-1.5
			c0.9-0.7,1.4-1.6,1.4-2.8c0-0.8-0.2-1.4-0.7-2c-0.5-0.5-1.7-0.9-3.5-1.4c-8.4-1.8-13.6-3.5-15.9-5c-3.1-2.1-4.6-5-4.6-8.8
			c0-3.4,1.3-6.2,4-8.5c2.7-2.3,6.8-3.5,12.5-3.5c5.4,0,9.3,0.9,11.9,2.6c2.6,1.7,4.4,4.3,5.4,7.7l-9.8,1.8
			c-0.4-1.5-1.2-2.7-2.4-3.5c-1.2-0.8-2.8-1.2-5-1.2c-2.7,0-4.7,0.4-5.9,1.1c-0.8,0.5-1.2,1.2-1.2,2.1c0,0.7,0.3,1.4,1,1.9
			c0.9,0.7,4.2,1.7,9.7,2.9c5.5,1.3,9.4,2.8,11.5,4.6c2.2,1.8,3.2,4.4,3.2,7.7c0,3.6-1.5,6.7-4.5,9.2c-3,2.6-7.4,3.9-13.3,3.9
			c-5.3,0-9.5-1.1-12.7-3.2C635.3,49.5,633.3,46.6,632.3,42.8z"/>
		<path style="fill:#002E70;" d="M674.3,42.8l10.4-1.6c0.4,2,1.3,3.5,2.7,4.6c1.4,1,3.2,1.6,5.7,1.6c2.7,0,4.7-0.5,6-1.5
			c0.9-0.7,1.4-1.6,1.4-2.8c0-0.8-0.2-1.4-0.7-2c-0.5-0.5-1.7-0.9-3.5-1.4c-8.4-1.8-13.6-3.5-15.9-5c-3.1-2.1-4.6-5-4.6-8.8
			c0-3.4,1.3-6.2,4-8.5c2.7-2.3,6.8-3.5,12.5-3.5c5.4,0,9.3,0.9,11.9,2.6c2.6,1.7,4.4,4.3,5.4,7.7l-9.8,1.8
			c-0.4-1.5-1.2-2.7-2.4-3.5c-1.2-0.8-2.8-1.2-5-1.2c-2.7,0-4.7,0.4-5.9,1.1c-0.8,0.5-1.2,1.2-1.2,2.1c0,0.7,0.3,1.4,1,1.9
			c0.9,0.7,4.2,1.7,9.7,2.9c5.5,1.3,9.4,2.8,11.5,4.6c2.2,1.8,3.2,4.4,3.2,7.7c0,3.6-1.5,6.7-4.5,9.2c-3,2.6-7.4,3.9-13.3,3.9
			c-5.3,0-9.5-1.1-12.7-3.2C677.3,49.5,675.3,46.6,674.3,42.8z"/>
		<path style="fill:#002E70;" d="M727.7,26.8l-9.4-1.7c1.1-3.8,2.9-6.6,5.5-8.4c2.6-1.8,6.4-2.7,11.5-2.7c4.6,0,8.1,0.5,10.3,1.6
			s3.9,2.5,4.8,4.2c0.9,1.7,1.4,4.8,1.4,9.3l-0.1,12.1c0,3.4,0.2,6,0.5,7.6c0.3,1.6,1,3.4,1.9,5.3h-10.2c-0.3-0.7-0.6-1.7-1-3.1
			c-0.2-0.6-0.3-1-0.4-1.2c-1.8,1.7-3.7,3-5.7,3.9c-2,0.9-4.2,1.3-6.4,1.3c-4,0-7.2-1.1-9.5-3.3c-2.3-2.2-3.5-4.9-3.5-8.3
			c0-2.2,0.5-4.2,1.6-5.9s2.5-3.1,4.4-4s4.6-1.7,8.2-2.4c4.8-0.9,8.2-1.8,10.1-2.5v-1c0-2-0.5-3.4-1.5-4.3c-1-0.8-2.8-1.3-5.6-1.3
			c-1.8,0-3.3,0.4-4.3,1.1C729.1,23.7,728.3,25,727.7,26.8z M741.5,35.2c-1.3,0.4-3.4,1-6.3,1.6c-2.9,0.6-4.8,1.2-5.6,1.8
			c-1.4,1-2,2.2-2,3.6c0,1.4,0.5,2.7,1.6,3.8c1.1,1.1,2.5,1.6,4.1,1.6c1.9,0,3.6-0.6,5.3-1.8c1.3-0.9,2.1-2.1,2.5-3.4
			c0.3-0.9,0.4-2.6,0.4-5V35.2z"/>
		<path style="fill:#002E70;" d="M796,26.5l-10.2,1.8c-0.3-2-1.1-3.6-2.3-4.6c-1.2-1-2.8-1.5-4.7-1.5c-2.6,0-4.6,0.9-6.2,2.7
			c-1.5,1.8-2.3,4.8-2.3,8.9c0,4.6,0.8,7.9,2.3,9.8c1.6,1.9,3.7,2.9,6.3,2.9c2,0,3.6-0.6,4.8-1.7c1.3-1.1,2.1-3,2.7-5.8l10.2,1.7
			c-1.1,4.7-3.1,8.2-6.1,10.6c-3,2.4-7,3.6-12,3.6c-5.7,0-10.3-1.8-13.7-5.4c-3.4-3.6-5.1-8.6-5.1-15c0-6.5,1.7-11.5,5.1-15.1
			c3.4-3.6,8-5.4,13.9-5.4c4.8,0,8.6,1,11.4,3.1C792.7,19.1,794.8,22.3,796,26.5z"/>
		<path style="fill:#002E70;" d="M814.2,0v19.9c3.3-3.9,7.3-5.9,12-5.9c2.4,0,4.5,0.4,6.4,1.3s3.4,2,4.3,3.4c1,1.4,1.6,2.9,2,4.6
			c0.4,1.7,0.5,4.3,0.5,7.8v23h-10.4V33.3c0-4.1-0.2-6.7-0.6-7.8s-1.1-2-2.1-2.6c-1-0.7-2.2-1-3.7-1c-1.7,0-3.3,0.4-4.6,1.3
			c-1.4,0.8-2.3,2.1-3,3.8c-0.6,1.7-0.9,4.2-0.9,7.5V54h-10.4V0H814.2z"/>
		<path style="fill:#002E70;" d="M875.7,54v-5.9c-1.4,2.1-3.3,3.7-5.6,4.9s-4.8,1.8-7.4,1.8c-2.6,0-5-0.6-7.1-1.7
			c-2.1-1.2-3.6-2.8-4.5-4.9c-0.9-2.1-1.4-5-1.4-8.7V14.9h10.4v18c0,5.5,0.2,8.9,0.6,10.1c0.4,1.2,1.1,2.2,2.1,2.9
			c1,0.7,2.3,1.1,3.8,1.1c1.8,0,3.4-0.5,4.8-1.5c1.4-1,2.4-2.2,2.9-3.6c0.5-1.4,0.8-5,0.8-10.6V14.9h10.4V54H875.7z"/>
		<path style="fill:#002E70;" d="M892.4,42.8l10.4-1.6c0.4,2,1.3,3.5,2.7,4.6c1.4,1,3.2,1.6,5.7,1.6c2.7,0,4.7-0.5,6-1.5
			c0.9-0.7,1.4-1.6,1.4-2.8c0-0.8-0.2-1.4-0.7-2c-0.5-0.5-1.7-0.9-3.5-1.4c-8.4-1.8-13.6-3.5-15.9-5c-3.1-2.1-4.6-5-4.6-8.8
			c0-3.4,1.3-6.2,4-8.5c2.7-2.3,6.8-3.5,12.5-3.5c5.4,0,9.3,0.9,11.9,2.6c2.6,1.7,4.4,4.3,5.4,7.7l-9.8,1.8
			c-0.4-1.5-1.2-2.7-2.4-3.5c-1.2-0.8-2.8-1.2-5-1.2c-2.7,0-4.7,0.4-5.9,1.1c-0.8,0.5-1.2,1.2-1.2,2.1c0,0.7,0.3,1.4,1,1.9
			c0.9,0.7,4.2,1.7,9.7,2.9c5.5,1.3,9.4,2.8,11.5,4.6c2.2,1.8,3.2,4.4,3.2,7.7c0,3.6-1.5,6.7-4.5,9.2c-3,2.6-7.4,3.9-13.3,3.9
			c-5.3,0-9.5-1.1-12.7-3.2C895.4,49.5,893.3,46.6,892.4,42.8z"/>
		<path style="fill:#002E70;" d="M960.6,41.6l10.3,1.7c-1.3,3.8-3.4,6.7-6.3,8.6c-2.9,2-6.4,3-10.7,3c-6.8,0-11.8-2.2-15.1-6.7
			c-2.6-3.6-3.9-8.1-3.9-13.5c0-6.5,1.7-11.6,5.1-15.2c3.4-3.7,7.7-5.5,12.9-5.5c5.8,0,10.4,1.9,13.8,5.8c3.4,3.8,5,9.7,4.8,17.7
			h-25.9c0.1,3.1,0.9,5.5,2.5,7.2c1.6,1.7,3.6,2.6,6,2.6c1.6,0,3-0.4,4.1-1.3C959.2,44.9,960.1,43.5,960.6,41.6z M961.2,31.1
			c-0.1-3-0.8-5.3-2.3-6.8c-1.5-1.6-3.3-2.3-5.4-2.3c-2.3,0-4.1,0.8-5.6,2.5c-1.5,1.6-2.2,3.9-2.2,6.7H961.2z"/>
		<path style="fill:#002E70;" d="M997.9,14.9v8.3h-7.1v15.8c0,3.2,0.1,5.1,0.2,5.6c0.1,0.5,0.4,1,0.9,1.3c0.5,0.3,1.1,0.5,1.8,0.5
			c1,0,2.3-0.3,4.2-1l0.9,8c-2.4,1-5.1,1.5-8.2,1.5c-1.9,0-3.5-0.3-5-0.9c-1.5-0.6-2.6-1.4-3.3-2.4s-1.2-2.3-1.5-4
			c-0.2-1.2-0.3-3.6-0.3-7.3V23.1h-4.8v-8.3h4.8V7.1l10.4-6v13.8H997.9z"/>
		<path style="fill:#002E70;" d="M1023,14.9v8.3h-7.1v15.8c0,3.2,0.1,5.1,0.2,5.6c0.1,0.5,0.4,1,0.9,1.3c0.5,0.3,1.1,0.5,1.8,0.5
			c1,0,2.3-0.3,4.2-1l0.9,8c-2.4,1-5.1,1.5-8.2,1.5c-1.9,0-3.5-0.3-5-0.9c-1.5-0.6-2.6-1.4-3.3-2.4s-1.2-2.3-1.5-4
			c-0.2-1.2-0.3-3.6-0.3-7.3V23.1h-4.8v-8.3h4.8V7.1l10.4-6v13.8H1023z"/>
		<path style="fill:#002E70;" d="M1026.6,42.8l10.4-1.6c0.4,2,1.3,3.5,2.7,4.6c1.4,1,3.2,1.6,5.7,1.6c2.7,0,4.7-0.5,6-1.5
			c0.9-0.7,1.4-1.6,1.4-2.8c0-0.8-0.2-1.4-0.7-2c-0.5-0.5-1.7-0.9-3.5-1.4c-8.4-1.8-13.6-3.5-15.9-5c-3.1-2.1-4.6-5-4.6-8.8
			c0-3.4,1.3-6.2,4-8.5c2.7-2.3,6.8-3.5,12.5-3.5c5.4,0,9.3,0.9,11.9,2.6c2.6,1.7,4.4,4.3,5.4,7.7l-9.8,1.8
			c-0.4-1.5-1.2-2.7-2.4-3.5c-1.2-0.8-2.8-1.2-5-1.2c-2.7,0-4.7,0.4-5.9,1.1c-0.8,0.5-1.2,1.2-1.2,2.1c0,0.7,0.3,1.4,1,1.9
			c0.9,0.7,4.2,1.7,9.7,2.9c5.5,1.3,9.4,2.8,11.5,4.6c2.2,1.8,3.2,4.4,3.2,7.7c0,3.6-1.5,6.7-4.5,9.2c-3,2.6-7.4,3.9-13.3,3.9
			c-5.3,0-9.5-1.1-12.7-3.2C1029.5,49.5,1027.5,46.6,1026.6,42.8z"/>
		<path style="fill:#002E70;" d="M530.9,140V86h10.9v54H530.9z"/>
		<path style="fill:#002E70;" d="M587.7,140h-10.4v-20c0-4.2-0.2-7-0.7-8.2c-0.4-1.2-1.2-2.2-2.2-2.9c-1-0.7-2.2-1-3.6-1
			c-1.8,0-3.4,0.5-4.8,1.5s-2.4,2.3-2.9,3.9c-0.5,1.6-0.8,4.6-0.8,9V140h-10.4v-39.1h9.6v5.7c3.4-4.4,7.7-6.6,12.9-6.6
			c2.3,0,4.4,0.4,6.3,1.2s3.3,1.9,4.3,3.1c1,1.3,1.6,2.7,2,4.3s0.6,3.9,0.6,7V140z"/>
		<path style="fill:#002E70;" d="M594.6,128.8l10.4-1.6c0.4,2,1.3,3.5,2.7,4.6c1.4,1,3.2,1.6,5.7,1.6c2.7,0,4.7-0.5,6-1.5
			c0.9-0.7,1.4-1.6,1.4-2.8c0-0.8-0.2-1.4-0.7-2c-0.5-0.5-1.7-0.9-3.5-1.4c-8.4-1.8-13.6-3.5-15.9-5c-3.1-2.1-4.6-5-4.6-8.8
			c0-3.4,1.3-6.2,4-8.5c2.7-2.3,6.8-3.5,12.5-3.5c5.4,0,9.3,0.9,11.9,2.6c2.6,1.7,4.4,4.3,5.4,7.7l-9.8,1.8
			c-0.4-1.5-1.2-2.7-2.4-3.5c-1.2-0.8-2.8-1.2-5-1.2c-2.7,0-4.7,0.4-5.9,1.1c-0.8,0.5-1.2,1.2-1.2,2.1c0,0.7,0.3,1.4,1,1.9
			c0.9,0.7,4.2,1.7,9.7,2.9c5.5,1.3,9.4,2.8,11.5,4.6c2.2,1.8,3.2,4.4,3.2,7.7c0,3.6-1.5,6.7-4.5,9.2c-3,2.6-7.4,3.9-13.3,3.9
			c-5.3,0-9.5-1.1-12.7-3.2C597.6,135.5,595.5,132.6,594.6,128.8z"/>
		<path style="fill:#002E70;" d="M658.1,100.9v8.3h-7.1v15.8c0,3.2,0.1,5.1,0.2,5.6c0.1,0.5,0.4,1,0.9,1.3c0.5,0.3,1.1,0.5,1.8,0.5
			c1,0,2.3-0.3,4.2-1l0.9,8c-2.4,1-5.1,1.5-8.2,1.5c-1.9,0-3.5-0.3-5-0.9c-1.5-0.6-2.6-1.4-3.3-2.4s-1.2-2.3-1.5-4
			c-0.2-1.2-0.3-3.6-0.3-7.3v-17.1h-4.8v-8.3h4.8v-7.8l10.4-6v13.8H658.1z"/>
		<path style="fill:#002E70;" d="M665.3,95.6V86h10.4v9.6H665.3z M665.3,140v-39.1h10.4V140H665.3z"/>
		<path style="fill:#002E70;" d="M704.2,100.9v8.3h-7.1v15.8c0,3.2,0.1,5.1,0.2,5.6c0.1,0.5,0.4,1,0.9,1.3c0.5,0.3,1.1,0.5,1.8,0.5
			c1,0,2.3-0.3,4.2-1l0.9,8c-2.4,1-5.1,1.5-8.2,1.5c-1.9,0-3.5-0.3-5-0.9c-1.5-0.6-2.6-1.4-3.3-2.4s-1.2-2.3-1.5-4
			c-0.2-1.2-0.3-3.6-0.3-7.3v-17.1H682v-8.3h4.8v-7.8l10.4-6v13.8H704.2z"/>
		<path style="fill:#002E70;" d="M737.2,140v-5.9c-1.4,2.1-3.3,3.7-5.6,4.9s-4.8,1.8-7.4,1.8c-2.6,0-5-0.6-7.1-1.7
			c-2.1-1.2-3.6-2.8-4.5-4.9c-0.9-2.1-1.4-5-1.4-8.7v-24.8h10.4v18c0,5.5,0.2,8.9,0.6,10.1c0.4,1.2,1.1,2.2,2.1,2.9
			c1,0.7,2.3,1.1,3.8,1.1c1.8,0,3.4-0.5,4.8-1.5c1.4-1,2.4-2.2,2.9-3.6c0.5-1.4,0.8-5,0.8-10.6v-16.5h10.4V140H737.2z"/>
		<path style="fill:#002E70;" d="M775.4,100.9v8.3h-7.1v15.8c0,3.2,0.1,5.1,0.2,5.6c0.1,0.5,0.4,1,0.9,1.3c0.5,0.3,1.1,0.5,1.8,0.5
			c1,0,2.3-0.3,4.2-1l0.9,8c-2.4,1-5.1,1.5-8.2,1.5c-1.9,0-3.5-0.3-5-0.9c-1.5-0.6-2.6-1.4-3.3-2.4s-1.2-2.3-1.5-4
			c-0.2-1.2-0.3-3.6-0.3-7.3v-17.1h-4.8v-8.3h4.8v-7.8l10.4-6v13.8H775.4z"/>
		<path style="fill:#002E70;" d="M805.3,127.6l10.3,1.7c-1.3,3.8-3.4,6.7-6.3,8.6c-2.9,2-6.4,3-10.7,3c-6.8,0-11.8-2.2-15.1-6.7
			c-2.6-3.6-3.9-8.1-3.9-13.5c0-6.5,1.7-11.6,5.1-15.2c3.4-3.7,7.7-5.5,12.9-5.5c5.8,0,10.4,1.9,13.8,5.8c3.4,3.8,5,9.7,4.8,17.7
			h-25.9c0.1,3.1,0.9,5.5,2.5,7.2c1.6,1.7,3.6,2.6,6,2.6c1.6,0,3-0.4,4.1-1.3C803.9,130.9,804.7,129.5,805.3,127.6z M805.9,117.1
			c-0.1-3-0.8-5.3-2.3-6.8c-1.5-1.6-3.3-2.3-5.4-2.3c-2.3,0-4.1,0.8-5.6,2.5c-1.5,1.6-2.2,3.9-2.2,6.7H805.9z"/>
		<path style="fill:#002E70;" d="M843.2,119.9c0-3.4,0.8-6.8,2.5-10c1.7-3.2,4.1-5.7,7.2-7.4s6.6-2.5,10.4-2.5
			c5.9,0,10.8,1.9,14.6,5.8c3.8,3.8,5.7,8.7,5.7,14.6c0,5.9-1.9,10.8-5.7,14.7c-3.8,3.9-8.6,5.8-14.4,5.8c-3.6,0-7-0.8-10.3-2.4
			c-3.3-1.6-5.7-4-7.4-7.1C844,128.2,843.2,124.4,843.2,119.9z M853.8,120.4c0,3.9,0.9,6.9,2.8,8.9c1.8,2.1,4.1,3.1,6.8,3.1
			c2.7,0,5-1,6.8-3.1c1.8-2.1,2.7-5.1,2.7-9c0-3.8-0.9-6.8-2.7-8.8c-1.8-2.1-4.1-3.1-6.8-3.1c-2.7,0-5,1-6.8,3.1
			C854.7,113.6,853.8,116.6,853.8,120.4z"/>
		<path style="fill:#002E70;" d="M887.1,100.9h5.7v-2.9c0-3.3,0.3-5.7,1-7.4s2-2.9,3.9-4c1.9-1,4.3-1.5,7.1-1.5
			c2.9,0,5.8,0.4,8.7,1.3l-1.4,7.2c-1.6-0.4-3.2-0.6-4.8-0.6c-1.5,0-2.6,0.4-3.2,1c-0.7,0.7-1,2-1,4v2.8h7.7v8.1h-7.7v31h-10.4v-31
			h-5.7V100.9z"/>
		<path style="fill:#002E70;" d="M529.3,226v-44.9h-16V172h42.9v9.1h-16V226H529.3z"/>
		<path style="fill:#002E70;" d="M580.2,213.6l10.3,1.7c-1.3,3.8-3.4,6.7-6.3,8.6c-2.9,2-6.4,3-10.7,3c-6.8,0-11.8-2.2-15.1-6.7
			c-2.6-3.6-3.9-8.1-3.9-13.5c0-6.5,1.7-11.6,5.1-15.2c3.4-3.7,7.7-5.5,12.9-5.5c5.8,0,10.4,1.9,13.8,5.8s5,9.7,4.8,17.7h-25.9
			c0.1,3.1,0.9,5.5,2.5,7.2s3.6,2.6,6,2.6c1.6,0,3-0.4,4.1-1.3C578.8,216.9,579.6,215.5,580.2,213.6z M580.8,203.1
			c-0.1-3-0.8-5.3-2.3-6.8c-1.5-1.6-3.3-2.3-5.4-2.3c-2.3,0-4.1,0.8-5.6,2.5c-1.5,1.6-2.2,3.9-2.2,6.7H580.8z"/>
		<path style="fill:#002E70;" d="M633.6,198.5l-10.2,1.8c-0.3-2-1.1-3.6-2.3-4.6c-1.2-1-2.8-1.5-4.7-1.5c-2.6,0-4.6,0.9-6.2,2.7
			c-1.5,1.8-2.3,4.8-2.3,8.9c0,4.6,0.8,7.9,2.3,9.8c1.6,1.9,3.7,2.9,6.3,2.9c2,0,3.6-0.6,4.8-1.7c1.3-1.1,2.1-3,2.7-5.8l10.2,1.7
			c-1.1,4.7-3.1,8.2-6.1,10.6c-3,2.4-7,3.6-12,3.6c-5.7,0-10.3-1.8-13.7-5.4c-3.4-3.6-5.1-8.6-5.1-15c0-6.5,1.7-11.5,5.1-15.1
			c3.4-3.6,8-5.4,13.9-5.4c4.8,0,8.6,1,11.4,3.1S632.4,194.3,633.6,198.5z"/>
		<path style="fill:#002E70;" d="M651.8,172v19.9c3.3-3.9,7.3-5.9,12-5.9c2.4,0,4.5,0.4,6.4,1.3c1.9,0.9,3.4,2,4.3,3.4
			c1,1.4,1.6,2.9,2,4.6c0.4,1.7,0.5,4.3,0.5,7.8v23h-10.4v-20.7c0-4.1-0.2-6.7-0.6-7.8s-1.1-2-2.1-2.6c-1-0.7-2.2-1-3.7-1
			c-1.7,0-3.3,0.4-4.6,1.3c-1.4,0.8-2.3,2.1-3,3.8c-0.6,1.7-0.9,4.2-0.9,7.5V226h-10.4v-54H651.8z"/>
		<path style="fill:#002E70;" d="M723.2,226h-10.4v-20c0-4.2-0.2-7-0.7-8.2s-1.2-2.2-2.2-2.9c-1-0.7-2.2-1-3.6-1
			c-1.8,0-3.4,0.5-4.8,1.5s-2.4,2.3-2.9,3.9c-0.5,1.6-0.8,4.6-0.8,9V226h-10.4v-39.1h9.6v5.7c3.4-4.4,7.7-6.6,12.9-6.6
			c2.3,0,4.4,0.4,6.3,1.2c1.9,0.8,3.3,1.9,4.3,3.2c1,1.3,1.6,2.7,2,4.3s0.6,3.9,0.6,7V226z"/>
		<path style="fill:#002E70;" d="M731.3,205.9c0-3.4,0.8-6.8,2.5-10c1.7-3.2,4.1-5.7,7.2-7.4c3.1-1.7,6.6-2.5,10.4-2.5
			c5.9,0,10.8,1.9,14.6,5.8s5.7,8.7,5.7,14.6c0,5.9-1.9,10.8-5.7,14.7s-8.6,5.8-14.4,5.8c-3.6,0-7-0.8-10.3-2.4
			c-3.3-1.6-5.7-4-7.4-7.1C732.1,214.2,731.3,210.4,731.3,205.9z M741.9,206.4c0,3.9,0.9,6.9,2.8,8.9c1.8,2.1,4.1,3.1,6.8,3.1
			c2.7,0,5-1,6.8-3.1c1.8-2.1,2.7-5.1,2.7-9c0-3.8-0.9-6.8-2.7-8.8c-1.8-2.1-4.1-3.1-6.8-3.1c-2.7,0-5,1-6.8,3.1
			C742.8,199.6,741.9,202.6,741.9,206.4z"/>
		<path style="fill:#002E70;" d="M779.8,226v-54h10.4v54H779.8z"/>
		<path style="fill:#002E70;" d="M798.3,205.9c0-3.4,0.8-6.8,2.5-10c1.7-3.2,4.1-5.7,7.2-7.4c3.1-1.7,6.6-2.5,10.4-2.5
			c5.9,0,10.8,1.9,14.6,5.8s5.7,8.7,5.7,14.6c0,5.9-1.9,10.8-5.7,14.7s-8.6,5.8-14.4,5.8c-3.6,0-7-0.8-10.3-2.4
			c-3.3-1.6-5.7-4-7.4-7.1C799.2,214.2,798.3,210.4,798.3,205.9z M808.9,206.4c0,3.9,0.9,6.9,2.8,8.9c1.8,2.1,4.1,3.1,6.8,3.1
			c2.7,0,5-1,6.8-3.1c1.8-2.1,2.7-5.1,2.7-9c0-3.8-0.9-6.8-2.7-8.8c-1.8-2.1-4.1-3.1-6.8-3.1c-2.7,0-5,1-6.8,3.1
			C809.9,199.6,808.9,202.6,808.9,206.4z"/>
		<path style="fill:#002E70;" d="M845.9,228.6l11.8,1.4c0.2,1.4,0.7,2.3,1.4,2.8c1,0.7,2.5,1.1,4.6,1.1c2.7,0,4.7-0.4,6.1-1.2
			c0.9-0.5,1.6-1.4,2.1-2.6c0.3-0.9,0.5-2.4,0.5-4.8v-5.7c-3.1,4.2-7,6.3-11.7,6.3c-5.3,0-9.4-2.2-12.5-6.7
			c-2.4-3.5-3.6-7.9-3.6-13.1c0-6.6,1.6-11.6,4.7-15s7.1-5.2,11.8-5.2c4.8,0,8.8,2.1,12,6.4v-5.5h9.7V222c0,4.6-0.4,8.1-1.1,10.4
			c-0.8,2.3-1.8,4.1-3.2,5.4c-1.4,1.3-3.2,2.3-5.5,3.1c-2.3,0.7-5.2,1.1-8.7,1.1c-6.6,0-11.3-1.1-14.1-3.4c-2.8-2.3-4.2-5.2-4.2-8.6
			C845.8,229.5,845.8,229.1,845.9,228.6z M855.1,205.6c0,4.2,0.8,7.2,2.4,9.1c1.6,1.9,3.6,2.9,6,2.9c2.5,0,4.7-1,6.4-3
			c1.7-2,2.6-4.9,2.6-8.8c0-4.1-0.8-7.1-2.5-9s-3.8-2.9-6.3-2.9c-2.5,0-4.5,1-6.1,2.9C855.9,198.7,855.1,201.7,855.1,205.6z"/>
		<path style="fill:#002E70;" d="M888,186.9h11l9.4,27.8l9.1-27.8h10.7l-13.8,37.7l-2.5,6.8c-0.9,2.3-1.8,4-2.6,5.2
			c-0.8,1.2-1.8,2.2-2.8,2.9c-1.1,0.7-2.4,1.3-3.9,1.8c-1.6,0.4-3.3,0.6-5.3,0.6c-2,0-3.9-0.2-5.9-0.6l-0.9-8.1
			c1.6,0.3,3.1,0.5,4.4,0.5c2.4,0,4.2-0.7,5.3-2.1c1.2-1.4,2-3.2,2.7-5.4L888,186.9z"/>
	</g>
</g>
</svg>
