<?xml version="1.0" encoding="utf-8"?>
<!-- Generator: Adobe Illustrator 19.2.1, SVG Export Plug-In . SVG Version: 6.00 Build 0)  -->
<svg version="1.1" id="layer" xmlns="http://www.w3.org/2000/svg" xmlns:xlink="http://www.w3.org/1999/xlink" x="0px" y="0px"
	 viewBox="0 0 652 652" style="enable-background:new 0 0 652 652;" xml:space="preserve">
<style type="text/css">
	.st0{fill:#E76424;}
	.st1{fill:#004D71;}
</style>
<path class="st0" d="M20.3,289.1h582.8l-322.8,68.6L20.3,289.1z M341.8,374L447.7,402l155.4-112.8L341.8,374z M491.1,413.3
	l80.9,21.4l31-145.7L491.1,413.3z"/>
<g>
	<path class="st1" d="M42.4,209.3h21l13.8,47.6h0.2l9.9-47.6h16.4L88.9,278h-21l-14.1-47.5h-0.2L43.8,278H27.4L42.4,209.3z"/>
	<path class="st1" d="M142.7,276.4c-5.9,1.7-12.1,2.7-17,2.7c-16.2,0-24.9-9.9-24.9-22.2c0.1-11.3,7.6-28.6,29.2-28.6
		c12.7,0,22.3,6.5,22.3,21.1c0,1.9-0.6,6.3-1.3,9.2h-34.3c0.2,5.2,2.7,9.3,13,9.3c4.4,0,10.5-1.2,15.2-3.4L142.7,276.4z
		 M138.4,249.2c0-5.2-2-9.6-8.2-9.6c-7.2,0-11.2,4.9-12.4,9.6H138.4z"/>
	<path class="st1" d="M158.5,229.5h7.6l3.5-15.1h16.7l-3.5,15.1h13.5l-2.1,11.8H180l-3,13.5c-0.8,3.7-1.4,6.1-1.4,8.4
		c0,3.3,4,5.1,7.4,5.1c1.7,0,3.7-0.8,5.4-1.3l-1.9,11.4c-3.6,0.6-7,1-10.4,1c-8.6,0-17.2-4.1-17.2-14.4c0-2.4,0.4-4.8,1.5-9.9
		l3-13.6h-6.9L158.5,229.5z"/>
	<path class="st1" d="M261.6,278h-19.5l-0.5-35.1h-0.2L224.6,278h-19.6l-4.3-48.5h16.7l0.3,35.1h0.2l16.1-35.1h20.3l0.2,35.1h0.2
		l15.7-35.1h17L261.6,278z"/>
	<path class="st1" d="M309.3,279.1c-17.9,0-25.1-9.9-25.1-22.2c0.1-17.1,12.4-28.6,31.4-28.6c16.5,0,25.1,9.5,25.1,21.7
		C340.6,270.3,327.4,279.1,309.3,279.1z M314.7,240.1c-8.1,0-13.2,8.8-13.2,16.5c0,6.6,3.4,10.9,9.1,10.8c7.8,0,12.8-6.6,12.8-17.5
		C323.4,244.8,321.2,240.1,314.7,240.1z"/>
	<path class="st1" d="M367.8,229.5l-1.9,9.9h0.2c2.7-5.7,8.2-11.1,15-11.1c2.2,0,4.8,0.3,7,1.3l-3.9,14.8c-2.1-1.6-4.5-2-7.7-2
		c-7,0-11.3,6.2-12.5,13.3l-4.8,22.4h-16.8l7.7-35.8c0.9-4.1,1.6-8.3,2.1-12.6L367.8,229.5L367.8,229.5z"/>
	<path class="st1" d="M399.8,209.3h17l-8.9,40.6h0.2l16.1-20.3h19.1l-20.1,23.3l12.5,25.1H417l-9.8-24H407l-5.2,24h-17.1
		L399.8,209.3z"/>
	<path class="st1" d="M458.1,209.3H479c13.1,0.1,28.8,0.5,28.7,17.5c-0.1,11.7-8.5,18.3-19,19.6v0.2c5.4,0.5,7.1,7.8,8.1,12.2
		l4.8,19.2h-17.2l-3.5-17.5c-1.7-9-4.5-9.6-12.7-9.6h-1.9l-5.7,27.2h-17.3L458.1,209.3z M469,237.8h7.2c8,0,14.2-1.9,14.3-8.5
		c0-4.9-2.9-7-8.5-7.1h-9.7L469,237.8z"/>
	<path class="st1" d="M539.6,271.2l-0.2-0.2v0.2c-3.6,5.6-9.8,7.9-16.4,7.9c-10.4,0-16.2-4.6-16.1-14.1c0.1-11.9,12-17.7,26.8-17.7
		c3.4,0,6.7,0.3,9.1,0.5c0.2-0.7,0.2-1.3,0.2-1.9c0-3.5-3.4-6.3-8.9-6.3c-6.1,0-10.1,1-15.7,3.9l1.7-12.2c4.9-1.6,10.2-2.8,17.8-2.8
		c11.6,0,21,4.5,20.9,16.5c0,7.6-4.3,18.5-6.3,33.1h-13.7L539.6,271.2z M528.4,267.9c7.1,0,11.5-4.9,12.7-11.5
		c-1.4-0.3-3.5-0.3-4.4-0.3c-8-0.3-13.9,2.6-13.9,6.8C522.8,265.3,525,267.9,528.4,267.9z"/>
	<path class="st1" d="M571.8,229.5h17L578.4,278h-17L571.8,229.5z M576.1,209.3h17l-2.7,12.3h-17L576.1,209.3z"/>
	<path class="st1" d="M603.4,209.3h17L605.7,278h-17L603.4,209.3z"/>
</g>
</svg>
