<?xml version="1.0" encoding="utf-8"?>
<!-- Generator: Adobe Illustrator 24.0.0, SVG Export Plug-In . SVG Version: 6.00 Build 0)  -->
<svg version="1.1" id="Layer_1" xmlns:serif="http://www.serif.com/"
	 xmlns="http://www.w3.org/2000/svg" xmlns:xlink="http://www.w3.org/1999/xlink" x="0px" y="0px" viewBox="0 0 653.5 221.8"
	 style="enable-background:new 0 0 653.5 221.8;" xml:space="preserve">
<style type="text/css">
	.st0{fill:#002E70;}
</style>
<g transform="matrix(1,0,0,1,-490,-40)">
	<path class="st0" d="M547.7,141.8h9.7c20.9,0,41.5,0,41.5-27c0-28-19.1-28.3-41.5-28.3h-9.7V141.8z M490,40h88.3
		c47.7,0,80.6,22.1,80.6,73c0,52.3-28.2,75.3-78.5,75.3h-32.7v73.5H490V40z"/>
	<path class="st0" d="M795.7,174.8L849.5,40h62.7l-94.7,221.8h-44.7L679.5,40h62.7"/>
	<path class="st0" d="M1085.9,125.6V40h57.6v221.8h-57.6v-90.9h-83.3v90.9h-57.7V40h57.7v85.6H1085.9z"/>
</g>
</svg>
