<?xml version="1.0" encoding="utf-8"?>
<!-- Generator: Adobe Illustrator 24.0.0, SVG Export Plug-In . SVG Version: 6.00 Build 0)  -->
<svg version="1.1" id="Layer_1" xmlns="http://www.w3.org/2000/svg" xmlns:xlink="http://www.w3.org/1999/xlink" x="0px" y="0px"
	 viewBox="0 0 1278.6 970.7" style="enable-background:new 0 0 1278.6 970.7;" xml:space="preserve">
<style type="text/css">
	.st0{fill:#003478;}
	.st1{opacity:0.8;}
	.st2{opacity:0.8;fill:#003478;}
</style>
<g>
	<path class="st0" d="M0,644c14-4.1,28-8.1,42-12.3c16.5-5,32.8-10.8,49.6-14.8c8.9-2.1,18.4-1.2,28.2-1.7c0,11.1,0,21.4,0,32.6
		c8.2-4.7,15.5-9,23-13.2c13.1-7.3,26.4-14.2,41.4-16.6c39.3-6.3,71.3,8.7,91.8,42.7c26.8,44.4,26.1,117.3-12.5,160.3
		c-19.8,22-44.7,34.4-73.5,39.8c-19.5,3.7-39.1,2.5-58.7,1.4c-3.6-0.2-7.3-0.4-11.2-0.6c0,25.9,0,51.4,0,77.5
		c11.1,2.5,22.4,5.3,33.7,7.5c4.5,0.9,6,2.6,5.7,7.1c-0.4,5.6,0.2,11.3,0.3,16.9c-0.7,0-1.3,0-2,0c-1.9-0.3-3.8-0.9-5.7-0.9
		c-49.4-0.1-98.8-0.1-148.3-0.1c0-7.1,0-14.2,0-21.7c10.3-2.6,20.6-5.3,30.9-7.6c4.1-0.9,5-2.6,5-6.6c-0.1-87.1-0.1-174.3-0.1-261.4
		c0-1.6,0-3.2,0-5.4c-13.5,0-26.6,0-39.7,0C0,659.3,0,651.7,0,644z M120.1,670.8c0,54.1,0,108,0,161.9c6.9,0,13.6,0.4,20.2-0.1
		c29.1-1.9,50.9-15,61.2-43.2c9.6-26.2,10.1-53.2,2.9-80c-4.8-17.9-15.3-31.6-33.3-38.3C154.2,664.8,137.1,666.8,120.1,670.8z"/>
	<path class="st0" d="M4,970.7c-0.1-0.2-0.2-0.4-0.2-0.6c0-0.1,0.1-0.2,0.1-0.3c49.4,0,98.8,0,148.3,0.1c1.9,0,3.8,0.6,5.7,0.9
		C106.6,970.7,55.3,970.7,4,970.7z"/>
	<path class="st0" d="M350.6,667.9c-16.2-1.5-31.8-3-47.6-4.5c0-7.5,0-14.7,0-22.6c8.9-2,18.1-4.2,27.3-6.2
		c19-4.3,37.8-9.4,56.9-12.4c11.3-1.8,23.1-0.3,35.2-0.3c0,51.4,0,103.2,0,155c0.3,0.1,0.6,0.2,0.9,0.3c0.8-1.3,1.7-2.6,2.5-3.9
		c29.9-49.3,59.8-98.6,89.5-147.9c2-3.3,4.1-4.4,7.8-4.3c17.3,0.2,34.6,0.1,52.3,0.1c0,60.9,0,121.6,0,183.5
		c1.6-1.9,2.5-2.9,3.3-3.9c18.1-24.3,36.3-48.5,54.2-72.9c1.7-2.3,2.8-5.7,2.8-8.6c0.2-28.6,0.1-57.3,0.2-85.9c0-2,0.5-4.6,1.8-5.8
		c12.5-11.4,27-16.4,43.7-12.1c15.9,4.1,26.3,14.5,30.6,30.4c3.6,13.3,1,26.2-5.9,37.4c-9.3,15.1-19.4,29.8-30.2,43.9
		c-33.8,44.1-68.1,87.8-102.1,131.8c-2.6,3.3-5,4.8-9.4,4.8c-18.8-0.3-37.6-0.1-56.4-0.1c-1.6,0-3.2,0-5.3,0c0-50.2,0-100,0-149.8
		c-0.3-0.1-0.6-0.1-0.8-0.2c-6.8,11.1-13.5,22.3-20.3,33.4c-22.8,37.5-45.5,75-68.2,112.5c-1.9,3.1-3.8,4.3-7.4,4.2
		c-16.6-0.2-33.3-0.1-50-0.1c-1.6,0-3.3,0-5.3,0C350.6,798.2,350.6,733.4,350.6,667.9z"/>
	<path class="st0" d="M951.2,795.9c0,14.4,0.1,28-0.1,41.6c0,1.2-1.3,2.9-2.5,3.5c-38.1,18.9-78.1,27.8-120.9,25.8
		c-69.9-3.4-107.9-60.1-112.4-107.3c-3.8-39.2,5.1-74.3,32.4-103.6c18.1-19.4,40.7-31.2,66.4-37.2c28.3-6.6,56.7-7.2,84.8,1.4
		c15.3,4.7,29.1,12.3,39.3,25.2c9.9,12.6,13.6,26.9,9.9,42.7c-4.5,19.1-22.7,31.1-44.3,30.4c-13.2-0.5-24.8-5.7-36.1-11.7
		c-1.2-0.6-1.9-3.2-1.9-4.9c-0.1-18.5-0.1-37-0.1-55.4c0-1.6,0-3.3,0-5.3c-24,4.4-42.5,16.2-51.9,38.6
		c-14.3,33.8-14.8,68.5,0.2,102.2c15.2,34,48.4,48,85.3,36.3c14.9-4.7,29.1-12,43.6-18.1C945.3,798.9,947.7,797.6,951.2,795.9z"/>
	<path class="st0" d="M813.4,416.3c0-39.3,0.1-78.6,0.1-117.9c0.3-0.3,0.6-0.6,0.8-1c0,0,0-0.1,0-0.1c49.3,0,98.6,0,147.9,0
		c0,0,0,0.1,0,0.1c0,39.6,0,79.2,0,118.9c0,0,0,0.3,0,0.3c-2.2,0-4.3-0.1-6.5-0.1C908.3,416.3,860.8,416.3,813.4,416.3L813.4,416.3z
		"/>
	<path class="st0" d="M813.6,417.6c0,19.3,0,38.6,0,58.2c-79.3,0-158.4,0-237.8,0c0-19.6,0-39.1,0-59.3c2,0,3.9,0,5.8,0
		c75.3,0,150.5,0,225.8,0c2,0,4-0.1,6-0.2c0,0,0,0,0,0C813.5,416.7,813.6,417.1,813.6,417.6z"/>
	<path class="st0" d="M962.3,297.3c-49.3,0-98.6,0-147.9,0c0-17.7,0-35.4,0-53.1c0-1.6-0.5-3.2-0.8-4.8c0-0.7,0-1.3,0-2
		c47.9,0,95.8,0,143.7-0.1c4,0,5,1.2,5,5.1C962.2,260.7,962.3,279,962.3,297.3z"/>
	<path class="st0" d="M813.6,417.6c-0.1-0.4-0.2-0.9-0.2-1.3c47.4,0,94.9,0.1,142.3,0.1c2.2,0,4.3,0.1,6.5,0.1c0,0.2,0,0.4,0,0.6
		c-15.6,0.1-31.3,0.2-46.9,0.2c-31.9,0-63.8,0-95.8,0C817.6,417.3,815.6,417.5,813.6,417.6z"/>
	<path class="st0" d="M813.5,239.4c0.3,1.6,0.8,3.2,0.8,4.8c0,17.7,0,35.4,0,53.1c0,0,0,0.1,0,0.1c-0.3,0-0.6,0-0.8,0
		C813.5,278,813.5,258.7,813.5,239.4z"/>
	<path class="st0" d="M813.5,297.4c0.3,0,0.6,0,0.8,0c-0.3,0.3-0.6,0.6-0.8,1C813.5,298,813.5,297.7,813.5,297.4z"/>
	<g class="st1">
		<path class="st0" d="M813.6,237.5c0-39.6,0-79.3,0-118.9c8.3,0,16.6,0,25,0c70.9,0,141.8,0,212.7-0.1l0,0c0,59.6,0,119.2,0,178.8
			c-29.7,0-59.3,0-89,0.1c0,0,0-0.1,0-0.1c0-18.3-0.1-36.6,0.1-54.9c0-3.9-1-5.1-5-5.1C909.4,237.5,861.5,237.4,813.6,237.5z"/>
		<path class="st0" d="M1051.1,416.2c-29.6,0-59.3,0-88.9,0.1c0-39.6,0-79.2,0-118.9c29.7,0,59.3,0,89-0.1c0,0,0,0.1,0,0.1
			C1051.2,337,1051.1,376.6,1051.1,416.2z"/>
		<g class="st1">
			<path class="st2" d="M1098.2,118.4c30.1,0.1,60.2,0.1,90.3,0.2c9.8,0,19.6,0,30.2,0c0,59.8,0,119.3,0,178.8
				c-11.5,0-22.9,0-34.4,0c-28.7,0-57.4-0.1-86.2-0.2c0-59.4,0-118.9,0-178.3C1098.2,118.8,1098.2,118.6,1098.2,118.4z"/>
			<path class="st0" d="M1051.2,118.5c-70.9,0-141.8,0-212.7,0.1c-8.3,0-16.6,0-25,0c0-24,0.1-47.9,0.1-71.9c11,0,22,0,32.9-0.1
				c68.2,0,136.4-0.1,204.6-0.1c0,0,0.2-0.1,0.2-0.1C1051.4,70.4,1051.3,94.5,1051.2,118.5z"/>
			<path class="st0" d="M1098.1,297.2c28.7,0.1,57.4,0.1,86.2,0.2c11.5,0,22.9,0,34.4,0c0,0,0.4,0.2,0.4,0.2c0,39.6,0,79.1,0,118.7
				c-1.5,0.2-2.9,0.6-4.4,0.6c-83.6,0.1-167.3,0.2-250.9,0.3c-0.5,0-1-0.1-1.5-0.1c0-0.2,0-0.4,0-0.6c0,0,0-0.3,0-0.3
				c29.6,0,59.3,0,88.9-0.1c13.8,0,27.6-0.2,41.4,0.2c4.8,0.1,5.7-1.6,5.7-6c-0.2-37.6-0.1-75.2-0.1-112.8L1098.1,297.2z"/>
			<path class="st2" d="M1051.3,46.5c-68.2,0-136.4,0.1-204.6,0.1c-11,0-22,0-32.9,0.1c0-15.4,0-30.9,0-46.7c79.2,0,158,0,237.6,0
				C1051.3,15.4,1051.3,31,1051.3,46.5z"/>
			<path class="st2" d="M1219.1,416.2c0-39.6,0-79.1,0-118.7c19.7,0,39.5,0,59.6,0c0,39.5,0,78.8,0,118.7
				C1258.8,416.2,1238.9,416.2,1219.1,416.2z"/>
			<path class="st2" d="M1051.2,118.5c0.1-24,0.1-48.1,0.2-72.1c15.3,0,30.6,0,46.7,0c0,24.3,0,48.1,0,72c0,0.2,0,0.3-0.1,0.5
				c-1.8-0.1-3.6-0.3-5.5-0.3C1078.9,118.5,1065.1,118.5,1051.2,118.5C1051.2,118.5,1051.2,118.5,1051.2,118.5z"/>
			<path class="st0" d="M1051.2,118.5c13.8,0,27.6,0.1,41.4,0.1c1.8,0,3.6,0.2,5.5,0.3c0,59.4,0,118.9,0,178.3c0,0,0,0.4,0,0.4
				c-15.7-0.1-31.3-0.2-47-0.2c0,0,0-0.1,0-0.1C1051.2,237.7,1051.2,178.1,1051.2,118.5z"/>
		</g>
		<path class="st0" d="M1051.2,297.4c15.7,0.1,31.3,0.2,47,0.2c0,37.6-0.1,75.2,0.1,112.8c0,4.4-0.8,6.1-5.7,6
			c-13.8-0.4-27.6-0.1-41.4-0.2C1051.1,376.6,1051.2,337,1051.2,297.4z"/>
	</g>
</g>
</svg>
