<?xml version="1.0" encoding="utf-8"?>
<!-- Generator: Adobe Illustrator 19.2.1, SVG Export Plug-In . SVG Version: 6.00 Build 0)  -->
<svg version="1.1" id="layer" xmlns="http://www.w3.org/2000/svg" xmlns:xlink="http://www.w3.org/1999/xlink" x="0px" y="0px"
	 viewBox="0 0 652 652" style="enable-background:new 0 0 652 652;" xml:space="preserve">
<style type="text/css">
	.st0{fill:#00483A;}
</style>
<g>
	<path class="st0" d="M532.1,203.4c-1-1.5-1.1-2.8,0.1-4.2c1.2-1.4,1.8-3,1.1-4.9c-0.8-2-1.6-4-2.3-6c-0.5-1.4-1.1-2.9-1-4.3
		c0-0.8,1.4-1.5,2-2.3c0.5-0.7,1-1.4,1.2-2.2c0.6-2.6,0.1-5-2.3-6.7c-3.7-2.7-4.9-6.3-2-10.8c1.9-2.9,3.1-6.3,1.9-9.6
		c-1.3-3.6-2-7.1-2.1-11c-0.1-4.3-3.2-5.6-7.1-4.3c-0.7,0.2-1.3,0.9-2,1.3c-1.8,1.1-3.5,2.2-5.3,3.4c-1.4-2.3-1.2-4.5-0.8-6.6
		c0.6-3.3,0-4.8-2.7-6.5c1-3.6,0.1-5.3-4.4-8.3c-3.3-2.2-6.7-0.8-9.9-0.1c-3.4-4.7-7.6-5.7-12.4-3.1c-0.5,0.3-1.7,0.1-2.1-0.3
		c-0.8-0.7-1.4-1.7-1.8-2.7c-0.7-2-1.8-3.6-3.8-4.5c-0.4-0.2-0.9-0.7-1-1.1c-1.7-3.7-4.3-5-8.2-4.1c-1.4,0.3-2.6,0.3-3.8-0.7
		c-3.2-2.5-7.1-2.5-9.8,1c-0.7,0.9-1.6,1.4-3.1,1.1c-3.2-0.7-5.3,0.7-6.5,3.9c-0.5,1.4-1,2.8-1.6,4.2c-1.7,3.6-4.1,6.2-8.4,7.1
		c0.4-2.5,2.5-4.4,1.3-7c-1.3-2.7-4-2.3-6.4-2.8c0.4-0.5,0.6-0.8,0.8-1c3.6-3.8,5.4-10.2,1.7-15.7c-2.7-4-8.6-5.1-12.3-2
		c-0.8,0.7-1.7,1.3-2.3,1.8c-1.2-1.3-2.1-2.8-3.5-3.6c-3.2-2-7.7-1-10.5,1.6c-4.7,4.3-4.4,4.4-9.6,2.3c-2.5-1-4.8-0.4-6.4,1.7
		c-0.4,0.5-0.8,1.1-1.2,1.6c-6.8-2.8-6.8-2.8-11,2.1c-3.5-0.7-5.4-1.1-7.7,6.6c-1.8-0.2-2.3-0.5-3.3-2.2c-1.2-1.9-4-2.6-6.1-1.9
		c-2.5,0.9-2.8,2.9-3,4.7c-2.2,0.2-4.1,0.2-6,0.4c-0.8,0.1-1.6,1.1-2.4,1.1c-3.4-0.3-5.7,1.4-7.6,4.4c-1-1.1-2.4-1.9-2.6-2.9
		c-0.6-2.5,0.1-3.2,2.8-4c3.3-1,5.9-3.4,3.4-7.5c-0.3-0.5-0.4-1.3-0.3-1.9c0.8-4-1.4-6.9-5.5-7c-1.7,0-2.4-0.5-2.6-2.3
		c-0.1-1.3-0.6-2.7-1.3-3.8c-1-1.7-3.3-2.1-4.6-0.7c-1.1,1.3-1.7,0.8-2.9,0.1c-1.5-0.8-3.6-1.3-5.2-0.9c-1.7,0.4-1.1,2.5-1,4
		c0,0.7,0.7,1.4,0.8,2.1c0.1,0.7-0.2,1.4-0.3,2.1c-0.5-0.4-1.2-0.6-1.5-1.1c-1.9-3.7-4.7-5-8.7-3.5c-1.7,0.6-3.3,1.6-4.7,2.3
		c-2.1-1-4.1-2-6-3c-0.2-0.1-0.4-0.5-0.5-0.8c-0.5-2.3-2.2-3.4-4.4-4.2c-0.6-0.2-1.5-0.5-1.7-1c-0.6-2.1-2.4-2.7-4-3.5
		c-5.7-2.8-10.8-1-13.4,4.8c-0.3,0.6-0.5,1.2-0.9,1.6c-1,1.1-3.1,1-3.4-0.2c-0.7-3.5-3.2-4.8-6.2-5.6c-0.6-0.2-1.4-0.7-1.6-1.3
		c-0.9-2.7-5.4-4-7.7-1.7c-2.3,2.4-5.2,3.2-8.6,2.4c-1.1-0.3-2.8,0-3.8,0.7c-1.9,1.4-3.6,3.1-5.3,4.8c-2.6,2.6-2.6,2.6-5.9,1.1
		c-2.4-1.1-4.7-1.7-7.2,0c-1,0.6-2.5,0.8-3.8,0.6c-2.6-0.3-5-0.5-6.7,2.2c-0.7,1.2-2,1.6-3.4,0.8c-3.8-2.2-5.9-1.9-9.3,1.2
		c-1.4,1.3-2.9,1.9-4.8,0.7c-2.3-1.4-4.9-1.1-7.4-0.6c-3,0.7-3.7,1.5-3.9,4.6c-0.1,1.2-0.5,1.7-1.7,1.7c-3.2,0.1-4.2,1-4.8,3.9
		c-0.4-0.1-0.9-0.3-1.3-0.4c-3.5-1-6.4,0.7-7.6,4.1c-0.2,0.6-1.1,1.2-1.8,1.4c-3,0.9-4.1,2.7-3.4,5.7c0.2,0.8,0.4,1.6,0.7,2.3
		c0.8,2.2,0.3,3.3-1.8,3.9c-0.5,0.1-0.9,0.2-1.3,0.4c-2.6,1.5-3.1,5.2-0.9,7.3c3.7,3.6,2.9,7.1-2,8.8c-2.3,0.8-4.3,2-5.1,4.4
		c-1.2,3.6-2,4.3-5.7,4.3c-2.6,0-5.1,0.6-6.3,3c-1.6,3.1-4.3,3.8-7.3,4c-3.1,0.3-5.5,1.9-7.2,4.4c-1.8,2.6-1.4,5.3-0.2,8.2
		c0.5,1.1,0.5,2.5,0.2,3.7c-0.6,2.7-0.6,5.1,1.2,7.3c1,1.2,0.3,1.8-0.8,1.9c-0.8,0.1-1.6-0.3-2.4-0.4c-1.4-0.2-2.8-0.5-4.2-0.4
		c-3,0-5.5,2.2-8.7,1.8c-3.5-0.4-5.9,3.5-4.6,6.8c0.3,0.9,0.9,1.7,1.3,2.6c-0.1,0.1-0.2,0.4-0.3,0.5c-3.5,3.4-3.4,4.8,0.1,8.4
		c2,2.1,2.8,4.9,2.1,7.7c-0.5,2-1.5,3.9-2.2,5.9c-1.1,2.9-0.2,4.7,2.7,5.6c1.7,0.6,3.3,1.3,5.1,2c-1.1,1.5-1.9,2.4-2.6,3.5
		c-1.4,2.4-0.7,5,1.7,6.3c1.8,0.9,3.7,0.9,5.5-0.2c1-0.6,1.8-1.5,2.9-1.9c1.3-0.5,2.8-1.6,4.3-0.1c-0.6,1.4-1.3,2.6-1.8,3.8
		c-0.9,2.6-0.2,4.1,2.4,4.8c4.2,1,8.4,1.2,12.3-1.4c1.1-0.7,2.5-1,3.7-1.5c0.1,0.2,0.2,0.4,0.4,0.6c-0.6,0.9-1.3,1.7-1.9,2.6
		c-1.4,2.1-0.9,4.5,1.6,5.3c2,0.7,4.2,1,6.4,1.2c2.5,0.3,2.9,0.7,2.3,3.1c-0.8,3.4,0.5,6.3,3.4,8c2.3,1.4,4.5,2.8,6.7,4.3
		c0.5,0.3,1,0.8,1.2,1.3c1.5,5,7.1,5.5,11.4,5.3c1.9,0,4.2-0.5,5.5,0.4c3.5,2.5,7.5,3.3,11.5,3.5c2,0.1,2.8,1,3.9,2.4
		c0.9,1.1,2.2,2.2,3.5,2.8c1.1,0.6,2.7,0.7,4,0.6c3-0.2,6.1-0.7,9.2-1.1c0,0.1,0,0.5,0.1,0.8c0.1,5,0.9,6.2,6,7c2.1,0.3,4.4,0,6.6,0
		c0.6,4,1.3,4.9,5.3,5.8c2.2,0.5,4.4,0.7,6.7,1c3,0.4,3.7,1.4,3.2,4.3c-0.1,1.2-0.1,2.4,0,3.7c0.1,3,2.8,4.7,5.5,3.4
		c1.2-0.6,2.1-0.5,3,0.3c3.8,3.4,6.3,7.2,5.5,12.7c-0.7,4.6,0.3,9,3.3,12.8c3.2,4.1,6.3,8.4,9.5,12.6c0.6,0.8,1,1.7,1.6,2.7
		c-6.2,0.3-37.2,2.5-59.9,4.2c-12.7,1-64,5.6-84.1,8c-0.2,0-0.3,0-0.5,0.1v2.6h388.7v-2.5c-0.3-0.1-0.5-0.2-0.9-0.2
		c-3.5-0.5-75.3-7.3-100.2-9.3c-17.5-1.1-38.8-2.5-43.2-2.7c-3.6-0.1-7.2-0.3-11.2-0.5c2.1-3.4,4-6.6,6.1-9.7
		c1.2-1.7,2.6-3.4,4.1-4.8c2-1.9,4.4-3.3,4.5-6.5c0-0.4,0.4-0.9,0.6-1.3c1.6-2.2,3.3-4.3,4.8-6.5c1.9-2.9,3.4-6.2,5.6-9
		c1.9-2.5,4.2-4.9,6.9-6.7c6.4-4.1,13.2-7.8,19.8-11.7c1.6-0.9,3.4-1.5,5.3-2.4c0,1.1,0.1,1.6,0.1,2.2c0,3.2,2.1,5.1,5.3,4.4
		c2.3-0.5,4.5-1.8,6.6-3c1-0.6,1.8-0.7,3-0.5c1.9,0.3,3.9,0.5,5.8,0.1c3.9-0.9,6-3.6,5.7-7.7c5.3-0.9,6.4-2.6,5.4-8.4
		c1.2-0.2,2.3-0.4,3.5-0.6c0.6,3.3,2.6,5.2,6.7,3.7c0.8,1.3,1.4,2.8,2.4,3.7c3.6,2.9,11.5,3.8,15.1-2c0.4-0.8,1.6-1.4,2.6-1.6
		c5.7-1.1,10.4-3.6,13.8-8.4c0.8-1.2,1.6-2.5,2.3-3.6c1.2,0.5,2,1,2.9,1.3c2.8,1,3.4,0.6,4.4-2c0.8-2.2,1.7-4.5,2.9-6.6
		c0.8-1.5,2.1-2.1,4-1.1c2.5,1.2,5.2,1.3,7.3-0.8c1.7-1.7,2.9-3.8,4.5-6c0.5,0,1.5,0,2.4,0c3.5,0,4.7-0.9,5.2-4.4
		c0.3-2.1,0.2-4.4-0.1-6.5c-0.4-2.6-1.2-5.2-1.8-8c0.8,0.3,1.4,0.6,2,0.8c4.4,1.3,5.9-0.2,6.5-4
		C535.5,211.5,534.6,207.2,532.1,203.4 M315.5,290.3c-0.4,2.4-0.8,4.9-1.4,7.4c-0.4,1.5-1,2.9-1.7,4.3c-1.9,4.2-2.5,8.6-2.4,13.1
		c0.2,5.9-1.1,11.5-3.8,16.7c-0.3,0.6-1.1,1.2-1.7,1.2c-4.7,0.1-9.4,0.4-14,0c-1.7-0.2-3.5-1.7-4.9-3c-4.6-4.1-9.2-8.2-13.7-12.4
		c-4-3.7-5.7-8.4-5.8-13.7c0-1.6,0-3.2,0-4.7c0-4.5,2.2-7.3,6.6-7.1c3.5,0.2,6.4-0.7,9.3-2.3c1.9-1,3.6-1,5.7,0.1
		c5,2.8,11.5-0.3,12.4-5c0-0.3,0.3-0.6,0.5-0.9c3.5,2.3,5.6,2.1,10-1.1c1.6,1.9,3.2,3.8,4.7,5.7C315.6,289,315.6,289.7,315.5,290.3
		 M379.2,279.8c-1.2,2-2,4.3-2.9,6.5c-1.2,3-3.3,5.2-6.1,6.6c-2,1-3.3,2.4-4.2,4.5c-2.2,5.7-5.1,10.9-9.3,15.5
		c-1.9,2-3.3,4.6-4.5,7.1c-2.7,5.6-7.6,8.5-12.8,11.2c-2.2,1.1-4.4,1.7-6.8,1.6c-3.2,0.1-5.9,0-9.1,0c-0.7-3.4-1.7-6.6-2.1-9.8
		c-1.1-7.9,0.3-15.6,3.4-22.9c1-2.4,1.9-4.9,3-7.2c0.8-1.7,1.7-3.3,2.8-4.8c1.4-1.8,3.3-2.5,5.7-1.9c2.8,0.7,5.7,1.2,8.6,1.4
		c3.1,0.2,4.2-1,4.2-4.1c0-0.5,0-1.1,0-1.6c0.1-1,0.3-1.6,1.7-1.4c1.4,0.3,2.9,0.1,4.3,0.1c3.3,0,4.5-1.2,4.8-4.5
		c0-0.7,0.3-1.4,0.5-2.4c2.4,2.1,4.2,3.5,8.1,0.6c1.4,3.9,4.3,3.8,7.5,3c0.6-0.2,1.4-0.2,2,0C379.1,277.7,380.4,278,379.2,279.8"/>
	<path class="st0" d="M201.8,393.8c2.9,0,5-2.3,5-5.1c0-2.9-2.1-5.1-5-5.1c-3,0-5.1,2.2-5.1,5.1
		C196.7,391.5,198.8,393.8,201.8,393.8"/>
	<path class="st0" d="M171.7,422.6c0,9.5,8.7,15.5,15.4,15.5c5.6,0,10.5-2.8,12.9-8.6v5.3c0,5.7-2.2,9.8-7.5,9.8l-71.1,0
		c-1.9-20.8-11-33.8-25.3-33.8c-5.8,0-15.2,6.6-22.8,20.7l1.7-37.7l-16,0.7v3.3c5.7,0,6.3,0.9,6.3,3.3v35.8c0,5.9-3,7.7-9.8,7.7H8.1
		c0.4-3.9,0.5-7.9,0.5-11.9v-24.8l-13.4,2.5c4.4,1.4,4.5,2.1,4.5,4.5v25.2c-0.8,18.7-8,25.8-22.6,29.6c3.7,0.3,5.9,0.4,7.2,0.4
		c14.1,0,20-7.7,22.5-17.9h45.8H68h95.8H195c8.7,0,13.7-4.6,13.7-12.9V403h-7.5C183.9,403,171.7,405.2,171.7,422.6 M199.8,420
		c0,7.9-4.6,14.9-10.6,15c-5.8-0.3-8.8-7.2-8.8-13.1c0-14.8,9.5-15.9,18.3-15.9h1.1V420z M96.5,414.1c7.6,0,14.6,10.7,15.6,30.6
		l-40.8,0C75.3,433.6,87,414.1,96.5,414.1"/>
	<path class="st0" d="M187.3,393.8c3,0,5.1-2.3,5.1-5.1c0-2.9-2.1-5.1-5.1-5.1c-3,0-5.1,2.2-5.1,5.1
		C182.1,391.5,184.2,393.8,187.3,393.8"/>
	<path class="st0" d="M251.1,399.5c2.9,0,5.2-2.3,5.2-5.1c0-2.8-2.2-5.1-5.2-5.1c-3.1,0-5.1,2.3-5.1,5.1
		C246,397.2,248,399.5,251.1,399.5"/>
	<path class="st0" d="M265.6,399.5c3,0,5.1-2.3,5.1-5.1c0-2.8-2.1-5.1-5.1-5.1c-3,0-5.1,2.3-5.1,5.1
		C260.5,397.2,262.6,399.5,265.6,399.5"/>
	<path class="st0" d="M512.3,415v23.1c0,5.9-2.3,8.7-7.9,8.7c-6.9,0-10.9-5.6-10.9-13.4v-21.8l-13.4,2.5c4.4,1.5,4.5,1.9,4.5,4v20
		c0,5.9-2.3,8.7-8,8.7c-6.2,0-10.7-4.6-10.7-11.4v-20.1l-13.3,2.4c4.5,1.5,4.5,1.9,4.5,4.1v16.3c0,5.9-2.3,6.5-7.8,6.5H408h-1.3
		c-5.7,0-11.1-3-11.1-10.8v-25.8l-13.1,2.5c4.3,1.4,4.3,2,4.3,4.4v23.1c0,5.9-2.3,8.7-7.9,8.7c-7,0-10.9-7.1-10.9-13.4v-21.7
		l-13.4,2.5c4.4,1.5,4.5,1.9,4.5,4v19.9c0,5.9-2.3,8.7-8.1,8.7c-6.2,0-10-5.4-10.6-11.4v-20.1l-13.3,2.4c4.5,1.5,4.5,1.9,4.5,4.1
		V438c0,5.9-2.3,6.7-7.8,6.7h-0.5h-1.8h-39.8c-4.7-0.4-5.2-4.1-5.2-6.8V415c0-2.1,0.1-4.7,0.7-7.3h-5c-0.7,0.7-0.5,1.1-0.7,1.5
		c-0.4,1.2-0.9,2.5-1.1,2.5c0,0-0.6-0.4-1.7-1c-2.3-1.5-6.2-4-11.9-4c-12.7,0-20.6,11.2-20.6,22.7c0,12.3,7.9,23.1,18.5,23.1
		c8.6,0,13.1-6.1,14.6-10.4c0,9.1,5.6,10.3,12.5,10.4h2.7h37.1h1.8h2.5c6.3,0,11.3-2.3,13.6-6.8c3.4,4.6,7.2,6.9,14,6.9
		c6.2,0,12.6-3.7,13.9-8.5c2.1,4.8,7.1,8.5,13.7,8.5c7,0,12.2-3.1,14-8.6c2.4,5.2,8.1,8.6,13.3,8.6h41.9h1.2c6.3,0,11.4-2.4,13.6-7
		c3.4,4.6,7.2,6.9,14,6.9c6.2,0,12.6-3.7,13.9-8.5c2.1,4.8,7.1,8.5,13.7,8.5c8.6,0,14.7-4.6,14.7-12.9v-31.5l-13.2,2.5
		C512.3,411.9,512.3,412.6,512.3,415 M266.8,440.1c-1.6,5.3-5.9,8.9-10.9,8.9c-4.2,0-10.7-4.5-10.7-19.1c0-10.2,3.6-19.8,11.5-19.8
		c10.1,0,11.2,9.4,11.2,17.9C268,433.3,267.7,437.1,266.8,440.1"/>
	<path class="st0" d="M566.8,395.8h-5.8c-5.6,0-8.8-6.3-8.8-9.9c0-2.8,1.4-5.5,4.4-5.5c1.1,0,2.4,0.3,2.9,1.1
		c-1,0.8-1.9,1.8-1.9,2.9c0,1.7,1.8,2.8,3.7,2.8c2.4,0,3.8-0.6,3.8-3.4c0-3.6-3.6-6.5-8.2-6.5c-6.8,0-10.7,4.7-10.7,10
		c0,3.8,2.7,6.9,5.4,8.6h-6.2l-1.4,3.5h22.8V395.8z"/>
	<path class="st0" d="M644.3,415c-14.4,0.1-17.6,9.3-19.8,17.6c-2.3,8.2-4.6,12.1-16.2,12.1h-5.1h-23.5h-10.8
		c0.5-4.3,0.3-5.5,0.3-11.8v-24.4h-7.7c-17.1,0-29.4,11.1-29.4,28.5c0,9.6,8.6,15.5,15.4,15.5h11.6c-3.7,12.7-13,15.8-20.2,17.4
		l-2.4,0.4c3.6,0.3,6.8,0.5,8.2,0.5c8.1,0,18.6-2.4,22.9-18.3h12.1h23.5H614c5.2,0,8.8-1.7,11.2-4.2c3.2,3.7,7.4,8.5,16.6,8.5
		c14.3,0,21.3-10.8,21.3-20.4C663.1,427.2,656.6,415,644.3,415 M549.8,444.7c-5.7,0-8.8-2.5-8.8-8.4c0-14.8,9.5-24.8,18.3-24.8h1.1
		v33.1H549.8z M560.4,444.7L560.4,444.7C560.4,444.6,560.4,444.5,560.4,444.7 M642.1,452.4c-6.3,0-10.4-3.9-13-6.9l-0.9-1.2
		c2-3.8,2.8-7.7,3.9-11.2c2-7.8,4-14.9,10.5-14.9h0.4c7.2,0.3,10.9,9.2,10.9,18.6C653.9,445.9,648.4,452.4,642.1,452.4"/>
	<path class="st0" d="M0.3,568.1v-2.9c4.9-3.7,8.8-6.1,11.7-7.1c-7.6,0-13.7-1.2-18.4-3.7c-4.7-2.5-8.4-6.4-11.2-11.7
		c-2.8-5.3-4.2-11.3-4.2-17.8c0-9.6,3.2-17.6,9.6-23.8s14.8-9.3,25.1-9.3c5.2,0,9.8,0.7,13.9,2.2c4.1,1.5,7.5,3.5,10.2,6
		c2.7,2.6,4.8,5.4,6.2,8.5c1.9,4.2,2.9,8.9,2.9,14.3c0,6.4-1.4,12.2-4,17.4c-2.7,5.2-6.6,9.3-11.7,12.5c-5.2,3.2-11,5-17.4,5.5
		c1.6,0.2,3.1,0.5,4.4,0.8c1.3,0.3,3.2,0.9,5.6,1.9c5.5,2.2,9.4,3.6,11.9,4.3c2.5,0.7,4.7,1,6.4,1c1.2,0,2.8-0.3,4.8-0.9v2.3
		c-0.6,0.4-1.3,0.9-2.2,1.3c-1.6,0.9-2.7,1.6-3.3,2c-0.6,0.4-1.2,0.9-1.8,1.5c-0.4,0-1.4-0.1-2.9-0.3c-1.5-0.2-3.1-0.5-4.7-1
		c-1.6-0.4-4.4-1.3-8.5-2.8c-7.6-2.6-12.3-3.9-14-3.9c-0.6,0-1.2,0.1-1.9,0.3c-0.7,0.2-1.4,0.5-2.2,1L0.3,568.1z M-12.5,522.5
		c0,2.9,0.4,6.1,1.2,9.5c0.8,3.4,1.9,6.4,3.2,9c1.4,2.6,3,4.8,5.1,6.8c2,2,4.3,3.5,6.9,4.6c2.6,1.1,5.7,1.7,9.2,1.7
		c4.8,0,9-1.1,12.6-3.3c3.6-2.2,6.3-5.5,8.1-9.9c1.8-4.4,2.8-9.4,2.8-15c0-4.6-0.6-8.9-1.9-12.8c-1.2-3.9-2.9-7.2-5.1-9.6
		c-2.1-2.5-4.8-4.5-8-5.8c-3.2-1.4-6.8-2.1-10.8-2.1c-7.2,0-12.9,2.3-17.1,6.8C-10.4,506.9-12.5,513.6-12.5,522.5"/>
	<path class="st0" d="M56.7,526.1l-2.4-0.6c0-0.7,0.1-1.6,0.1-2.8c0-1.3,0-2.3-0.1-3c3.8-2.5,6.9-4.2,9.3-5c1.9-0.7,4-1,6.3-1
		c3.4,0,6.3,0.6,8.6,1.9c2.3,1.3,4.1,3.1,5.2,5.5c0.8,1.7,1.2,4,1.2,6.9l-0.2,8.2v13.3c0,1.5,0.1,2.5,0.4,3.1c0.1,0.4,0.4,0.8,0.8,1
		c0.3,0.2,0.9,0.3,1.9,0.3l2.9,0.3v2.5c-2.4-0.2-4.6-0.3-6.5-0.3c-1.8,0-4.2,0.1-7.2,0.3l0.2-7.9c-6.1,4.6-9.7,7.2-10.9,7.8
		c-1.1,0.6-2.6,0.9-4.3,0.9c-3.6,0-6.4-1-8.4-2.9c-2-1.9-3-4.5-3-7.7c0-2.1,0.3-3.9,1-5.6c0.7-1.7,1.6-3.1,2.5-4.1c1-1,2-1.8,3-2.2
		c1.8-0.8,4.6-1.7,8.5-2.6c3.9-0.9,7.8-1.6,11.6-2.1c0-2.8-0.3-5-1-6.6c-0.7-1.6-1.9-2.9-3.6-3.9c-1.7-1-3.8-1.5-6.2-1.5
		c-1.8,0-3.3,0.2-4.6,0.7c-1.4,0.5-2.2,0.9-2.5,1.2l-0.8,1.6C57.7,523.6,57.1,525,56.7,526.1 M77.3,533.1c-3.9,0.7-7.2,1.4-10,2.2
		c-2.8,0.8-4.7,1.7-5.8,2.5c-0.7,0.5-1.3,1.3-1.8,2.3c-0.8,1.5-1.2,3.1-1.2,5c0,2.2,0.6,3.9,1.8,5.2c1.2,1.3,2.9,1.9,5.1,1.9
		c2,0,4-0.6,6-1.8c2-1.1,3.9-2.9,5.9-5.2V533.1z"/>
	<path class="st0" d="M90.4,521.6v-1.9c2.9-1.1,5.2-2.2,6.9-3.1V503c3.1-1.1,5.6-2.3,7.6-3.5l1.1,0.9c-0.3,2.5-0.7,8-1.1,16.4
		c2.4,0,3.8,0,4.3,0c0.3,0,1.8,0,4.6-0.1c1.6,0,2.7-0.1,3.5-0.2l0.3,0.3l-1,4.2c-1.9,0-3.6-0.1-5.2-0.1c-1.6,0-3.7,0-6.6,0.1
		l-0.2,18.3c-0.1,4.5-0.1,7.1,0.1,8c0.1,0.9,0.4,1.6,0.8,2.3c0.4,0.6,1,1.2,1.6,1.5c0.6,0.4,1.8,0.7,3.4,0.9c1.2,0,2.2-0.1,3-0.2
		c0.8-0.1,1.7-0.3,2.9-0.8l0.5,1.8c-1.4,1.1-2.8,2.2-4.1,3.4c-1.1,0.4-2.2,0.7-3.2,0.8c-1,0.1-2.1,0.2-3.4,0.2
		c-1.6,0-2.8-0.2-3.8-0.5c-0.9-0.4-1.8-0.9-2.6-1.5c-0.8-0.7-1.4-1.5-1.9-2.5c-0.5-1-0.9-2.6-1-4.7c0-2,0.1-4.3,0.2-6.7
		c0-0.4,0-1,0-1.6v-18.6h-1.8C93.9,521.4,92.2,521.4,90.4,521.6"/>
	<path class="st0" d="M126.2,526.1l-2.4-0.6c0-0.7,0-1.6,0-2.8c0-1.3,0-2.3,0-3c3.8-2.5,6.9-4.2,9.4-5c1.8-0.7,3.9-1,6.2-1
		c3.4,0,6.3,0.6,8.6,1.9c2.3,1.3,4.1,3.1,5.2,5.5c0.8,1.7,1.2,4,1.2,6.9l-0.2,8.2v13.3c0,1.5,0.1,2.5,0.4,3.1c0.2,0.4,0.5,0.8,0.8,1
		c0.3,0.2,0.9,0.3,1.9,0.3l2.9,0.3v2.5c-2.5-0.2-4.6-0.3-6.5-0.3c-1.8,0-4.2,0.1-7.2,0.3l0.2-7.9c-6.1,4.6-9.7,7.2-10.9,7.8
		c-1.1,0.6-2.6,0.9-4.3,0.9c-3.6,0-6.5-1-8.5-2.9c-2-1.9-3-4.5-3-7.7c0-2.1,0.3-3.9,1-5.6c0.7-1.7,1.5-3.1,2.5-4.1c1-1,2-1.8,3-2.2
		c1.7-0.8,4.6-1.7,8.5-2.6c3.9-0.9,7.8-1.6,11.6-2.1c0-2.8-0.3-5-1-6.6c-0.7-1.6-1.9-2.9-3.6-3.9c-1.7-1-3.8-1.5-6.2-1.5
		c-1.8,0-3.3,0.2-4.6,0.7c-1.4,0.5-2.2,0.9-2.5,1.2l-0.8,1.6C127.2,523.6,126.6,525,126.2,526.1 M146.8,533.1
		c-3.9,0.7-7.2,1.4-10,2.2c-2.8,0.8-4.7,1.7-5.9,2.5c-0.7,0.5-1.3,1.3-1.8,2.3c-0.8,1.5-1.2,3.1-1.2,5c0,2.2,0.6,3.9,1.8,5.2
		c1.2,1.3,2.9,1.9,5.1,1.9c2,0,4-0.6,6-1.8c2-1.1,3.9-2.9,5.8-5.2V533.1z"/>
	<path class="st0" d="M162.7,556.8v-2.5c3.4-0.1,5.2-0.1,5.5-0.2c0.5-0.1,0.9-0.2,1.1-0.4c0.2-0.2,0.4-0.5,0.6-0.8
		c0.3-0.7,0.5-1.8,0.6-3.2c0.1-8,0.2-12.2,0.2-12.5v-5.3c0-2.4-0.1-5-0.2-7.7c0-1.8-0.2-2.8-0.4-3.1c-0.2-0.4-0.6-0.5-1-0.7
		c-0.5-0.2-2.5-0.2-5.9-0.2v-2.5c6-0.8,10.5-1.9,13.2-3.3c0.6-0.3,1-0.5,1.2-0.5c0.2,0,0.4,0.1,0.5,0.2c0.1,0.1,0.2,0.4,0.2,0.7
		c0,0.2,0,0.4,0,0.7c-0.1,1.8-0.2,4.6-0.2,8.5c1.4-1.5,2.6-3.1,3.7-4.6c1.1-1.5,2-2.5,2.5-3c0.9-0.8,2-1.4,3.1-1.9
		c1.2-0.5,2.4-0.7,3.6-0.7c1.3,0,2.5,0.3,3.7,0.8l0.3,0.6c-0.4,4-0.7,7.5-0.8,10.5h-2c-0.7-1.4-1.5-2.5-2.4-3.1
		c-0.9-0.7-2.1-1-3.4-1c-2.3,0-4.3,1-5.9,2.9c-1.6,1.9-2.4,4.8-2.4,8.6v4.6c0,2,0.1,5.6,0.2,10.8c0,1.9,0.1,3,0.2,3.5
		c0.1,0.5,0.3,0.9,0.5,1.1c0.2,0.2,0.5,0.4,1,0.5c0.9,0.3,3.3,0.5,7.3,0.8v2.5c-5.3-0.2-9.8-0.3-13.5-0.3
		C170,556.5,166.3,556.6,162.7,556.8"/>
	<path class="st0" d="M218.2,495.9V493c4.6,0.2,8.4,0.3,11.6,0.3c2.2,0,6.3-0.1,12.1-0.2c5.8-0.1,9.7-0.2,11.8-0.2
		c2.2,0,4.2,0,6,0.1c1.8,0,3.4,0.1,4.9,0.2c-0.7,2.6-1.2,7.1-1.4,13.6h-2.8c-0.3-3.6-0.7-6.4-1.1-8.4c-1.6-0.5-3.5-0.9-5.8-1.2
		c-2.3-0.2-4.9-0.4-8-0.4c-3,0-6.1,0.2-9.4,0.5c-0.2,1.6-0.3,3.1-0.4,4.5c0,0.8-0.1,4.3-0.2,10.3v10c3.3,0.1,6.3,0.1,8.9,0.1
		c3.8,0,6.8-0.2,9.1-0.6c0.9-0.2,1.4-0.4,1.7-0.8c0.3-0.3,0.5-1.6,0.8-3.8l0.4-2.8h2.8l-0.3,10.3l0.3,11h-2.8l-0.3-2.9
		c-0.3-3.3-0.6-5-0.7-5.2c-0.2-0.4-0.8-0.8-1.7-1c-1.7-0.4-5.6-0.5-11.6-0.5c-2.1,0-4.3,0-6.6,0.2v9.1c0,4.1,0.1,8.1,0.2,11.9
		c0.1,2.9,0.3,4.5,0.6,5.1c0.3,0.5,0.9,0.9,1.7,1.2s2.9,0.4,6.5,0.5v2.9c-3.8-0.2-7.6-0.3-11.4-0.3c-3.4,0-8.3,0.1-14.8,0.3v-2.9
		c3.5-0.1,5.7-0.2,6.4-0.5c0.8-0.2,1.3-0.6,1.6-1.1c0.3-0.6,0.6-2,0.7-4.3c0-0.7,0.1-4.9,0.2-12.8v-20.8c0-4.1-0.1-8.1-0.2-11.9
		c-0.1-2.9-0.3-4.5-0.6-5.1c-0.4-0.5-0.9-0.9-1.7-1.2C224,496.1,221.8,496,218.2,495.9"/>
	<path class="st0" d="M266.5,536.1c0-6.7,2.1-12.2,6.4-16.4c4.3-4.3,9.7-6.4,16.4-6.4c6.3,0,11.4,2,15.4,5.9c4,3.9,5.9,9,5.9,15.3
		c0,4.4-1,8.4-3,12c-2.1,3.6-4.9,6.5-8.6,8.5c-3.7,2-7.8,3.1-12.3,3.1c-3.5,0-6.4-0.6-8.8-1.8c-2.4-1.2-4.4-2.6-5.9-4.4
		c-1.5-1.8-2.6-3.6-3.4-5.4C267.2,543.4,266.5,539.9,266.5,536.1 M275,532.8c0,3.7,0.6,7.4,1.8,11.2c1.3,3.8,3,6.6,5.3,8.3
		c2.3,1.8,4.8,2.6,7.6,2.6c3.5,0,6.4-1.4,8.7-4.1c2.3-2.8,3.5-7,3.5-12.7c0-4.8-0.7-8.9-2.1-12.3c-1.4-3.5-3.2-5.9-5.3-7.3
		c-2.2-1.5-4.5-2.2-7.2-2.2c-3.7,0-6.6,1.3-8.9,4C276.1,523,275,527.2,275,532.8"/>
	<path class="st0" d="M364.9,554.3v2.5c-3.9-0.2-6.9-0.3-8.9-0.3c-2.2,0-4.5,0.1-6.7,0.3c0.2-2.4,0.3-5.2,0.4-8.2
		c-1.8,1.4-3.9,3.4-6.4,5.9c-0.5,0.6-1.1,1-1.6,1.3c-1.3,0.7-2.6,1.2-3.9,1.6c-1.3,0.3-2.8,0.5-4.6,0.5c-2.4,0-4.5-0.4-6.1-1
		c-1.6-0.6-3-1.7-4.2-3c-0.9-1-1.5-2.3-2-3.8c-0.5-1.6-0.7-3.5-0.7-5.7c0-1,0-2,0.1-3c0.1-0.9,0.1-1.8,0.1-2.7v-7.7
		c0-0.8-0.1-2.7-0.1-5.9c-0.1-2-0.2-3.3-0.4-3.9c-0.1-0.3-0.3-0.5-0.6-0.7c-0.4-0.3-1.2-0.4-2.4-0.4c-1.6,0-2.9,0-3.9-0.1v-2.5
		c6.4-0.7,11.1-1.9,14-3.5c0.5-0.3,0.9-0.4,1.1-0.4c0.2,0,0.4,0.1,0.5,0.2c0.1,0.1,0.2,0.4,0.2,0.7c0,0.2,0,0.5,0,0.9
		c-0.1,0.9-0.2,2.8-0.3,5.5c-0.2,5-0.3,8.4-0.3,10.1v8.7c0,3.7,0.2,6.2,0.7,7.7c0.5,1.5,1.5,2.7,2.9,3.5c1.4,0.9,3.2,1.3,5.3,1.3
		c1.4,0,2.9-0.3,4.3-0.7c1.4-0.5,2.7-1.2,3.8-2.2c0.8-0.7,1.7-1.6,2.6-2.8c0.7-0.9,1.1-1.5,1.3-2c0.2-0.5,0.3-1.2,0.4-2.1
		c0.2-2.6,0.2-5.2,0.2-7.9v-3.8c0-0.8-0.1-2.7-0.1-5.9c-0.1-2-0.2-3.3-0.4-3.9c-0.1-0.3-0.3-0.5-0.6-0.7c-0.4-0.3-1.2-0.4-2.4-0.4
		c-1.6,0-2.9,0-3.9-0.1v-2.5c6.4-0.7,11.1-1.9,14-3.5c0.5-0.3,0.9-0.4,1.1-0.4c0.2,0,0.4,0.1,0.5,0.2c0.1,0.1,0.2,0.4,0.2,0.7
		c0,0.2,0,0.5,0,0.9c-0.1,0.9-0.2,2.9-0.3,5.7c-0.2,4.9-0.3,8.2-0.3,9.9v6.1l0.1,6.2c0.1,3.6,0.2,5.8,0.2,6.4c0,1.5,0.2,2.6,0.5,3.3
		c0.1,0.3,0.3,0.5,0.6,0.7c0.2,0.2,0.6,0.3,1.1,0.5C360.2,554.1,361.8,554.2,364.9,554.3"/>
	<path class="st0" d="M366.7,556.8v-2.5l4.3-0.1c0.6,0,1.1-0.1,1.5-0.3c0.4-0.2,0.6-0.4,0.8-0.7c0.3-0.6,0.5-1.7,0.6-3.2
		c0-0.4,0-4.7,0.2-12.9v-5.3c0-2.4,0-5-0.2-7.7c0-1.8-0.2-2.8-0.4-3.1c-0.2-0.4-0.5-0.5-1-0.7c-0.5-0.2-2.4-0.2-5.8-0.2v-2.5
		c6-0.8,10.4-1.9,13.2-3.3c0.6-0.3,1-0.5,1.2-0.5c0.2,0,0.4,0.1,0.5,0.2c0.1,0.1,0.2,0.4,0.2,0.7c0,0.2,0,0.4-0.1,0.7
		c-0.1,1.1-0.2,3.3-0.3,6.8l8.4-7.1c2.5-0.9,4.8-1.4,7-1.4c2.4,0,4.7,0.5,6.9,1.5c2.2,1,3.8,2.2,4.9,3.7c1.1,1.5,1.8,3.4,2.2,5.7
		c0.2,1.4,0.3,5.1,0.3,11.3v8c0,3.9,0.1,6.5,0.3,7.9c0.1,0.9,0.4,1.5,0.7,1.9c0.3,0.3,0.8,0.6,1.5,0.7l4.8,0.1v2.5
		c-2.9-0.2-5.4-0.3-7.3-0.3c-1.7,0-4.5,0.1-8.4,0.3c0.4-7.4,0.6-12.1,0.6-14v-7.5c0-4.7-0.2-7.8-0.6-9.3c-0.5-2-1.7-3.6-3.4-4.8
		c-1.8-1.2-4-1.8-6.5-1.8c-2.2,0-4.3,0.5-6.1,1.6c-1.9,1.1-3.2,2.3-4,3.7c-0.8,1.4-1.2,3.7-1.2,7v5.4c0.2,7.8,0.2,12,0.2,12.6
		c0.1,1.5,0.3,2.6,0.6,3.3c0.1,0.3,0.3,0.5,0.5,0.7c0.2,0.2,0.6,0.3,1.1,0.5c0.2,0,1.9,0.1,5,0.1v2.5c-3.7-0.2-7-0.3-10-0.3
		C376.5,556.5,372.4,556.6,366.7,556.8"/>
	<path class="st0" d="M445.8,495.8v-2.6c3.3-0.4,6.1-0.8,8.4-1.3c2.3-0.5,4.5-1.1,6.7-1.8l0.6,0.4c-0.1,2.6-0.2,7.5-0.4,14.7
		l-0.2,7.2v28.1c0,3.1,0,5.7,0.1,7.9c0.1,2.2,0.3,3.5,0.6,4c0.3,0.4,0.7,0.8,1.3,1c0.6,0.3,2.5,0.5,5.6,0.8v2.4
		c-3.6-0.2-6.2-0.3-7.7-0.3c-1.3,0-3.9,0.1-7.9,0.3c0.1-2.1,0.1-4.8,0.2-8.3c-1.2,0.9-2.8,2.2-4.8,3.9c-2,1.7-3.6,3.1-4.7,4.3
		c-2.4,0.6-4.5,0.9-6.4,0.9c-3.4,0-6.5-0.8-9.3-2.5c-2.8-1.7-5-4.1-6.6-7.3c-1.5-3.2-2.3-6.8-2.3-10.8c0-3,0.5-5.8,1.4-8.5
		c0.9-2.7,2.1-4.7,3.6-6.2c0.8-0.8,2.7-2.1,5.5-3.8c2.9-1.7,5.2-2.9,7-3.7c1.8-0.8,3.7-1.1,5.8-1.1c1.9,0,3.7,0.2,5.5,0.7
		c1.8,0.5,3.6,1.2,5.3,2.1v-11.8c0-4.2-0.2-6.7-0.5-7.6c-0.1-0.3-0.3-0.6-0.7-0.7C451.4,496,449.4,495.9,445.8,495.8 M453.2,524.1
		c-2-2.2-4.2-3.9-6.4-4.9c-2.2-1-4.4-1.5-6.6-1.5c-2.5,0-4.7,0.6-6.8,1.9c-2.1,1.3-3.6,3.2-4.7,5.7c-1.1,2.5-1.6,5.6-1.6,9.1
		c0,5.5,1.4,9.7,4.1,12.8c2.7,3.1,6,4.6,9.8,4.6c2,0,3.8-0.4,5.4-1.3c1.6-0.8,3-2.1,4.2-3.7c1.2-1.6,1.9-3.4,2.3-5.4
		c0.2-1.3,0.3-4.6,0.3-9.7V524.1z"/>
	<path class="st0" d="M479.4,526.1l-2.4-0.6c0-0.7,0-1.6,0-2.8c0-1.3,0-2.3,0-3c3.8-2.5,6.9-4.2,9.3-5c1.9-0.7,4-1,6.3-1
		c3.4,0,6.3,0.6,8.6,1.9c2.3,1.3,4.1,3.1,5.2,5.5c0.8,1.7,1.2,4,1.2,6.9l-0.2,8.2v13.3c0,1.5,0.1,2.5,0.4,3.1c0.2,0.4,0.5,0.8,0.8,1
		c0.3,0.2,0.9,0.3,1.9,0.3l2.9,0.3v2.5c-2.4-0.2-4.6-0.3-6.5-0.3c-1.8,0-4.2,0.1-7.2,0.3l0.2-7.9c-6.1,4.6-9.7,7.2-10.9,7.8
		c-1.1,0.6-2.6,0.9-4.3,0.9c-3.6,0-6.4-1-8.5-2.9c-2-1.9-3-4.5-3-7.7c0-2.1,0.4-3.9,1-5.6c0.7-1.7,1.6-3.1,2.5-4.1c1-1,2-1.8,3-2.2
		c1.7-0.8,4.6-1.7,8.4-2.6c3.9-0.9,7.8-1.6,11.6-2.1c0.1-2.8-0.3-5-1-6.6c-0.7-1.6-1.9-2.9-3.6-3.9c-1.7-1-3.8-1.5-6.2-1.5
		c-1.8,0-3.3,0.2-4.6,0.7c-1.4,0.5-2.2,0.9-2.5,1.2l-0.8,1.6C480.4,523.6,479.8,525,479.4,526.1 M500,533.1c-3.9,0.7-7.2,1.4-10,2.2
		c-2.7,0.8-4.7,1.7-5.8,2.5c-0.7,0.5-1.3,1.3-1.8,2.3c-0.8,1.5-1.2,3.1-1.2,5c0,2.2,0.6,3.9,1.9,5.2c1.2,1.3,2.9,1.9,5.1,1.9
		c2,0,4-0.6,5.9-1.8c2-1.1,3.9-2.9,5.9-5.2V533.1z"/>
	<path class="st0" d="M512.5,521.6v-1.9c2.9-1.1,5.1-2.2,6.9-3.1V503c3.1-1.1,5.6-2.3,7.6-3.5l1.1,0.9c-0.3,2.5-0.7,8-1.1,16.4
		c2.4,0,3.8,0,4.3,0c0.3,0,1.8,0,4.6-0.1c1.6,0,2.7-0.1,3.5-0.2l0.3,0.3l-0.9,4.2c-1.9,0-3.6-0.1-5.2-0.1c-1.6,0-3.8,0-6.6,0.1
		l-0.2,18.3c-0.1,4.5-0.1,7.1,0.1,8c0.1,0.9,0.4,1.6,0.8,2.3c0.4,0.6,1,1.2,1.6,1.5c0.7,0.4,1.8,0.7,3.4,0.9c1.2,0,2.2-0.1,3-0.2
		c0.7-0.1,1.7-0.3,2.9-0.8l0.5,1.8c-1.4,1.1-2.8,2.2-4.1,3.4c-1.1,0.4-2.2,0.7-3.2,0.8c-1,0.1-2.1,0.2-3.4,0.2
		c-1.6,0-2.8-0.2-3.8-0.5c-1-0.4-1.8-0.9-2.6-1.5c-0.8-0.7-1.4-1.5-2-2.5c-0.5-1-0.8-2.6-1-4.7c0-2,0.1-4.3,0.2-6.7
		c0-0.4,0.1-1,0.1-1.6v-18.6h-1.8C516,521.4,514.4,521.4,512.5,521.6"/>
	<path class="st0" d="M543.9,519.9v-2.6c5.8-0.7,10.7-1.9,14.6-3.8l1,0.7c-0.2,6.4-0.4,11.2-0.4,14.6v8.2c0.2,7.8,0.3,12,0.3,12.6
		c0,1.5,0.2,2.6,0.5,3.3c0.1,0.3,0.3,0.5,0.6,0.7c0.2,0.2,0.6,0.3,1.1,0.5c0.2,0,1.8,0.1,5,0.2v2.5c-4.6-0.2-8.2-0.3-10.9-0.3
		c-2.4,0-6.3,0.1-11.8,0.3v-2.5l4.3-0.1c0.6,0,1.1-0.1,1.5-0.3c0.3-0.2,0.6-0.4,0.8-0.7c0.3-0.6,0.6-1.7,0.6-3.2
		c0-0.4,0.1-4.7,0.3-12.9v-7.9c0-4.5-0.2-7.1-0.5-7.9c-0.2-0.4-0.5-0.8-1-1C549.4,520,547.4,519.9,543.9,519.9 M554.9,493.6
		c1.4,0,2.6,0.5,3.5,1.5c1,1,1.5,2.2,1.5,3.6c0,1.4-0.5,2.6-1.5,3.5c-1,1-2.2,1.5-3.5,1.5c-1.4,0-2.6-0.5-3.6-1.5
		c-1-1-1.5-2.2-1.5-3.5c0-1.4,0.5-2.6,1.5-3.6C552.2,494.1,553.5,493.6,554.9,493.6"/>
	<path class="st0" d="M566.6,536.1c0-6.7,2.1-12.2,6.4-16.4c4.3-4.3,9.7-6.4,16.4-6.4c6.3,0,11.4,2,15.3,5.9c3.9,3.9,5.9,9,5.9,15.3
		c0,4.4-1,8.4-3.1,12c-2,3.6-4.9,6.5-8.6,8.5c-3.7,2-7.8,3.1-12.3,3.1c-3.5,0-6.4-0.6-8.8-1.8c-2.4-1.2-4.4-2.6-5.9-4.4
		c-1.5-1.8-2.6-3.6-3.4-5.4C567.3,543.4,566.6,539.9,566.6,536.1 M575.1,532.8c0,3.7,0.6,7.4,1.9,11.2c1.2,3.8,3,6.6,5.3,8.3
		c2.3,1.8,4.8,2.6,7.6,2.6c3.5,0,6.4-1.4,8.7-4.1c2.3-2.8,3.5-7,3.5-12.7c0-4.8-0.7-8.9-2.1-12.3c-1.4-3.5-3.1-5.9-5.3-7.3
		c-2.2-1.5-4.5-2.2-7.1-2.2c-3.7,0-6.7,1.3-9,4C576.2,523,575.1,527.2,575.1,532.8"/>
	<path class="st0" d="M612.4,556.8v-2.5l4.3-0.1c0.6,0,1.1-0.1,1.5-0.3c0.3-0.2,0.6-0.4,0.8-0.7c0.3-0.6,0.6-1.7,0.6-3.2
		c0-0.4,0.1-4.7,0.2-12.9v-5.3c0-2.4,0-5-0.1-7.7c-0.1-1.8-0.2-2.8-0.4-3.1c-0.2-0.4-0.5-0.5-1-0.7c-0.5-0.2-2.4-0.2-5.8-0.2v-2.5
		c6-0.8,10.5-1.9,13.3-3.3c0.6-0.3,1-0.5,1.2-0.5c0.2,0,0.3,0.1,0.5,0.2c0.1,0.1,0.2,0.4,0.2,0.7c0,0.2,0,0.4-0.1,0.7
		c-0.1,1.1-0.2,3.3-0.3,6.8l8.4-7.1c2.5-0.9,4.8-1.4,7-1.4c2.4,0,4.7,0.5,6.9,1.5c2.2,1,3.8,2.2,4.9,3.7c1.1,1.5,1.8,3.4,2.2,5.7
		c0.2,1.4,0.3,5.1,0.3,11.3v8c0,3.9,0.1,6.5,0.3,7.9c0.2,0.9,0.4,1.5,0.7,1.9c0.3,0.3,0.8,0.6,1.5,0.7l4.8,0.1v2.5
		c-2.9-0.2-5.4-0.3-7.3-0.3c-1.7,0-4.5,0.1-8.4,0.3c0.4-7.4,0.6-12.1,0.6-14v-7.5c0-4.7-0.2-7.8-0.5-9.3c-0.5-2-1.7-3.6-3.4-4.8
		c-1.8-1.2-4-1.8-6.5-1.8c-2.2,0-4.3,0.5-6.1,1.6c-1.9,1.1-3.2,2.3-4,3.7c-0.8,1.4-1.2,3.7-1.2,7v5.4c0.1,7.8,0.2,12,0.2,12.6
		c0.1,1.5,0.3,2.6,0.6,3.3c0.1,0.3,0.3,0.5,0.5,0.7c0.2,0.2,0.6,0.3,1.1,0.5c0.2,0,1.8,0.1,5,0.1v2.5c-3.6-0.2-7-0.3-9.9-0.3
		C622.2,556.5,618.1,556.6,612.4,556.8"/>
</g>
</svg>
