<?xml version="1.0" encoding="utf-8"?>
<!-- Generator: Adobe Illustrator 24.0.0, SVG Export Plug-In . SVG Version: 6.00 Build 0)  -->
<svg version="1.1" id="Layer_1" xmlns="http://www.w3.org/2000/svg" xmlns:xlink="http://www.w3.org/1999/xlink" x="0px" y="0px"
	 viewBox="0 0 503 163.8" style="enable-background:new 0 0 503 163.8;" xml:space="preserve">
<style type="text/css">
	.st0{fill:#003478;}
</style>
<g>
	<path class="st0" d="M503,74.7c-4.2,0.2-8.3,0.6-12.4,1.5c-1.1,0.2-2.2,0.5-3.5,0.9c-0.2-0.1-0.6-0.2-1.1-0.4c0-1.3,0-2.5,0-4
		c-0.5,0.3-0.9,0.5-1.2,0.7c-4.1,2.6-8.5,4-13.4,3.8c-2.7-0.1-5.4-0.6-7.9-1.6c-6.2-2.5-10.1-7.2-11.9-13.5c-2-7-1.6-14.1,1.2-20.8
		c3.1-7.3,8.7-11.7,16.4-13.6c3.6-0.9,7.2-1,10.9-0.6c1.5,0.1,3.1,0.4,4.6,0.6c0.3,0,0.6,0,0.9,0c0-0.3,0.1-0.6,0.1-0.9
		c-0.1-5.4-0.1-10.8-0.2-16.2c0-0.7-0.1-1.4-0.2-2.1c-0.4-1.9-1.1-2.7-3-3c-0.9-0.2-1.8-0.3-2.7-0.4c0-0.7,0-1.3,0-2
		c0.7-0.1,1.5-0.1,2.2-0.2c4.7-0.4,9.3-1.1,13.8-2.3c0.5-0.1,0.9-0.1,1.3,0.3c0,0.2,0,0.5,0,0.9c-0.1,4-0.3,8-0.3,12
		c0,16.4,0,32.9,0,49.3c0,1.8,0.2,3.6,0.3,5.4c0.1,1.9,1.2,3.1,3,3.5c1,0.2,2.1,0.3,3.2,0.4C503,73.1,503,73.9,503,74.7z
		 M485.7,35.8c-1-1-2.1-1.7-3.4-2.2c-3.2-1.2-6.4-1.4-9.8-0.8c-3.6,0.7-6.2,2.7-7.9,5.9c-0.6,1.2-1.1,2.5-1.5,3.7
		c-0.9,2.8-1.1,5.8-1.2,8.7c-0.1,3.9,0.4,7.7,2.1,11.2c1.7,3.5,4.4,5.9,8.1,7c3.1,0.9,6.3,1.1,9.5,0.4c1.5-0.3,2.8-0.8,4.1-1.6
		C485.7,57.4,485.7,46.6,485.7,35.8z"/>
	<path class="st0" d="M0,130.2c0-9.5,0-18.8,0-28.4c1.9-0.1,3.8,0,5.6,0c1.9,0,3.8,0,5.7,0c1.9,0,3.8,0,5.7,0s3.8,0,5.7,0
		c1.9,0,3.8,0,5.5,0c0.6-0.7,1.1-1.4,1.7-1.9c0.6-0.5,1.3-0.7,2-1.3c-0.2,0-0.4-0.1-0.6-0.1c-0.6,0-1.2,0.1-1.8,0.1
		c-1.7,0-2.4-1-2.2-2.6c0-0.2,0-0.3,0-0.6c-2.8,0-5.6,0-8.2,0C12.6,89.1,6.3,82.8,0,76.5C0,58.1,0,39.6,0,21
		C7.1,14.2,14.3,7.3,21.4,0.4c18.9,0,37.9,0,56.9,0c7.2,6.9,14.3,13.8,21.4,20.6c0,10.4,0,20.6,0,31c-9.4,0-18.8,0-28.2,0
		c-0.1,0.5-0.1,0.9-0.2,1.3c-0.4,1.5-1.7,2.2-3.2,1.8c-0.8-0.2-1.7-0.4-2.5-0.5c-1.9-0.2-3.8-0.4-5.8-0.7c0.3,0.4,0.6,0.7,0.9,1
		c0.4,0.4,0.8,0.8,1.3,1.1c1.8,1.4,3.6,2.3,6.1,2.1c3.9-0.2,7.8-0.1,11.7-0.1c0.4,0,0.9,0,1.2,0c6.3,6.3,12.6,12.6,18.9,18.9
		c0,17.5,0,35.2,0,53.1c-7.1,6.9-14.3,13.8-21.5,20.7c-18.9,0-37.8,0-56.7,0C14.4,144,7.2,137.1,0,130.2z M22.5,2.9
		c-6.7,6.4-13.4,12.8-20,19.2c0,17.9,0,35.7,0,53.4C8.3,81.3,14.1,87,20.1,93c2.9,0,6.2,0,9.4,0c-0.5,1-0.9,1.8-1.3,2.8
		c-0.5,1.3,0,2.1,1.4,2.1c0.9,0,1.9-0.1,2.8-0.3c1.5-0.3,3-0.8,4.4-1.6c0.8-0.5,1.1-0.4,1.9,0.3c-0.3,0.9-0.9,1.6-1.7,2.1
		c-1.1,0.9-2.5,1.2-3.9,1.5c-0.9,0.2-1.9,0.4-2.7,0.8c-1.2,0.6-1.4,1.8-0.6,2.9c0.2,0.2,0.4,0.4,0.7,0.8c-9.4,0-18.7,0-28,0
		c0,8.3,0,16.6,0,24.9c6.6,6.4,13.3,12.8,19.9,19.2c18.4,0,36.6,0,54.8,0c6.7-6.4,13.3-12.8,19.9-19.2c0-17.2,0-34.2,0-51
		c-5.9-5.9-11.6-11.6-17.4-17.4c-0.3,0-0.7,0-1.2,0c-3.4,0-6.8,0-10.2,0c-0.4,0-0.9,0-1.3-0.2c-1.7-1-3.3-2-4.9-3
		c-1.6-1-2.9-2.4-3.9-4c-0.2-0.3-0.3-0.7-0.5-1.1c1.3,0.4,2.3,0.7,3.4,0.9c1.1,0.2,2.3,0.4,3.4,0.5c1.4,0.2,2.8,0.2,4.1,0.6
		c1.2,0.4,2.3-0.8,1.9-2.1c-0.1-0.5-0.4-0.9-0.7-1.3c-0.2-0.4-0.5-0.8-0.9-1.3c4.9,0,9.5,0,14.2,0c4.7,0,9.3,0,14,0
		c0-9.3,0-18.4,0-27.5C90.5,15.7,83.9,9.3,77.3,2.9C58.9,2.9,40.7,2.9,22.5,2.9z"/>
	<path class="st0" d="M319.8,74.3c0,0.7,0,1.3,0,2.1c-8-0.5-15.9-0.7-23.9,0c0-0.7,0-1.3,0-2.1c0.7-0.2,1.5-0.3,2.2-0.5
		c2.2-0.5,3.6-1.9,3.9-4.2c0.3-2.6,0.6-5.3,0.6-8c0-5.7,0-11.3-0.2-17c0-1.5-0.3-2.9-0.6-4.4c-0.9-3.8-3.4-6.1-7.2-6.6
		c-3.8-0.5-7.6-0.1-11.2,1.5c-0.2,0.1-0.3,0.2-0.6,0.3c0,0.4-0.1,0.7-0.1,1.1c0,8.8,0,17.6,0,26.4c0,2.1,0.1,4.3,0.4,6.4
		c0.3,2.8,1.6,4,4.4,4.5c0.5,0.1,1,0.2,1.7,0.2c0,0.7,0,1.3,0,2.1c-7.9-0.4-15.9-0.8-23.9,0.1c0-0.7,0-1.4,0-2.1
		c0.4-0.1,0.9-0.2,1.4-0.3c3-0.5,4.6-2.1,4.9-5.1c0.3-2.5,0.4-5.1,0.4-7.6c0-7.5,0-14.9-0.1-22.4c0-1-0.1-2-0.3-3.1
		c-0.2-1.5-1.1-2.5-2.6-2.9c-1.1-0.3-2.3-0.4-3.5-0.6c0-0.8,0-1.6,0-2.5c5.5-0.1,11-0.3,16.1-2.8c0.3,0.2,0.5,0.3,0.9,0.6
		c0,1.1,0,2.3,0,3.7c0.4-0.2,0.7-0.3,0.9-0.4c4.5-3,9.5-4.4,14.9-4c2,0.1,4,0.5,5.9,1.2c5.2,2.1,8,6.1,8.7,11.5
		c0.3,2.7,0.4,5.5,0.4,8.2c0.1,5.9,0,11.8,0.1,17.7c0,1.3,0.1,2.5,0.3,3.8c0.4,2.9,1.7,4.3,4.6,4.7
		C318.8,74.1,319.3,74.2,319.8,74.3z"/>
	<path class="st0" d="M173.2,7.9c0,4.7,0,9.3,0,14c-0.7,0-1.4,0-2.2,0c-0.1-0.4-0.1-0.9-0.2-1.3c-0.2-1-0.4-2.1-0.8-3.1
		c-0.6-1.6-1.8-2.8-3.4-3.6c-1.5-0.7-3.1-1.1-4.7-1.3c-3.3-0.4-6.5-0.5-9.8,0.3c-0.6,0.2-1.2,0.3-1.7,0.6c-2.8,1.2-4.4,3.4-4.8,6.5
		c-0.1,0.4-0.1,0.8-0.1,1.2c-0.3,3.7,1,6.7,4,8.9c1.2,0.9,2.4,1.8,3.6,2.6c3.6,2.4,7.3,4.8,10.9,7.3c1.5,1,2.9,2.1,4.2,3.2
		c4.1,3.4,6,7.9,6.1,13.2c0.1,2.4-0.1,4.8-0.8,7.1c-1.6,5.5-5.3,9.1-10.6,11.2c-2.8,1.1-5.7,1.7-8.7,1.9c-6.5,0.4-12.9-0.1-19.1-2.1
		c-0.2-0.1-0.4-0.1-0.6-0.2c-0.1,0-0.1-0.1-0.2-0.2c-0.1-4.5-0.2-9.1-0.3-13.8c0.8,0,1.6,0,2.6,0c0,0.2,0.1,0.6,0.1,0.9
		c0.1,0.8,0.2,1.7,0.5,2.5c0.6,2.5,2.1,4.2,4.4,5.3c1.9,0.9,3.8,1.4,5.9,1.7c2.9,0.3,5.9,0.3,8.8-0.5c4.8-1.3,7.3-4.4,7.6-9.5
		c0.2-3.7-0.9-7-3.8-9.5c-1.3-1.1-2.7-2.2-4.1-3.2c-3-2.1-6.1-4.1-9.2-6.2c-1.8-1.3-3.6-2.7-5.4-4.1c-7.4-6.2-6.9-15.8-4.1-21.5
		c2.1-4.1,5.4-6.7,9.7-8.2c2.4-0.8,4.9-1.3,7.5-1.4c4-0.2,8,0,11.9,0.3c1.7,0.2,3.4,0.4,5.1,0.6C172.1,7.7,172.6,7.8,173.2,7.9z"/>
	<path class="st0" d="M357.9,52.6c0-5.3,1.1-10.4,3.8-15c3.6-6.1,9-9.5,15.9-10.6c4.4-0.7,8.7-0.5,13,0.7c6.8,2,11.5,6.3,13.8,12.9
		c2.7,7.9,2.5,15.7-0.9,23.4c-3.4,7.6-9.4,11.8-17.6,12.9c-4,0.6-8,0.4-12-0.6c-8.2-2.2-13.1-7.7-15.2-15.8
		C358.1,57.9,357.9,55.3,357.9,52.6z M394.7,51.6c0-2.1-0.2-4.7-0.8-7.2c-0.6-2.7-1.5-5.3-3.1-7.7c-4.1-6.1-13.8-6-17.7,0
		c-1.3,2-2.3,4.2-2.8,6.5c-1.1,5-1.3,10-0.4,15c0.5,2.9,1.3,5.7,2.8,8.2c1.9,3.1,4.7,5,8.4,5.3c3.8,0.2,7-0.8,9.4-4
		c1.4-1.8,2.3-3.8,2.9-5.9C394.4,58.6,394.7,55.4,394.7,51.6z"/>
	<path class="st0" d="M243.5,71.9c-0.3,0.3-0.6,0.5-0.8,0.7c-3.6,3.2-7.8,4.4-12.5,4.1c-1.5-0.1-3.1-0.4-4.6-0.8
		c-4.1-1.2-6.7-4-7.8-8.1c-0.7-2.6-0.7-5.2-0.1-7.8c0.7-3,2.3-5.5,5-7.2c1.4-0.9,2.9-1.7,4.5-2.2c4.9-1.7,9.8-3.3,14.7-4.9
		c0.4-0.1,0.8-0.3,1.2-0.4c0-2,0.1-4-0.3-5.9c-0.8-3.5-3.1-5.6-6.6-6.3c-4.2-0.9-9.5,0.2-12.5,5.7c-0.7-0.4-1.4-0.8-2.3-1.3
		c0.2-0.5,0.3-1,0.5-1.5c1.8-4.2,5.1-7,9.4-8.4c4.6-1.5,9.2-1.4,13.8,0c4.6,1.5,7.5,4.7,8.3,9.5c0.4,2.2,0.6,4.5,0.5,6.7
		c0,6.6-0.2,13.3-0.3,19.9c0,1.4,0,2.9,0.5,4.2c0.8,2.1,2.9,2.8,4.7,1.5c0.2-0.1,0.4-0.3,0.6-0.4c0.2,0.1,0.3,0.2,0.4,0.3
		c0.4,0.4,0.7,0.8,1,1.2c-2.2,4.4-7.7,7-12.3,5.9c-2.3-0.5-3.9-1.8-4.8-4C243.7,72.4,243.6,72.2,243.5,71.9z M242.9,51.5
		c-2.9,0.6-8.8,2.8-11.2,4.2c-1.4,0.8-2.4,2-3,3.5c-0.7,1.7-0.9,3.5-0.7,5.3c0.5,3.3,2.6,5.3,5.9,5.6c1.9,0.2,3.9,0,5.7-0.6
		c1.2-0.4,2.3-0.8,3.2-1.6C242.9,62.4,242.9,57,242.9,51.5z"/>
	<path class="st0" d="M332.6,33.9c-2.2,0-4.2,0-6.3,0c0-0.9,0-1.7,0-2.6c2.1-1,4.3-1.8,6.3-3.4c0-1,0-1.9,0-2.9
		c0-3.4,0.1-6.9,0.8-10.3c0.2-1,0.5-2.1,0.8-3.1c2.2-6.3,6.6-9.9,13.1-11.1c4.4-0.8,8.8-0.8,13.1,0.9c1.3,0.5,2.6,1.3,3.8,2
		c0.7,0.4,0.7,0.5,0.9,1.6c-1.5,2.1-3.1,4.3-4.7,6.6c-0.3,0-0.7,0.1-1,0.1c-0.1-0.1-0.2-0.2-0.3-0.3c-0.5-0.9-0.9-1.8-1.5-2.7
		c-2.5-3.6-7.1-4.1-10.3-2.6c-1.5,0.7-2.4,1.9-2.9,3.3c-0.4,1.1-0.7,2.3-0.7,3.5c-0.1,4.8-0.2,9.7-0.2,14.5c0,0.1,0.1,0.2,0.1,0.5
		c3.5,0,7,0,10.6,0c0.1,2,0,3.9,0,6c-3.6,0-7.1,0-10.7,0c0,0.5-0.1,0.9-0.1,1.3c0,9.2,0,18.4,0,27.5c0,2.2,0.2,4.5,0.4,6.7
		c0.1,2.1,1.3,3.3,3.3,3.8c0.8,0.2,1.7,0.4,2.5,0.5c0.8,0.1,1.6,0.1,2.5,0.2c0,0.8,0,1.5,0,2.4c-8.7-0.5-17.4-0.7-26.2,0
		c0-0.3-0.1-0.6-0.1-0.9c0-0.4,0-0.8,0-1.2c0.9-0.2,1.6-0.3,2.4-0.5c2.2-0.6,3.6-1.9,3.9-4.2c0.2-1.4,0.4-2.8,0.4-4.2
		c0.1-5.5,0.1-11.1,0.1-16.6c0-4.5,0-8.9,0-13.4C332.6,35,332.6,34.5,332.6,33.9z"/>
	<path class="st0" d="M185.1,34c-2.2,0-4.2,0-6.3,0c0-0.7,0-1.2,0-1.9c7.3-2.6,11.4-8.4,14.9-14.9c0.4,0,0.7-0.1,1-0.1
		c0.3,0,0.6,0,1.1,0.1c0,3.6,0,7.1,0,10.8c5.5,0,10.9,0,16.4,0c0,2,0,3.9,0,6c-5.4,0-10.8,0-16.3,0c0,0.5-0.1,0.9-0.1,1.2
		c0,8.4,0,16.7,0,25.1c0,2,0.1,3.9,0.7,5.8c0.9,3.2,2.7,4.8,6,5.3c2.7,0.4,5.2,0,7.7-1.1c0.4-0.2,0.7-0.3,1.2-0.5
		c0.3,0.6,0.5,1.2,0.8,1.8c-0.3,0.3-0.6,0.7-0.9,1c-2.4,2.4-5.4,3.7-8.7,4.2c-2.9,0.5-5.7,0.4-8.6-0.3c-5.2-1.2-8-4.8-8.8-9.9
		c-0.3-2.1-0.4-4.3-0.4-6.5c0-8.2,0.1-16.4,0.1-24.6C185.1,35.1,185.1,34.6,185.1,34z"/>
	<path class="st0" d="M411.2,32.4c0-0.9,0-1.7,0-2.6c0.3,0,0.5-0.1,0.7-0.1c5.1-0.1,10.1-0.6,15-2.3c0.5-0.2,1-0.1,1.4,0.4
		c0,1.2,0,2.4,0,4c0.5-0.4,0.8-0.7,1.2-0.9c4.2-3.2,8.9-4.2,14-3c1.7,0.4,3.1,1.2,4.3,2.4c0.2,0.9,0.1,1.6-0.4,2.4
		c-1.2,2.2-2.4,4.4-3.6,6.6c-0.6,0-1.2,0-1.9,0c-1.5-2.4-3.7-3.9-6.6-4.3c-2.4-0.3-4.7,0-6.8,1.4c0,0.3-0.1,0.6-0.1,0.9
		c0,9.3,0,18.5,0.1,27.8c0,1.4,0.1,2.8,0.3,4.2c0.3,2.4,1.2,3.4,3.5,4c1.1,0.3,2.3,0.4,3.4,0.5c0.4,0.1,0.9,0,1.4,0
		c0,0.9,0,1.7,0,2.5c-4.4-0.1-8.7-0.3-13-0.3c-4.3,0-8.7,0.2-13.1,0.3c0-0.6,0-1.3,0-2.1c0.6-0.1,1.3-0.2,1.9-0.3
		c2.6-0.6,4.1-2,4.4-4.6c0.3-2,0.4-4.1,0.4-6.1c0.1-7.5,0-15.1,0-22.6c0-1.5-0.2-3-0.4-4.5c-0.2-1.6-1.2-2.6-2.7-2.9
		c-0.9-0.2-1.9-0.3-2.9-0.4C411.6,32.5,411.4,32.4,411.2,32.4z"/>
	<path class="st0" d="M201.6,104.4c0-0.5,0-0.9,0-1.4c4.6,0,9.3,0,14,0c0,0.4,0,0.9,0,1.4c-0.4,0.1-0.8,0.1-1.2,0.2
		c-1.7,0.4-2.7,1.3-2.9,3.1c-0.2,1.1-0.2,2.3-0.2,3.4c0,5.8,0,11.6,0,17.3c0,2.6-0.1,5.2-0.7,7.7c-1.1,5.4-4.3,8.8-9.6,10
		c-4.7,1.1-9.4,1.1-14-0.1c-5.5-1.4-8.6-4.9-9.4-10.5c-0.2-1.8-0.4-3.6-0.4-5.4c-0.1-6.5,0-13,0-19.4c0-1,0-2-0.1-3.1
		c-0.1-1.6-1-2.6-2.6-3c-0.4-0.1-0.8-0.2-1.3-0.3c0-0.5,0-0.9,0-1.5c5.1,0.3,10.1,0.3,15.3,0c0,0.5,0,1,0,1.5
		c-0.5,0.1-1,0.2-1.5,0.3c-1.4,0.4-2.3,1.3-2.5,2.7c-0.1,0.8-0.2,1.6-0.2,2.4c0,7.3,0,14.6,0,21.9c0,1.5,0.2,2.9,0.5,4.4
		c0.7,3.7,2.9,6,6.6,6.7c2.4,0.4,4.7,0.5,7.1,0c3.9-0.8,6-3,6.7-7c0.3-1.6,0.5-3.3,0.5-4.9c0.1-7,0-14,0-21c0-0.8-0.1-1.6-0.2-2.4
		c-0.1-1.4-0.9-2.3-2.3-2.7C202.7,104.6,202.2,104.5,201.6,104.4z"/>
	<path class="st0" d="M216.6,118.4c0-0.5,0-1,0-1.5c1.8-0.2,3.6-0.2,5.4-0.5c1.7-0.3,3.4-0.8,5.3-1.3c0.1,0.9,0.1,1.6,0.2,2.6
		c0.5-0.3,0.9-0.5,1.3-0.7c3.6-2.1,7.4-2.7,11.5-1.6c3.8,1,5.9,3.6,6.5,7.5c0.2,1.3,0.3,2.7,0.3,4c0,3.6,0,7.1,0,10.7
		c0,1.3,0.1,2.6,0.2,3.9c0.2,2.4,0.9,3.2,3.3,3.6c0.2,0,0.4,0.1,0.7,0.1c0,0.2,0.1,0.4,0.1,0.6c0,0.2,0,0.4-0.1,0.7
		c-5-0.3-10-0.4-15.1,0c0-0.4-0.1-0.8-0.1-1.2c0.7-0.2,1.3-0.4,1.9-0.6c1-0.3,1.7-1,1.9-2.1c0.2-1.1,0.4-2.2,0.4-3.3
		c0.1-4.1,0.1-8.2,0-12.3c0-1.2-0.2-2.5-0.5-3.6c-0.6-2.5-2.4-3.9-4.9-4.2c-2-0.2-4-0.1-5.9,0.7c-0.4,0.2-0.8,0.4-1.2,0.5
		c0,0.4-0.1,0.6-0.1,0.9c0,5.9,0,11.9,0,17.8c0,0.9,0.1,1.9,0.2,2.8c0.2,1.8,0.9,2.5,2.6,2.9c0.4,0.1,0.8,0.2,1.2,0.3
		c0,0.4,0,0.7,0,1.2c-5.1-0.2-10.1-0.4-15.2,0c0-0.4-0.1-0.8-0.1-1.2c0.5-0.1,1-0.2,1.4-0.4c1.6-0.4,2.5-1.4,2.7-3
		c0.1-0.9,0.2-1.9,0.2-2.8c0-5.4,0-10.7,0-16.1c0-0.7-0.1-1.4-0.2-2.1c-0.1-1.3-0.9-2-2.1-2.2C217.9,118.6,217.3,118.5,216.6,118.4z
		"/>
	<path class="st0" d="M443.9,147.8c-1.6-4.1-3.1-7.9-4.6-11.8c-1.9-4.8-3.8-9.6-5.6-14.4c-0.3-0.6-0.6-1.3-0.8-1.9
		c-0.5-1.5-1.5-2.3-3.2-2.4c0-0.5,0-1,0-1.5c4.6,0,9.2,0,13.8,0c0,0.4,0,0.8,0,1.3c-0.5,0.1-1,0.2-1.4,0.4c-1.4,0.5-1.9,1.3-1.6,2.7
		c0.1,0.7,0.4,1.3,0.6,2c1.6,4.4,3.3,8.7,4.9,13.1c0.4,1.1,0.8,2.2,1.3,3.6c0.2-0.6,0.4-0.9,0.5-1.3c1.8-5.3,3.6-10.6,5.3-16
		c0.2-0.5,0.3-1.1,0.4-1.7c0.2-1.2-0.3-2-1.5-2.4c-0.5-0.2-0.9-0.3-1.5-0.4c0-0.5,0-0.9,0-1.5c1.9-0.3,3.9,0.2,5.8,0.2
		c1.9-0.1,3.8-0.2,5.9-0.2c0,0.6,0,1.1,0,1.6c-2.3,0.2-3.2,2-3.9,3.8c-1,2.6-2,5.3-3,7.9c-3.2,8.6-6.4,17.1-9.6,25.6
		c-0.4,1-0.9,2-1.3,3c-2.4,4.8-6.7,6.6-12.1,6.1c-1.5-0.2-3-0.5-4.3-1.3c-0.5-0.3-0.9-0.7-1.5-1.1c0.3-1.7,1.7-2.6,2.6-3.9
		c0.2-0.3,0.6-0.4,1-0.6c0.8,1.5,1.8,2.4,3.3,2.7c2.2,0.4,4.2,0,5.6-1.9c0.5-0.7,1.1-1.4,1.4-2.2
		C441.8,152.9,442.9,150.3,443.9,147.8z"/>
	<path class="st0" d="M328.3,140.7c0.3,0.4,0.5,0.9,0.8,1.3c-0.5,0.9-1.4,1.6-2.2,2.2c-2,1.5-4.4,2.3-6.8,2.5
		c-2.7,0.3-5.3,0.1-7.9-0.7c-4.3-1.5-6.9-4.5-8-8.9c-1.2-4.9-0.8-9.8,1.4-14.4c2.6-5.7,7.5-8.1,13.6-7.7c0.8,0.1,1.6,0.2,2.4,0.4
		c3.5,0.9,6,2.9,7.3,6.3c0.9,2.5,1,5.1,1,7.8c-6.5,0-12.9,0-19.4,0c0,1,0,2,0.1,2.9c0.1,1.1,0.4,2.1,0.7,3.1
		c1.3,4.3,4.3,6.7,8.8,6.8c2.7,0.1,5.4-0.3,7.9-1.6C328,140.8,328.1,140.7,328.3,140.7z M322.8,126.1c-0.1-1.1-0.1-2-0.3-3
		c-0.8-3.8-3.6-5.6-7.5-4.7c-1,0.2-1.8,0.7-2.5,1.5c-1.5,1.8-2,3.9-2,6.2C314.6,126.1,318.6,126.1,322.8,126.1z"/>
	<path class="st0" d="M303.4,115.7c0,0.5,0,1,0,1.6c-2.2,0.1-3.1,1.6-3.9,3.3c-2.4,5.4-4.8,10.8-7.2,16.2c-1.3,2.9-2.6,5.8-3.9,8.6
		c-0.2,0.4-0.3,0.7-0.5,1.1c-1,0.2-1.9,0.3-3,0.5c-0.2-0.4-0.3-0.8-0.5-1.2c-3.2-8-6.4-16-9.5-24c-0.3-0.7-0.6-1.4-0.8-2
		c-0.6-1.5-1.5-2.6-3.3-2.6c0-0.5,0-1,0-1.5c4.6,0,9.2,0,13.8,0c0,0.4,0,0.9,0,1.4c-0.6,0.2-1.2,0.3-1.7,0.5
		c-1.1,0.4-1.5,1.2-1.3,2.3c0.2,0.8,0.4,1.7,0.7,2.5c1.8,4.8,3.6,9.5,5.4,14.3c0,0.1,0.1,0.1,0.2,0.3c0.2-0.3,0.3-0.5,0.4-0.7
		c1.9-4.7,3.8-9.4,5.7-14.1c0.3-0.6,0.5-1.3,0.6-2c0.3-1.3-0.1-2.1-1.4-2.6c-0.5-0.2-0.9-0.3-1.5-0.4c0-0.2-0.1-0.4-0.1-0.7
		c0-0.2,0-0.5,0-0.8C295.5,115.7,299.4,115.7,303.4,115.7z"/>
	<path class="st0" d="M379.5,115.8c0,2.6,0,5.1,0,7.6c-0.6,0-1.2,0-1.8,0c-0.1-0.2-0.1-0.4-0.2-0.7c-0.5-2.6-1.6-3.8-4.1-4.4
		c-1.3-0.3-2.6-0.3-3.9,0c-2.8,0.8-3.8,4.1-1.7,6.3c0.5,0.6,1.2,1,1.8,1.4c1.8,1.1,3.7,2.2,5.6,3.4c1,0.7,2,1.4,2.9,2.2
		c3.6,3.2,3.3,11.1-2.2,13.7c-1.8,0.8-3.6,1.2-5.6,1.4c-3.1,0.2-6.2-0.1-9.2-1.1c-0.2-0.1-0.4-0.2-0.8-0.3c0-1.3,0-2.7-0.1-4
		c-0.1-1.3-0.2-2.6-0.2-4c0.6,0,1.2,0,1.8,0c0.1,0.5,0.2,1.1,0.3,1.6c0.6,2.3,2,3.8,4.4,4.2c1.5,0.3,3.1,0.3,4.6-0.1
		c1.5-0.3,2.6-1.1,2.9-2.6c0.4-1.6,0.3-3.1-1-4.3c-0.6-0.5-1.2-1-1.9-1.4c-1.6-1-3.2-2-4.8-3c-0.7-0.4-1.4-0.9-2-1.4
		c-3.2-2.4-4.2-5.9-3-9.9c0.8-2.6,2.6-4.2,5.1-4.9c1.2-0.4,2.5-0.5,3.7-0.6C372.5,114.8,377.4,115.2,379.5,115.8z"/>
	<path class="st0" d="M408.5,119.3c-1.4,0-2.7,0-4,0c0-0.4,0-0.8,0-1.2c4.6-1.6,7.3-5.3,9.5-9.4c0.5,0,0.8,0,1.3,0
		c0,2.3,0,4.5,0,6.8c3.5,0.1,6.9,0,10.5,0c0,1.2,0,2.4,0,3.7c-1.7,0.1-3.4,0-5.1,0c-1.7,0-3.4,0-5.2,0c0,0.5-0.1,0.8-0.1,1.2
		c0,5.2,0,10.4,0,15.6c0,1.3,0.2,2.6,0.5,3.9c0.4,1.8,1.7,2.8,3.5,3.1c1.6,0.3,3.2,0.1,4.7-0.5c0.4-0.1,0.8-0.3,1.2-0.4
		c0.2,0.4,0.3,0.7,0.5,1.1c-0.7,1-1.5,1.7-2.5,2.2c-3.3,1.7-6.8,1.8-10.2,0.6c-2.4-0.8-3.7-2.8-4.2-5.2c-0.2-0.9-0.3-1.8-0.3-2.7
		c0-5.7,0-11.5,0-17.2C408.5,120.5,408.5,120.1,408.5,119.3z"/>
	<path class="st0" d="M349.8,146.4c-5.6-0.3-11-0.4-16.5,0c0-0.5,0-0.9,0-1.4c0.3-0.1,0.6-0.1,0.9-0.2c1.8-0.3,2.7-1.2,3-2.9
		c0.2-1,0.3-2.1,0.3-3.2c0-5.6,0-11.2,0-16.8c0-0.2,0-0.5,0-0.7c-0.2-1.5-0.7-2.1-2.1-2.5c-0.6-0.1-1.2-0.2-1.9-0.3c0-0.5,0-1,0-1.7
		c3.6-0.1,7.1-0.4,10.5-1.6c0.7,0.8,0.1,1.8,0.5,2.7c0.3-0.2,0.6-0.4,0.9-0.6c2.4-1.7,5-2.4,7.9-1.9c1.3,0.2,2.5,0.7,3.5,1.6
		c0.3,0.6,0.1,1.1-0.2,1.6c-0.7,1.3-1.5,2.7-2.2,4.1c-0.4,0-0.8,0-1.2,0.1c-1-1.6-2.4-2.5-4.3-2.7c-1.5-0.2-2.9,0-4.3,0.9
		c0,0.2-0.1,0.5-0.1,0.7c0,6.1,0,12.2,0.1,18.3c0,0.8,0.1,1.5,0.2,2.3c0.1,1.2,0.8,1.9,1.9,2.1c1,0.2,2.1,0.4,3.2,0.6
		C349.8,145.4,349.8,145.8,349.8,146.4z"/>
	<path class="st0" d="M264.6,114.9c0.6,0.3,0.7,0.8,0.6,1.3c-0.1,7.1-0.2,14.2-0.2,21.3c0,1.4,0.1,2.8,0.2,4.2
		c0.2,1.9,0.9,2.8,2.8,3.2c0.4,0.1,0.9,0.2,1.4,0.3c0,0.4,0,0.8,0,1.2c-5.2,0-10.4,0-15.6,0c0-0.3-0.1-0.7-0.1-1.1
		c0.5-0.1,1-0.2,1.5-0.3c1.6-0.3,2.6-1.2,2.8-2.8c0.2-1.3,0.3-2.7,0.3-4c0-4.8,0-9.7,0-14.5c0-0.9-0.1-1.9-0.2-2.8
		c-0.2-1.4-0.7-1.9-2.1-2.2c-0.6-0.1-1.1-0.2-1.8-0.3c0-0.5,0-1,0-1.5C257.8,116.5,261.3,116.2,264.6,114.9z"/>
	<path class="st0" d="M401.3,145.1c0,0.4,0,0.8,0,1.2c-5.2,0-10.4,0-15.7,0c0-0.3,0-0.7-0.1-1.2c0.6-0.1,1.1-0.2,1.6-0.3
		c1.4-0.3,2.4-1.1,2.6-2.6c0.2-1.4,0.4-2.8,0.4-4.2c0-4.9,0-9.7,0-14.6c0-0.9-0.1-1.8-0.2-2.7c-0.2-1.5-0.7-2-2.1-2.3
		c-0.6-0.1-1.1-0.2-1.8-0.3c0-0.5,0-0.9,0-1.5c3.5-0.2,7-0.4,10.3-1.7c0.7,0.2,0.7,0.8,0.7,1.4c-0.1,6.3-0.2,12.5-0.2,18.8
		c0,2.1,0.1,4.2,0.2,6.3c0.1,2.3,0.8,3.1,3.1,3.6C400.6,145,400.9,145,401.3,145.1z"/>
	<path class="st0" d="M393.3,109.4c-2.4,0-4-1.5-4-3.8c0-2.3,1.6-3.9,4.1-4c2.4,0,4,1.5,4,3.8C397.4,107.8,395.7,109.4,393.3,109.4z
		"/>
	<path class="st0" d="M261.4,109.4c-2.4,0-4-1.5-4-3.8c0-2.3,1.7-3.9,4.1-3.9c2.4,0,4,1.6,4,3.9
		C265.5,107.8,263.8,109.4,261.4,109.4z"/>
	<path class="st0" d="M55.8,28.1c0.2-0.1,0.3-0.2,0.5-0.3c1.3-0.8,1.5-1.8,0.5-2.9c-0.4-0.5-1-0.8-1.5-1.2c-0.7-0.5-1.5-1.1-1.9-1.9
		c0.4-0.4,0.8-0.7,1.2-1.1c0.5-0.5,0.9-1,0.7-1.7c-0.2-0.8-0.9-0.9-1.6-1c-0.4-0.1-0.7-0.2-1.3-0.3c0.5-0.5,0.8-0.9,1.2-1.2
		c0.9-1,0.6-2-0.7-2.2c-0.9-0.1-1.2-0.6-1.4-1.3c-0.3-1.3-0.6-2.6-0.9-3.9c-1.3-0.4-1.6-0.2-2,0.9c-0.3,0.9-0.4,1.9-0.7,2.9
		c-0.2,0.7-0.5,1.4-0.8,2.1c-0.4,0.1-0.6,0.1-0.9,0.1c-1.4,0.3-1.7,1.3-0.7,2.3c0.4,0.4,0.9,0.8,1.4,1.2c-0.4,0.7-1.1,1.1-1.7,1.6
		c-0.8,0.6-1.5,1.1-2.3,1.7c-0.5,0.4-0.9,0.9-0.7,1.6c0.2,0.7,0.8,0.9,1.4,1c0.4,0.1,0.9,0.1,1.5,0.2c-0.5,0.2-0.8,0.4-1.1,0.5
		c-1.5,0.6-2.6,1.6-3.7,2.8c-0.2,0.2-0.4,0.5-0.6,0.8c-0.6,1.1-0.1,2,1.2,2.1c0.7,0.1,1.4,0,2.1,0c0.2,0.8-0.2,1.3-0.9,1.7
		c-0.9,0.4-1.8,0.7-2.7,1.2c-0.9,0.6-1.9,1.2-2.6,2c-1.1,1.1-0.7,2.3,0.9,2.4c1.6,0.1,3.3,0.3,4.9-0.3c0.5-0.2,1-0.5,1.5,0
		c0,0.7-0.6,1.1-1.1,1.4c-0.6,0.4-1.3,0.7-1.9,1.1c-3.2,1.5-6.2,3.4-9.1,5.6c-0.8,0.6-1.5,1.3-2.2,2c-0.3,0.3-0.5,0.7-0.7,1.1
		c-0.3,0.7-0.3,1.5,0.3,2c0.6,0.5,1.2,0.6,1.9,0.3c1-0.5,2-0.5,3.1-0.4c2.4,0.1,4.8-0.2,6.9-1.9c0.3,0.8-0.1,1.4-0.5,2
		c-0.9,1.3-1.9,2.4-3.3,3.3c-1,0.7-2,1.4-3.1,1.9c-3.8,1.9-5.6,5-6.1,9.1c-0.1,0.8-0.2,1.6-0.3,2.4c0,0.4,0,0.8,0.2,1.2
		c0.3,0.8,1,1,1.7,0.6c0.5-0.3,0.9-0.6,1.2-1c1.1-1.4,2.6-1.9,4.3-2c0.9,0,1.8,0,2.7-0.3c1-0.2,1.9-0.7,2.9-1.1c0,0.2,0,0.4-0.1,0.6
		c-0.5,1-1.3,1.7-2.4,2.2c-1,0.5-2,0.9-3,1.5c-0.9,0.5-1.6,1.2-2.4,1.9c-0.3,0.3-0.5,0.8-0.6,1.2c-0.1,0.6,0.2,1.2,0.9,1.3
		c2.1,0.2,4.2,0.7,6.3-0.3c0.8-0.4,1.6-0.8,2.5-1.2c0,1.4-0.7,2.4-1.7,3.2c-1.8,1.3-3.7,2.5-5.6,3.6c-1.4,0.8-2.8,1.7-3.9,3
		c-0.5,0.6-0.9,1.3-1.3,2.1c-0.3,0.6-0.4,1.2,0.2,1.7c0.5,0.4,1.1,0.2,1.6,0.1c0.7-0.2,1.4-0.3,2.1-0.4c0.4,0,0.8,0,1.2,0.1
		c1.2,0.2,2.3,0.4,3.5,0.5c0.2,1.7-0.1,2.3-1.7,2.9c-0.9,0.4-1.7,0.8-2.6,1.1c-0.4,0.1-0.8,0.3-1.2,0.3c-4,0-8,0-12.1,0
		c-0.1,0-0.2,0-0.3,0c-5.3-5.3-10.5-10.5-15.8-15.7c0-17,0-34.1,0-51.4c0.2-0.1,0.5-0.3,0.8-0.6c5.6-5.4,11.2-10.8,16.8-16.2
		c0.6-0.6,1.1-0.8,1.9-0.8c16.8,0,33.5,0,50.3,0c0.7,0,1.2,0.1,1.8,0.6c5.8,5.6,11.6,11.2,17.4,16.7c0.1,0.1,0.3,0.3,0.4,0.5
		c0,7.8,0,15.6,0,23.5c-0.4,0-0.8,0.1-1.1,0.1c-8.8,0-17.6,0-26.4,0c-0.7,0-1.2-0.2-1.8-0.6c-2.1-1.5-4.3-2.9-6.8-3.7
		c-0.5-0.2-1-0.4-1.6-0.7c0.8-0.4,1.4-0.5,2-0.4c0.6,0.1,1.2,0.2,1.8,0.2c0.4,0,0.8,0,1.2,0c0.9-0.1,1.6-0.4,1.9-1.3
		c0.3-0.9-0.2-1.6-0.9-2.1c-0.7-0.5-1.4-1-2.2-1.4c-1.1-0.6-2.2-1-3.4-1.5c-0.9-0.4-1-0.7-1.1-1.8c0.4,0,0.7,0,1.1,0
		c0.4,0,0.7,0.1,1.1,0c1.3-0.2,1.8-1,1.1-2.2c-0.3-0.6-0.8-1.1-1.3-1.5C57.5,29.4,56.7,28.8,55.8,28.1z"/>
	<path class="st0" d="M57.8,76.8c0.3,0.1,0.7,0.3,1,0.4c1.5,0.7,3,0.7,4.6,0.4c0.7-0.1,1.5,0,2.3,0.1c0.3,0,0.6,0.1,0.9,0.1
		c1.2,0,1.8-1,1.3-2c-0.3-0.5-0.7-1-1.1-1.4c-1.1-1.1-2.5-1.9-3.9-2.5c-0.7-0.3-1.4-0.7-2.1-1C59.3,70,58.5,69,58,67.6
		c0.3-0.6,0.7-0.5,1.2-0.3c0.9,0.4,1.8,0.7,2.7,1.1c2,0.8,4,1.5,6,2.3c0.4,0.1,0.8,0.3,1.2,0.3c1.3,0.2,2.2-0.6,2.1-1.9
		c-0.2-1.5-0.6-3-1-4.4c-0.1-0.4-0.2-0.7-0.3-1c0.9-0.3,6.8-0.4,9-0.2c5.3,5.3,10.5,10.5,15.8,15.8c0,16.2,0,32.5,0,48.8
		c-6.1,5.9-12.3,11.8-18.5,17.8c-2.6-0.1-5.3,0.3-7.9-0.5c-2-0.6-3.8-1.5-5.3-3.1c-0.9-1-2.1-1.9-3.3-2.6c-3-1.7-4.5-4.2-4.8-7.5
		c-0.1-1-0.1-2-0.1-2.9c0-3.7,0-7.5,0-11.2c0-0.4,0-0.9,0-1.5c0.4,0.2,0.7,0.3,0.9,0.5c1.3,1,2.7,1.3,4.3,1.2c0.6,0,1.2,0,1.8-0.1
		c1.9-0.2,3.7,0.3,5.3,1.2c1.3,0.8,2.6,1.6,3.9,2.4c0.8,0.5,1.7,1.1,2.6,1.5c1.8,0.8,2.9,0,2.9-1.9c0-0.4,0-0.8-0.1-1.1
		c-0.6-1.9-1.1-3.9-1.9-5.7c-0.8-1.9-2.4-3-4.2-4c-0.6-0.4-1.3-0.7-1.5-1.6c0.1-0.2,0.3-0.4,0.4-0.6c0.2-0.2,0.4-0.4,0.5-0.7
		c1.3-1.9,0.9-3.5-1.3-4.2c-0.7-0.2-1.4-0.4-2.2-0.5c-1.6-0.2-3-0.8-4.2-1.9c-0.4-0.5-0.8-1-1.2-1.5c0.8-0.8,1-0.8,1.8-0.5
		c0.8,0.4,1.6,0.9,2.5,1.1c1.5,0.4,3,0.6,4.4,0.9c0.2,0,0.4,0,0.6,0c1.2-0.1,1.7-0.7,1.3-1.9c-0.6-2.1-1.9-3.7-3.9-4.7
		c-1.8-0.9-3.6-1.7-5.4-2.4c-1-0.4-1.4-1.1-1.4-2.1c0-0.1,0.1-0.1,0.2-0.3c0.2,0.1,0.3,0.2,0.5,0.3c1.2,0.9,2.5,1.3,4,1.2
		c1.1-0.1,2,0.1,2.9,0.8c0.1,0.1,0.2,0.1,0.3,0.2c0.7,0.3,1.3,0.6,2,0c0.6-0.5,0.4-1.2,0.3-1.8c-0.9-3.7-3-6.6-6.5-8.3
		c-1.9-1-3.7-2.3-5.5-3.5C58.4,78,58,77.5,57.6,77C57.7,76.9,57.7,76.8,57.8,76.8z"/>
	<path class="st0" d="M5.2,128c0-7,0-13.9,0-20.8c0.9-0.3,21.7-0.5,24.7-0.2c-0.3,0.2-0.5,0.4-0.7,0.5c-2.2,1.3-3.9,3-4.6,5.5
		c-0.3,1-0.7,2-0.9,3c-0.2,0.7-0.2,1.5-0.1,2.3c0.1,0.8,0.4,1.4,1.2,1.7c0.8,0.3,1.5,0,2-0.6c1.3-1.4,2.9-2.3,4.6-3.3
		c2-1.2,4.2-1.7,6.6-1.8c2.3-0.1,4.4-0.9,6-2.7c0.2-0.3,0.5-0.4,1-0.8c0,0.5,0.1,0.8,0.1,1.1c0,4.5,0,9.1,0,13.6
		c0,1.8-0.2,3.6-0.5,5.4c-0.2,1.3-0.8,2.4-1.8,3.3c-0.8,0.6-1.5,1.3-2.2,2c-1,1.1-1.8,2.2-2.7,3.3c-0.7,0.9-1.3,1.9-2,2.8
		c-1.6,2.1-3.7,3.2-6.3,3.2c-1.9,0.1-3.9,0-5.9,0C17.5,139.8,11.3,133.9,5.2,128z"/>
</g>
</svg>
