<?xml version="1.0" encoding="utf-8"?>
<!-- Generator: Adobe Illustrator 24.0.0, SVG Export Plug-In . SVG Version: 6.00 Build 0)  -->
<svg version="1.1" id="Layer_1" xmlns="http://www.w3.org/2000/svg" xmlns:xlink="http://www.w3.org/1999/xlink" x="0px" y="0px"
	 viewBox="0 0 1071.9 221.6" style="enable-background:new 0 0 1071.9 221.6;" xml:space="preserve">
<style type="text/css">
	.st0{fill:#002E70;}
</style>
<g>
	<path class="st0" d="M112.7,33.5c0-11.2,0-22.1,0-33.5c31.3,0.9,57.5,12.3,78.7,34.6c19.6,20.6,29.5,45.4,30.3,74.4
		c-11.5,0-22.4,0-33.6,0C182.7,64.4,157.8,39.2,112.7,33.5z"/>
	<path class="st0" d="M109.3,221.6c-31.5-1.3-57.6-12.5-78.9-34.8C10.8,166.2,1.3,141.6,0,112.8c11.6,0,22.3,0,33.6,0
		c5.5,44.4,30.6,69.6,75.6,75.2C109.3,198.8,109.3,209.7,109.3,221.6z"/>
	<path class="st0" d="M112.7,221.5c0-11.7,0-22.5,0-33.6c44.5-5.5,69.7-30.3,75.3-75.1c10.9,0,21.8,0,33.5,0
		c-0.7,27.8-10,51.8-28.5,72.1C171.7,208.4,145,220.3,112.7,221.5z"/>
	<path class="st0" d="M74.7,108.8c0-36.1,0-71.6,0-107.7c11.2,0,22.2,0,33.8,0c0,35.9,0,71.6,0,107.7
		C97.3,108.8,86.4,108.8,74.7,108.8z"/>
	<path class="st0" d="M610.1,103c0,14.6,0,29.1,0,44.1c-5.8,0-11.2,0-17,0c0-24.1,0-48,0-72.4c6.8,0,13.5,0,20.7,0
		c8.9,14.4,17.9,29.1,27,43.7c0.4-0.1,0.7-0.2,1.1-0.3c0-14.3,0-28.7,0-43.5c5.9,0,11.3,0,17.1,0c0,24.1,0,48,0,72.4
		c-6.5,0-12.9,0-20.1,0c-8.9-14.4-18.2-29.4-27.4-44.4C610.9,102.8,610.5,102.9,610.1,103z"/>
	<path class="st0" d="M113.2,70.7c0-11,0-21.6,0-33.2c18.1,0.1,33.1,6.4,46.1,17.9c15.8,14,24.5,31.5,24.8,53.5c-11.3,0-21.8,0-33,0
		C147.8,87.4,135.6,74.2,113.2,70.7z"/>
	<path class="st0" d="M108.7,150.9c0,11.2,0,21.9,0,32.6c-32.8,1.9-71-28.9-70.9-70.4c10.8,0,21.6,0,33,0
		C74.1,134.9,87,147.4,108.7,150.9z"/>
	<path class="st0" d="M113.4,150.9c21.6-3.6,34.3-16.2,37.6-37.9c11,0,21.6,0,32,0c9,29-35.6,74.3-69.6,70.7
		C113.4,173,113.4,162.4,113.4,150.9z"/>
	<path class="st0" d="M663.8,147.3c10.4-24.9,20.5-48.8,30.5-72.8c6.2,0,12,0,18.2,0c10,24,19.9,47.9,30.1,72.6
		c-7.2,0-13.4,0-20.2,0c-1.8-4.1-3.7-8.5-5.7-13.2c-9.2,0-18.2,0-27.6,0c-1.9,4.5-3.7,8.9-5.5,13.4
		C677.1,147.3,671,147.3,663.8,147.3z M703.6,96.7c-0.4,0-0.7,0-1.1,0c-2.5,6.9-5.1,13.7-7.8,21.1c5.9,0,10.9,0,16.5,0
		C708.5,110.3,706.1,103.5,703.6,96.7z"/>
	<path class="st0" d="M512.4,74.5c6.2,0,11.8,0,18.1,0c9.9,23.9,19.9,48,30.2,72.7c-7.1,0-13.3,0-20.2,0c-1.8-4.2-3.8-8.7-5.8-13.3
		c-9.2,0-18.1,0-27.5,0c-1.8,4.4-3.7,8.8-5.6,13.5c-6.3,0-12.3,0-19.8,0C492.2,122.8,502.2,98.8,512.4,74.5z M529.5,118
		c-2.7-7.4-5.2-14.3-7.7-21.3c-0.4,0-0.8,0.1-1.1,0.1c-2.5,6.9-5,13.7-7.8,21.2C518.7,118,523.7,118,529.5,118z"/>
	<path class="st0" d="M311.1,74.5c6.1,0,11.5,0,17.5,0c0.2,2.2,0.5,4.1,0.5,6c0,12.7-0.1,25.3,0.1,38c0.1,9.8,5.7,14.8,15.2,14
		c4.9-0.4,8.9-3.3,10.2-8.1c0.8-2.9,1.1-5.9,1.1-8.9c0.1-11.5,0.1-23,0.1-34.5c0-2,0-3.9,0-6.4c6.1,0,11.7,0,17.8,0
		c0.2,2,0.5,3.9,0.5,5.8c0,12.5-0.2,25,0.1,37.5c0.5,24.7-19.4,33.4-36.5,31.3c-17.5-2.2-26.8-13-26.8-30.8c0-12.7,0-25.3,0-38
		C310.8,78.8,311,77,311.1,74.5z"/>
	<path class="st0" d="M1013.6,136.6c-8.1,11.4-26.1,16-41.8,11c-16.1-5.1-26-18.7-26.2-36.2c-0.2-17.9,8.8-31.5,24.8-37
		c15.4-5.4,34.4-1.6,41.8,8.2c-3.9,3.8-7.8,7.5-12.1,11.6c-4.7-4.1-11.1-7.2-18.3-4.9c-4.4,1.4-8.9,4.1-11.9,7.5
		c-7.1,8.3-5.8,22.8,1.9,30.2c7.7,7.5,18.7,7.1,29.5-1.7C1005.3,129,1009.4,132.7,1013.6,136.6z"/>
	<path class="st0" d="M250,138.9c4.2-4.2,8-7.9,11.6-11.6c3.2,1.8,6.3,4.3,9.9,5.4c3.3,1,7.2,1.1,10.6,0.4c1.9-0.4,4.3-3.2,4.5-5.1
		c0.2-2.2-1.3-5-2.9-6.7c-1.6-1.7-4.4-2.3-6.7-3.2c-3.7-1.4-7.6-2.5-11.2-4.1c-15.1-7-16.8-26.6-3.3-36.4
		c11.1-8.1,32.4-6.9,42.5,2.5c0.3,0.3,0.5,0.8,1.1,1.8c-3.5,3.7-7.2,7.5-11,11.5c-1.8-1.3-3.1-2.8-4.7-3.2c-4.1-1-8.4-2.3-12.4-2
		c-2,0.1-4.6,3.1-5.5,5.4c-1.2,3,1.3,5.3,4.1,6.5c4.2,1.7,8.5,3,12.7,4.6c11.9,4.4,17.6,11.9,16.7,22c-1,11.8-8.7,19.9-20.9,22.1
		c-10.8,2-20.9,0-30.1-5.9C253.2,141.8,251.8,140.4,250,138.9z"/>
	<path class="st0" d="M432.8,81.5c-3.9,4.2-7.5,8-11.2,12c-4.7-3.8-9.4-6.6-15.3-5.9c-3.8,0.4-7,1.8-7.6,5.9
		c-0.6,3.8,2.2,5.7,5.3,6.9c4.5,1.7,9.1,3.2,13.6,4.9c10.3,4.1,14.8,10.4,14.7,20.3c-0.1,10.2-5.6,18.2-15.5,21.6
		c-12.6,4.4-24.6,2.5-35.8-4.6c-1.5-1-2.7-2.3-4.2-3.7c4.2-4,8.1-7.7,12-11.5c2.3,1.5,4.8,3.6,7.6,4.7c3.2,1.1,6.7,1.7,10.1,1.6
		c3.6,0,6.4-2.2,7.1-5.9c0.7-4-1.9-6.3-5.1-7.6c-4.7-2-9.7-3.5-14.5-5.4c-8.5-3.3-13.8-9.2-14-18.7c-0.2-9.9,4.3-17,13.4-20.8
		c12.2-5.1,24.1-4.1,35.4,2.8C430.1,78.8,431.2,80.1,432.8,81.5z"/>
	<path class="st0" d="M1016,138.7c4-3.9,7.8-7.6,11.6-11.4c2.5,1.6,5.1,4,8.2,4.8c3.8,1.1,8.1,1.5,12,0.9c1.9-0.3,4.3-3.3,4.7-5.5
		c0.3-1.9-1.3-4.9-2.9-6.2c-2.4-1.9-5.6-2.7-8.6-3.9c-3.1-1.2-6.3-2.2-9.3-3.5c-7.7-3.3-12.2-9.2-12.5-17.7
		c-0.3-8.5,3.1-15.2,10.5-19.7c12.3-7.6,32.2-5.4,42.3,5.1c-3.7,3.9-7.4,7.8-10,10.5c-6-1.8-10.7-3.7-15.6-4.5
		c-3.7-0.6-7.5,0.9-8.2,5.5c-0.7,4.4,2.3,6.2,5.8,7.5c4.7,1.7,9.5,3.1,14.1,5.1c7,3.1,12.5,7.7,13.3,16c0.9,9.6-2,17.4-10.3,22.8
		C1048.3,153,1026.1,150.1,1016,138.7z"/>
	<path class="st0" d="M37.7,37.8c11.1,0,21.8,0,32.9,0c0,23.8,0,47.2,0,71.1c-11,0-21.7,0-32.9,0C37.7,85.3,37.7,61.8,37.7,37.8z"/>
	<path class="st0" d="M777,74.6c7.8,0,14.5,0,22.1,0c4.6,7.9,9.4,16.2,14.9,25.6c5.3-9,10.2-17.2,15.1-25.6c6.8,0,13.5,0,21,0
		c-1.3,2.2-2.1,3.8-3.1,5.3c-7.2,10.8-14.5,21.5-21.5,32.5c-1.5,2.4-2.4,5.5-2.5,8.3c-0.4,7-0.1,14-0.1,21c0,1.8-0.3,3.5-0.5,5.6
		c-6,0-11.6,0-17.9,0c-0.2-2.6-0.7-5-0.4-7.4c2.3-16.6-2.3-30.9-13-43.8C785.9,89.8,782,82.3,777,74.6z"/>
	<path class="st0" d="M436.2,74.6c19.7,0,38.9,0,58.5,0c0,5,0,9.6,0,14.9c-6.6,0-13,0-20.3,0c0,19.6,0,38.4,0,57.7
		c-6.4,0-11.9,0-18.2,0c0-19.1,0-37.8,0-57.2c-7,0-13.2,0-20,0C436.2,84.6,436.2,79.9,436.2,74.6z"/>
	<path class="st0" d="M874,89.7c-7.2,0-13.3,0-19.9,0c0-5.2,0-9.9,0-15.1c19.5,0,38.7,0,58.4,0c0,4.8,0,9.5,0,15c-6.6,0-13,0-20.1,0
		c0,19.5,0,38.2,0,57.5c-6.4,0-12.1,0-18.4,0C874,128.1,874,109.4,874,89.7z"/>
	<path class="st0" d="M792.9,147.2c-15.4,0-30.3,0-45.6,0c0-24.3,0-48.1,0-72.5c5.7,0,11.3,0,17.5,0c0,18.6,0,37.1,0,56.6
		c9.7,0,18.7,0,28.1,0C792.9,137.1,792.9,141.8,792.9,147.2z"/>
	<path class="st0" d="M939.5,74.6c0,24.4,0,48.2,0,72.6c-6,0-11.7,0-17.9,0c0-24.2,0-48.2,0-72.6C927.5,74.6,933.1,74.6,939.5,74.6z
		"/>
	<path class="st0" d="M565.3,74.6c6,0,11.6,0,17.6,0c0,24.3,0,48.1,0,72.5c-5.8,0-11.5,0-17.6,0C565.3,123,565.3,99.2,565.3,74.6z"
		/>
	<path class="st0" d="M0.4,109.1c0-11.8,0-23,0-34.8c11.2,0,22,0,33.3,0c0,11.7,0,23,0,34.8C22.6,109.1,11.8,109.1,0.4,109.1z"/>
	<path class="st0" d="M113.5,108.8c0-11.5,0-22.5,0-33.4c16.5-1.8,35.2,17.6,32.6,33.4C135.5,108.8,124.8,108.8,113.5,108.8z"/>
	<path class="st0" d="M108.5,145.7c-12.2,3.3-34.3-13.3-33.3-32.6c10.9,0,21.8,0,33.3,0C108.5,124.2,108.5,134.8,108.5,145.7z"/>
	<path class="st0" d="M113.4,146.1c0-10.8,0-21.7,0-33c11.1,0,21.8,0,32.4,0C149.7,124.5,132.4,148.1,113.4,146.1z"/>
</g>
</svg>
