<?xml version="1.0" encoding="utf-8"?>
<!-- Generator: Adobe Illustrator 24.0.0, SVG Export Plug-In . SVG Version: 6.00 Build 0)  -->
<svg version="1.1" id="Layer_1" xmlns="http://www.w3.org/2000/svg" xmlns:xlink="http://www.w3.org/1999/xlink" x="0px" y="0px"
	 viewBox="0 0 871 195.4" style="enable-background:new 0 0 871 195.4;" xml:space="preserve">
<style type="text/css">
	.st0{fill:#003478;}
</style>
<g>
	<path class="st0" d="M604.2,0c0.3,2,0.6,4.1,0.9,6.2c-7.6,0.4-8.8,2-7.4,9.2c2,0.2,4.1,0.5,6.6,0.8c0,1.6,0,3.2,0,5
		c-2.3,0.3-4.4,0.5-7,0.8c0,8.3,0,16.5,0,25.2c-2.8,0-5,0-8,0c0-8.2,0-16.6,0-25c-2.5-0.4-4.3-0.7-6.4-1c0-1.6,0-3.1,0-4.9
		c1.9-0.3,3.7-0.6,6-0.9c0.1-6.2,0.5-12.4,7.3-15.3C598.9,0,601.5,0,604.2,0z"/>
	<path class="st0" d="M152.2,1.2c0,2.6,0,4.9,0,7.2c0,37.3-0.2,74.6,0.1,111.9c0.1,17.7-6.3,32.4-18.5,44.8
		c-12.9,13-28.8,21.1-45.7,27.8c-8,3.2-15.4,3.2-23.5,0c-19.8-7.8-38.1-17.5-51.6-34.6C4.3,147.5,0,135,0,121C0.1,83,0,45,0,7
		c0-1.8,0-3.6,0-5.8C50.8,1.2,101.1,1.2,152.2,1.2z M15.5,125.1c-0.6,5.8,0.8,10.9,4.6,17.2c6.3,10.4,12.7,13,24.3,9.5
		c7.1-2.1,14-2.5,21,0c4.9,1.7,9.9,1.8,14.7,0c7.7-2.9,15.2-2.5,22.9,0c3.2,1,6.9,1.2,10.3,0.7c4.7-0.7,9.3-2.2,14.4-3.5
		c6.2-6.4,8.9-14.5,9.6-23.9C96.5,125.1,56,125.1,15.5,125.1z M20.4,52c0.1,0.3,0.3,0.5,0.4,0.8c37,0,73.9,0,110.9,0
		c0.1-0.2,0.1-0.5,0.2-0.7c-18.6-12.5-37.2-25-56-37.6C57.1,27,38.7,39.5,20.4,52z M54.8,110.6c0-14.9,0-29.1,0-43.4
		c-4.5,0-8.6,0-12.9,0c0,14.6,0,28.8,0,43.4C46.3,110.6,50.4,110.6,54.8,110.6z M107.5,167.5c-2.6-0.7-4.1-0.9-5.5-1.4
		c-6.8-2.5-13.6-2.6-20.5,0c-5.5,2.1-11.1,1.4-16.7,0.1c-2.4-0.6-4.8-1.4-7.3-1.8c-4.1-0.7-8.1-0.2-12.3,2.6
		c1.9,1.3,3.2,2.5,4.6,3.1c6.6,3,13.4,5.9,20,8.9c4.8,2.2,9.5,2.1,14.4,0.4C92.4,176.7,100,173.2,107.5,167.5z M82.2,110.6
		c0-14.6,0-28.9,0-43.3c-4.5,0-8.5,0-12.7,0c0,14.6,0,28.7,0,43.3C73.9,110.6,77.9,110.6,82.2,110.6z M97.1,110.6
		c4.6,0,8.7,0,12.9,0c0-14.7,0-29,0-43.2c-4.6,0-8.6,0-12.9,0C97.1,81.8,97.1,95.9,97.1,110.6z M138.1,67.2c-4.6,0-8.6,0-13,0
		c0,14.5,0,28.7,0,43.3c4.4,0,8.6,0,13,0C138.1,96,138.1,81.9,138.1,67.2z M27,110.6c0-14.9,0-29.1,0-43.4c-4.5,0-8.5,0-12.7,0
		c0,14.6,0,28.8,0,43.4C18.6,110.6,22.7,110.6,27,110.6z M138,39.6c0-9,0-16.7,0-24.6c-11.9,0-23.4,0-35,0c-0.1,0.3-0.2,0.6-0.3,0.9
		C114.2,23.6,125.7,31.3,138,39.6z M49.1,15.7c-0.2-0.3-0.3-0.5-0.5-0.8c-11.4,0-22.7,0-34.3,0c0,8.1,0,15.9,0,24.6
		C26.3,31.3,37.7,23.5,49.1,15.7z M119.8,156.8c-0.8,0-1.7-0.2-2.4,0c-6.7,2.7-13,0.4-19.5-0.9c-4.3-0.8-9.1-1-13.2,0.2
		c-7.8,2.1-15.3,2.5-23.1,0c-2.8-0.9-6-1.4-8.8-0.9c-5.7,0.9-11.3,2.7-17.7,4.2c1.9,1.3,3.2,2.2,4.3,2.9c1.2-0.3,2.1-0.3,2.9-0.6
		c8.1-3.3,16.2-3.4,24.4-0.5c4.6,1.6,9.2,1.4,13.7-0.2c6.3-2.1,12.5-3,19.1-1c2.8,0.9,5.9,1.2,8.9,1.4
		C112.7,161.8,116.9,161.2,119.8,156.8z"/>
	<path class="st0" d="M265.9,71.7c8.6-0.4,16.5-0.7,24.3,1.7c5.8,1.8,10.2,5.4,11.5,11.3c1,4.8,1.6,10,0.8,14.7
		c-1.4,8.1-6.9,13.3-15.1,14.4c-7,1-14.1,1-21.5,1.5C265.9,100.3,265.9,86.2,265.9,71.7z M274.4,78.2c0,10.2,0,19.9,0,29.9
		c6.9,0.8,12.9,0.1,17.1-5.8c3.8-5.4,4.1-11.2,0.7-16.9C288.3,78.8,282.1,77.3,274.4,78.2z"/>
	<path class="st0" d="M628.3,48c0-15.1,0-29.1,0-43.2c6.9,0,13.7-0.4,20.4,0.1c4.6,0.4,7.9,3.3,8.7,8.3c0.8,4.9-1.1,8.4-5.4,10.7
		c-0.4,0.2-0.8,0.5-1.7,1c1.2,0.7,1.6,1,2.2,1.2c5.1,2.6,6.9,5.7,6.3,10.7c-0.6,5.3-3.7,9.2-9.1,9.8C642.8,47.5,635.9,47.5,628.3,48
		z M636.9,41.1c5,0,9.9,1,12.5-3.8c0.9-1.6,0.6-4.9-0.5-6.3c-3-3.8-7.5-3.3-12-2.9C636.9,32.5,636.9,36.4,636.9,41.1z M637,21.8
		c4.3,0.2,8.4,0.7,10.9-2.7c1-1.3,0.9-4.5-0.1-5.8c-2.6-3.6-6.7-2.6-10.8-2.3C637,14.5,637,17.8,637,21.8z"/>
	<path class="st0" d="M401.8,114.6c-3.1,0-5.4,0-8.3,0c0-2.4,0-4.5,0-6.6c0-8.1,0-16.2,0-24.6c2.6,0,4.5,0,6.8,0
		c0.4,0.8,0.8,1.8,1.3,3.1c6.5-5.4,13-6.2,18.7-0.2c3.5-1.5,6.6-3.4,9.9-3.9c6.1-1.1,10.6,2.6,10.8,8.8c0.3,7.6,0.1,15.2,0.1,23.3
		c-2.5,0-4.7,0-7.2,0c-2-8.1,1.6-17-2.1-24.8c-6-1.9-8.6-0.7-9.6,4.7c-0.8,4.4-0.7,8.9-0.9,13.4c-0.1,2.1,0,4.3,0,6.8
		c-2.6,0-4.9,0-7.8,0c0-5.1,0-10.2,0-15.3c0-1.8,0-3.7-0.1-5.5c-0.2-2.8-1.5-4.8-4.4-5.1c-2.8-0.3-5.1,0.8-5.9,3.5
		c-0.8,2.7-1.1,5.5-1.2,8.3C401.6,105,401.8,109.7,401.8,114.6z"/>
	<path class="st0" d="M558.8,114.7c-3,0-5.3,0-7.9,0c0-15.4,0-30.6,0-46.1c2.6,0,4.8,0,7.9,0c0,5.7,0,11.4,0,17.4
		c3.3-1.4,5.8-2.8,8.4-3.4c7-1.6,12.5,2.4,12.9,9.5c0.4,7.3,0.1,14.6,0.1,22.3c-2.4,0-4.6,0-7.6,0c-0.1-1.5-0.2-3.3-0.2-5
		c-0.1-5.2,0-10.3-0.3-15.5c-0.1-2.7-1.5-4.8-4.4-5.3c-2.9-0.5-5.5,0.3-6.8,3c-1.1,2.3-1.8,5-2,7.6
		C558.6,104.2,558.8,109.2,558.8,114.7z"/>
	<path class="st0" d="M398.8,1.4c2.3,0,4.4,0,7.3,0c0,5.6,0,11.3,0,17c4.1-1.3,7.4-2.9,10.8-3.2c6.4-0.5,10.7,3.3,11,9.6
		c0.3,7.3,0.1,14.6,0.1,22.4c-2.5,0-4.7,0-7.8,0c0-2.3,0.1-4.8,0-7.2c-0.1-4.3-0.3-8.6-0.5-13c-0.2-3.4-1.8-5.6-5.3-6.2
		c-4.7,0.6-7,3.6-7.5,8c-0.4,4.1-0.4,8.3-0.5,12.5c-0.1,1.8,0,3.6,0,5.8c-2.7,0-4.9,0-7.6,0C398.8,32,398.8,16.8,398.8,1.4z"/>
	<path class="st0" d="M292.1,33.3c0,4.5,0,8.9,0,13.9c-2.6,0-5,0-7.7,0c0-15.2,0-30.2,0-45.6c1.2-0.2,2.3-0.3,3.4-0.4
		c1.2-0.1,2.3,0,4,0c0,8.8,0,17.3,0,25.9c0.4,0.2,0.8,0.4,1.2,0.6c3.2-3.8,6.3-7.6,9.7-11.6c2.7,0,5.5,0,9.3,0
		c-4.1,4.9-7.6,9.1-11.6,13.9c4.3,5.6,8.5,11.1,13.2,17.2c-3.7,0-6.7,0-10.2,0c-3.3-4.5-6.7-9.4-10.2-14.2
		C292.8,33.1,292.5,33.2,292.1,33.3z"/>
	<path class="st0" d="M360.9,5c-0.4,2.3-0.7,4.2-1.1,6.1c-2.9-0.4-5.5-1-8.1-1.2c-4.1-0.2-7.2,1.9-7.6,5c-0.5,3.8,2.1,5.2,5,6.4
		c2.9,1.2,5.8,2.4,8.6,3.9c4.5,2.4,6,6.4,5.6,11.3c-0.4,5-2.8,8.4-7.5,10.2c-5.5,2.1-13.8,1.9-19.7-0.7c0.1-1.8,0.2-3.8,0.3-6.2
		c1.9,0.5,3.6,1,5.3,1.3c1.8,0.3,3.6,0.8,5.4,0.7c3.7-0.2,6.9-2.5,7.2-5.1c0.5-3.8-2.4-5.2-5.1-6.5c-2.4-1.2-4.9-2-7.3-3.1
		c-4.9-2.3-7.2-6.1-6.9-11.6c0.3-5.2,2.8-8.9,7.6-10.7C348.7,2.6,354.7,3.4,360.9,5z"/>
	<path class="st0" d="M464.8,115.8c-10,0-17.3-7-17.3-16.7c0.1-9.9,7.2-16.9,17.2-16.8c9.8,0.1,16.9,6.9,17.1,16.5
		C481.9,108.5,474.7,115.7,464.8,115.8z M455.8,98.7c0.6,2.2,0.9,4.6,1.9,6.6c3,5.7,10.6,5.9,13.7,0.2c2.3-4.1,2.4-8.6,0.2-12.9
		c-1.6-3.1-4.9-4.5-8.4-3.9C458.8,89.4,456.1,93.1,455.8,98.7z"/>
	<path class="st0" d="M473.1,31.4c0.1-10.1,6.8-16.4,17.3-16.3c10.1,0.2,16.8,7,16.6,17.1c-0.2,9.6-7.1,16-17.2,16
		C479.4,48.1,473,41.7,473.1,31.4z M498.3,31.5c0.1-8-5.9-12.7-12.1-9.4c-3.7,2-4.8,5.5-4.7,9.3c0.1,4.1,0.7,8.1,4.9,10.2
		c0.9,0.4,1.9,0.6,2.9,0.7C494.8,42.5,498.3,38.3,498.3,31.5z"/>
	<path class="st0" d="M451.8,48.2c-10.1,0.1-17.1-6.4-17.3-16c-0.2-10.3,6.6-17.1,17.1-17.1c10.2,0,17.2,6.9,17.1,16.7
		C468.7,41.5,461.8,48.1,451.8,48.2z M460.9,31.7c-0.7-7.2-5.8-12.1-11.2-10.4c-3.9,1.2-6.1,4.1-6.5,8.5c-0.5,5.3,1.4,10,5.1,11.6
		c3.2,1.4,6.5,1.3,8.7-1.5C458.7,37.6,459.6,34.5,460.9,31.7z"/>
	<path class="st0" d="M579.3,31.8c0,10.2-6.2,16.3-16.5,16.3c-10.5,0-17.1-6.2-17.1-16.4c0-10.1,6.7-16.7,16.9-16.7
		C572.9,15.1,579.3,21.5,579.3,31.8z M571,32c0.1-6.6-3.6-11.2-8.7-11.1c-5,0.1-9,4.9-8.2,10.9c0.4,3.1,1.9,6.3,3.8,8.7
		c1.8,2.4,5.1,2.2,7.8,1C570,39.6,570.5,35.6,571,32z"/>
	<path class="st0" d="M509.6,83.4c3.1,0,5.4,0,8,0c0,10.5,0,20.7,0,31.2c-2.3,0-4.4,0-6.8,0c-0.3-0.9-0.6-1.9-0.9-3
		c-0.6,0.2-1.1,0.3-1.5,0.5c-2.8,1.2-5.6,3.1-8.5,3.5c-6.2,0.8-11.2-3.4-11.4-9.7c-0.3-7.3-0.1-14.6-0.1-22.3c2.6,0,4.9,0,7.9,0
		c0,5.2,0,10.3,0,15.5c0,1.8,0.2,3.6,0.4,5.4c0.4,2.5,1.5,4.5,4.2,4.9c2.9,0.5,5.5-0.5,6.8-3.1c1.1-2.3,1.7-5,1.9-7.6
		C509.8,93.8,509.6,88.8,509.6,83.4z"/>
	<path class="st0" d="M209,114.5c-0.4-1-0.8-2.1-1.2-3.3c-4.7,4.3-9.7,6.1-15.7,3.2c-3.5-1.7-5.4-4.4-5.4-8.3c0-3.9,1.5-7.3,5.4-8.7
		c2.9-1,6.1-1.6,9.2-2c1.9-0.3,3.9-0.1,5.8-0.1c0.8-8-4.8-9.5-16.5-4.5c0-2,0-3.9,0-6.3c5.8-2.4,11.9-3.1,18.2-1.1
		c4.4,1.4,6.2,5,6.3,9.3c0.2,7.1,0,14.3,0,21.8C213.7,114.5,211.6,114.5,209,114.5z M194.4,106c2.1,3.6,4.2,4.6,7.6,3.6
		c4-1.1,5.7-3.9,5.5-9.2C200.1,98.8,196.1,100.5,194.4,106z"/>
	<path class="st0" d="M336.7,114.7c-2.2,0-4,0-5.9,0c-0.4-1.1-0.8-2.1-1.3-3.4c-0.8,0.5-1.3,0.8-1.8,1.2c-4.1,3.2-8.5,4.3-13.5,2.1
		c-3.6-1.7-5.8-4.3-5.8-8.5c0-4.3,1.7-7.6,5.8-8.9c2.9-1,6.1-1.4,9.2-1.8c1.8-0.2,3.6,0,5.3,0c1.2-7.4-2.5-8.5-16.2-5.1
		c-0.1-0.6-0.3-1.3-0.3-1.9c0-1.2,0.1-2.3,0.2-3.7c5.9-2.5,11.8-3.2,17.9-1.3c4.1,1.3,6.3,4.5,6.5,8.6
		C336.9,99.4,336.7,106.8,336.7,114.7z M328.9,99.4c-3.4,0.6-6.9,0.8-10,2c-1.4,0.5-2.8,3.2-2.6,4.7c0.2,1.4,2.3,3.2,3.9,3.6
		C325.6,111,329.7,106.5,328.9,99.4z"/>
	<path class="st0" d="M815.5,34c-7.8,0-14.9,0-22,0c0,8.1,4.2,9.4,19.2,6.4c0.1,0.8,0.3,1.6,0.3,2.4c0,1-0.2,2-0.3,3
		c-5.6,2.8-11.3,3-17.1,1.5c-8-2.1-11.4-8.8-10.3-19.1c0.9-8.1,6.1-13,14.2-13.2c9-0.2,14,3.7,15.4,12.2
		C815.3,29.3,815.3,31.3,815.5,34z M793.2,28.4c4.9,0,9.4,0,13.9,0c-0.1-5.1-2-7.4-6-7.6C796.7,20.5,794.3,22.7,793.2,28.4z"/>
	<path class="st0" d="M764.7,20.9c-5.6,1.9-7.5,4.1-7.7,9.8c-0.2,5.4,0,10.9,0,16.6c-2.8,0-5,0-7.7,0c0-10.4,0-20.5,0-31.2
		c2.2-0.1,4.1-0.2,6.2-0.3c0.7,1,1.4,1.9,2.1,2.9c0.8-0.6,1.6-1.2,2.4-1.7c9.1-5.3,17.9-0.9,18.3,9.6c0.3,6.8,0.1,13.6,0.1,20.7
		c-2.8,0-5.1,0-8,0c0-6.3,0-12.4,0-18.5C770.4,24.9,769.3,21.9,764.7,20.9z"/>
	<path class="st0" d="M665.9,16.1c3,0,4.9,0,7.5,0c0.1,2.4,0.3,4.7,0.4,6.9c0.1,4.5,0.1,9,0.2,13.5c0.1,2.7,1.4,4.9,4.2,5.6
		c2.9,0.7,5.6-0.2,6.9-2.8c1.2-2.6,2-5.6,2.2-8.5c0.4-4.6,0.1-9.3,0.1-14.4c2.7,0,5,0,7.8,0c0,10.2,0,20.3,0,31
		c-2.1,0.1-4.1,0.2-6.4,0.4c-0.6-1.2-1.1-2.3-1.8-3.7c-3.6,3.2-7.5,4.6-12.1,4.1c-3.8-0.4-7-2.3-7.9-5.9
		C664.7,33.6,666.2,24.9,665.9,16.1z"/>
	<path class="st0" d="M247,47.4c-2.3,0-4.1,0-6.2,0c-0.4-0.9-0.8-2-1.2-3.1c-0.5,0.1-1,0.1-1.4,0.3c-1.4,0.8-2.7,1.9-4.2,2.6
		c-8,3.3-15.4-0.6-16-9.1c-0.5-7.1-0.1-14.2-0.1-21.9c2.8-0.1,5.1-0.2,8.1-0.4c0,4.3,0,8.1,0,11.9c0,2,0,4,0,6c0.1,5.6,1.5,8,5,8.5
		c3.9,0.5,7.1-2.1,7.9-7.3c0.6-3.9,0.4-7.9,0.5-11.9c0-2.1,0-4.3,0-6.8c2.7,0,4.9,0,7.6,0C247,26.5,247,36.7,247,47.4z"/>
	<path class="st0" d="M206.3,47.4c-3.3,0-5.6,0-8.5,0c0-12.1,0-24,0-36.5c-4.5,0-8.4,0-12.7,0c0-2.5,0-4.3,0-6.5
		c11.2,0,22.3,0,33.6,0c0,2,0,3.8,0,6.1c-4,0-7.9,0-12.4,0C206.3,23.1,206.3,35,206.3,47.4z"/>
	<path class="st0" d="M869.2,15.8c-0.1,2.5-0.2,4-0.3,5.6c-4.5,0.3-9.7-3.2-13.2,3.5c1.7,1.1,3.2,2.2,4.8,3c1.6,0.8,3.4,1.3,5.1,1.9
		c3.5,1.3,5.2,4,5.3,7.7c0.2,4-1.5,7.2-5.2,8.9c-5.6,2.7-11.3,2-17.2,0.6c0-2.1,0-4,0-6c9.7,2.5,11.7,2,14.3-3.7
		c-1.9-1.1-3.8-2.6-6-3.3c-7.2-2.3-9.9-5.1-9.2-10.4c0.7-5.2,4.9-8.4,11.8-8.5C862.5,15.1,865.6,15.6,869.2,15.8z"/>
	<path class="st0" d="M723,21.7c-8.5-2-10.3-1.5-12.8,3.7c1.9,1,3.9,1.9,5.8,2.9c2.5,1.3,5.4,2.1,7.3,4.1c3.8,4,1.9,11.4-3.1,14.1
		c-4.4,2.3-12,2.4-17.6,0c0-1.7,0-3.4,0-5.2c3.2,0.4,6.1,1,9,1.1c2.3,0.1,4.4-0.8,4.8-3.4c0.4-2.7-1.6-3.8-3.7-4.5
		c-1.7-0.6-3.5-1.1-5.2-1.8c-4.4-1.9-5.7-3.9-5.5-8.4c0.1-4.1,2-6.8,6.1-8.2c5-1.7,10.1-1.4,15.4,0.2
		C723.4,18.1,723.2,19.7,723,21.7z"/>
	<path class="st0" d="M841.4,15.8c-0.2,2.4-0.3,4-0.4,5.6c-4.6,0.1-9.8-3.3-13.1,4c2.5,1.1,4.6,2.2,6.7,3c4,1.5,7.9,2.9,8.4,8
		c0.6,5.2-1.4,8.7-6.3,10.5c-5.3,2-10.7,1.4-16.4,0c0.1-2.1,0.2-3.8,0.3-5.6c12.3,1.9,13.8,1.3,13.4-5.4c-1.8-0.7-3.9-1.5-6-2.2
		c-6.3-2.1-8.5-4.9-7.9-10.3c0.5-4.7,4.3-8,10.2-8.3C833.9,15.1,837.4,15.6,841.4,15.8z"/>
	<path class="st0" d="M372.4,89.1c-2.6-0.2-4.4-0.4-6.4-0.6c0-1.8,0-3.4,0-5.1c2.1-0.2,3.9-0.4,6-0.6c0.2-2,0.5-3.9,0.7-6.3
		c2.1-0.7,4.4-1.5,7.1-2.5c0.3,3,0.5,5.7,0.8,8.7c2.3,0.2,4.4,0.4,7.1,0.6c0.1,1.5,0.2,3,0.4,5c-2.5,0.2-4.7,0.5-7.6,0.8
		c0.1,6.6-1.7,13.3,1.5,19.9c2.2,0.1,4,0.3,6,0.4c0,1.6,0,3.2,0,4.8c-7.9,4-15.4-0.3-15.6-9C372.3,100.1,372.4,94.8,372.4,89.1z"/>
	<path class="st0" d="M242.2,109.3c0.2,2.1,0.3,3.5,0.4,4.9c-8.1,4.1-15.8,0-16.2-8.6c-0.2-5.4,0-10.9,0-16.5
		c-2.2-0.2-3.8-0.3-5.8-0.5c0-1.7,0-3.2,0-5c1.7-0.2,3.3-0.5,5.3-0.7c0.2-1.9,0.5-4,0.7-6.3c2.3-0.8,4.6-1.5,7.4-2.4
		c0.3,3,0.5,5.8,0.8,8.7c2.4,0.2,4.5,0.5,6.9,0.7c0,1.7,0,3.2,0,5c-2.2,0.2-4.3,0.4-7,0.6c0,5.7-0.3,11.3,0.1,16.8
		C235.2,110.1,238.8,109.6,242.2,109.3z"/>
	<path class="st0" d="M544.7,88.7c-2.5,0.2-4.5,0.3-7,0.5c-0.3,6.6-1.3,13.1,1.1,19.9c2.1,0.2,4,0.4,6.3,0.6
		c0.1,1.5,0.2,3.1,0.3,4.5c-8.7,4.6-16.6-1.2-16.2-8.6c0.3-5,0-10-0.1-15c0-0.3-0.2-0.6-0.5-1.3c-1.4-0.2-3-0.5-5.1-0.8
		c-0.1-1.4-0.2-3-0.3-4.8c2-0.4,3.7-0.7,5.7-1.1c0.2-2.1,0.5-4,0.7-6.1c2.4-0.8,4.7-1.6,7.4-2.5c0.3,3.1,0.6,5.9,0.9,8.8
		c2.4,0.2,4.5,0.5,6.9,0.7C544.7,85.2,544.7,86.7,544.7,88.7z"/>
	<path class="st0" d="M392.1,16.5c-0.2,1.8-0.3,3.4-0.5,5.3c-5.5-1.4-10.5-1.5-13.3,3.9c-2.2,4.2-2.1,8.8,0.7,12.8
		c3.2,4.7,7.9,4.1,13.2,2.6c0.1,2.2,0.2,4.2,0.3,6c-10.4,2.4-17.5,0.6-21.2-5.2c-4.1-6.4-3.8-15.9,0.7-21.6
		C376.2,15.2,383.8,13.6,392.1,16.5z"/>
	<path class="st0" d="M521.6,47.4c-2.6,0-4.9,0-7.6,0c0-15.3,0-30.5,0-45.9c2.4,0,4.8,0,7.6,0C521.6,16.5,521.6,31.7,521.6,47.4z"/>
	<path class="st0" d="M277.7,41.2c0,2.2,0,4,0,5.9c-9.4,2.5-17,0.6-20.9-5.1c-3.8-5.6-3.6-16,0.4-21.3c4.1-5.5,11.9-7.2,20.4-4.3
		c-0.2,1.6-0.4,3.3-0.7,5.4c-5.3-1.5-10.1-1.4-12.9,3.6c-2.3,4.2-2.3,8.7,0.3,12.8C267.7,43.4,272.5,42.5,277.7,41.2z"/>
	<path class="st0" d="M353.5,114.7c-2.7,0-5,0-7.7,0c0-10.3,0-20.5,0-31.1c1.9,0,3.8,0,6.1,0c0.4,1.1,0.8,2.5,1.4,4.3
		c3-3,5.6-6.5,10.7-5.2c0,2.2,0,4.3,0,6.7c-0.7,0.1-1.4,0.4-2.2,0.5c-5,0.5-7.2,2.4-7.6,7.4c-0.3,4-0.3,8-0.4,12
		C353.7,110.9,353.6,112.7,353.5,114.7z"/>
	<path class="st0" d="M732.4,16.1c2.6,0,4.7,0,7.2,0c0,10.4,0,20.6,0,31.1c-2.3,0-4.5,0-7.2,0C732.4,37,732.4,26.9,732.4,16.1z"/>
	<path class="st0" d="M739.8,2.3c0,2.5,0,4.4,0,6.8c-2.5,0-4.8,0-7.5,0c0-2.2,0-4.3,0-6.8C734.7,2.3,737,2.3,739.8,2.3z"/>
	<path class="st0" d="M532.9,115.6c-0.4,0.1-0.8,0.2-1.2,0.2c0-0.2-0.1-0.4-0.1-0.6c0.4-0.1,0.8-0.2,1.2-0.3
		C532.8,115.2,532.9,115.4,532.9,115.6z"/>
	<path class="st0" d="M89.5,139.9c-3.2,0.1-5.3-2-5.3-5.2c-0.1-3.1,2.1-5.5,5.1-5.5c2.9-0.1,5.3,2.3,5.4,5.3
		C94.8,137.6,92.6,139.8,89.5,139.9z M85.1,134.4c0.7,2.9,2.2,4.9,5.2,4.1c1.2-0.3,2.9-2.1,2.9-3.3c0-1.4-1.1-3.6-2.3-4.2
		C88,129.8,86.2,131.5,85.1,134.4z"/>
	<path class="st0" d="M118.2,139.9c-3.3,0-5.1-1.9-5.2-5.2c0-3.2,2-5.4,5-5.4c3,0,5.2,2.2,5.2,5.3
		C123.3,137.8,121.3,139.9,118.2,139.9z M122.5,134.6c-1-3.2-2.9-4.8-5.7-3.6c-1.2,0.5-2.6,2.5-2.5,3.6c0.2,1.4,1.6,3.4,2.9,3.9
		C120.1,139.5,121.6,137.4,122.5,134.6z"/>
	<path class="st0" d="M32.4,139.7c0-3.6,0-6.8,0-10.2c0.5,0,1.7,0,2.8,0c0,3.3,0,6.7,0,10.2C33.9,139.7,33.1,139.7,32.4,139.7z"/>
	<path class="st0" d="M63.4,129.8c4.3,4.9,2.4,10.4-4.4,12.9l-0.1,0.1c4.9-3.2,6-7.7,4.6-13.1L63.4,129.8z"/>
	<path class="st0" d="M58.9,129.8c-1.1,4.2-1.1,4.2,1.3,7.4c-1.1-0.7-2.8-1.1-3.3-2.1c-1-2.1-0.4-4.2,2.1-5.2L58.9,129.8z"/>
	<path class="st0" d="M63.6,129.7c-1.6,0-3.1,0-4.7,0.1c0,0,0.1,0.1,0.1,0.1c1.5,0,3,0,4.5-0.1C63.4,129.8,63.6,129.7,63.6,129.7z"
		/>
	<path class="st0" d="M59.1,142.7c0,0-0.1,0.1-0.1,0.1C58.9,142.8,59.1,142.7,59.1,142.7z"/>
	<path class="st0" d="M76.7,27.9c4.6,0.2,7.5,3.4,7.4,8.1c-0.1,4.3-3.7,7.8-8,7.7c-4.4-0.1-8-4.1-7.7-8.6
		C68.7,30.7,72.1,27.7,76.7,27.9z"/>
</g>
</svg>
