
<svg xmlns="http://www.w3.org/2000/svg" width="124.356" height="47.534" viewBox="0 0 124.356 47.534">
  <g id="gdpr-icon.3075fc2d" transform="translate(-5.056 -5.056)">
    <g id="Group_1784" data-name="Group 1784" transform="translate(5.056 5.056)">
      <path id="Path_1578" data-name="Path 1578" d="M28.824,5.056l.77,2.492h2.492L30.071,9.088l.768,2.492-2.015-1.541L26.809,11.58l.768-2.492L25.562,7.548h2.49Zm0,41.011.77,2.492h2.492L30.071,50.1l.768,2.49-2.015-1.539L26.809,52.59l.768-2.49-2.015-1.541h2.49ZM39.075,8.783l.77,2.492h2.494l-2.017,1.541.77,2.492-2.015-1.541-2.017,1.541.77-2.492-2.015-1.541h2.49Zm8.389,7.068.77,2.492h2.492l-2.015,1.541.77,2.492-2.015-1.541-2.019,1.541.772-2.492L44.2,18.343H46.7Zm0,19.962.77,2.494h2.492l-2.015,1.539.77,2.492L47.467,40.8l-2.019,1.541.772-2.492L44.2,38.308H46.7ZM10.182,15.851l.77,2.492h2.494l-2.015,1.541.77,2.492-2.015-1.541L8.167,22.377l.772-2.492L6.922,18.343H9.414ZM49.329,25.56l.77,2.492H52.59l-2.015,1.541.77,2.492-2.015-1.539-2.017,1.539.77-2.492-2.015-1.541h2.49Zm-41.011,0,.77,2.492H11.58L9.565,29.594l.77,2.492L8.32,30.547,6.3,32.086l.772-2.492L5.056,28.053H7.548Zm1.864,10.253.77,2.494h2.494l-2.015,1.539.77,2.492L10.186,40.8,8.169,42.339l.77-2.492L6.922,38.308H9.414ZM40.941,44.2l.77,2.492H44.2l-2.017,1.539.77,2.492-2.015-1.539-2.017,1.539.77-2.492L37.679,46.7h2.492ZM18.571,8.783l.77,2.492h2.492l-2.015,1.541.77,2.492-2.017-1.541-2.015,1.541.768-2.492-2.015-1.541H17.8ZM16.705,44.2l.772,2.492h2.492l-2.017,1.539.77,2.492-2.015-1.539-2.017,1.539.77-2.492L13.445,46.7h2.49Z" transform="translate(-5.056 -5.056)" fill="#ea6c00"/>
    </g>
    <path id="Path_1579" data-name="Path 1579" d="M26.907,16.632l-7.33,7.487a1.493,1.493,0,0,1-.927.391h-.633a1.5,1.5,0,0,1-.927-.391L13.64,20.585a.564.564,0,0,1,0-.784L15,18.419a.538.538,0,0,1,.77,0l2.2,2.24a.538.538,0,0,0,.768,0l6.044-6.173a.54.54,0,0,1,.77,0l1.35,1.366a.562.562,0,0,1,0,.782Z" transform="translate(8.55 9.406)" fill="#309670" fill-rule="evenodd"/>
    <path id="Path_1580" data-name="Path 1580" d="M36.233,17.125c0,4.827,3.7,7.858,8.24,7.858a8.8,8.8,0,0,0,6.733-2.962V16.077h-7.35v3.258H47.35V20.61a4.761,4.761,0,0,1-2.877.911,4.2,4.2,0,0,1-4.245-4.4,4.2,4.2,0,0,1,4.245-4.394,3.788,3.788,0,0,1,3.22,1.8L50.979,12.8a7.168,7.168,0,0,0-6.506-3.528c-4.541,0-8.24,3.028-8.24,7.858Zm17.281,7.584V9.519H59.9c4.8,0,8.24,2.869,8.24,7.584s-3.445,7.606-8.218,7.606Zm3.927-3.415H59.9A4.038,4.038,0,0,0,64.127,17.1a3.893,3.893,0,0,0-4.2-4.167H57.442v8.357Zm12.669,3.415V9.519h7.624a4.908,4.908,0,0,1,5.295,5.057c0,2.732-1.872,4.987-5.295,4.987h-3.7v5.146Zm8.925-10.154a1.7,1.7,0,0,0-1.827-1.733H74.034v3.417h3.173a1.681,1.681,0,0,0,1.827-1.686ZM93.279,24.708,90.72,19.562H88.712v5.146H84.787V9.519h7.624c3.379,0,5.295,2.232,5.295,5.057a4.6,4.6,0,0,1-3.034,4.553l3.1,5.581h-4.5Zm.433-10.179a1.754,1.754,0,0,0-1.894-1.709H88.712v3.417h3.1A1.754,1.754,0,0,0,93.71,14.53Z" transform="translate(31.637 4.275)" fill="#fff" fill-rule="evenodd"/>
    <text id="READY" transform="translate(67.87 46.219)" fill="#fff" font-size="13" font-family="SegoeUI-Bold, Segoe UI" font-weight="700" letter-spacing="0.024em"><tspan x="0" y="0">READY</tspan></text>
  </g>
</svg>
